<?xml version="1.0" standalone="no"?>
<!DOCTYPE svg PUBLIC "-//W3C//DTD SVG 1.1//EN" "http://www.w3.org/Graphics/SVG/1.1/DTD/svg11.dtd" >
<svg xmlns="http://www.w3.org/2000/svg" xmlns:xlink="http://www.w3.org/1999/xlink" version="1.1">
<metadata>
Created by FontForge 20161116 at Tue Nov 30 15:33:58 2010
 By Jimmy Wärting
Copyright (c) Mark Simonson, 2005. All rights reserved.
</metadata>
<defs>
<font id="ProximaNovaCond-Bold" horiz-adv-x="479" >
  <font-face 
    font-family="Proxima Nova Cn Rg"
    font-weight="700"
    font-stretch="normal"
    units-per-em="1000"
    panose-1="2 0 5 6 3 0 0 2 0 4"
    ascent="790"
    descent="-210"
    x-height="483"
    cap-height="667"
    bbox="-135 -286 985 889"
    underline-thickness="20"
    underline-position="-133"
    stemh="118"
    stemv="120"
    unicode-range="U+000D-FB04"
  />
<missing-glyph horiz-adv-x="469" 
d="M410 -90h-351v842h351v-842zM378 -60v782h-288v-782h288z" />
    <glyph glyph-name="f_b" unicode="fb" horiz-adv-x="793" 
d="M197 0h-121v378h-62v105h62v38c0 99 57 156 141 156c33 0 59 -6 80 -17l-22 -91c-7 6 -17 9 -30 9c-29 0 -48 -20 -48 -57v-38h79v-105h-79v-378zM462 151c16 -32 51 -57 84 -57c61 0 93 63 93 147c0 85 -32 148 -93 148c-33 0 -68 -26 -84 -58v-180zM462 0h-120v667h120
v-245c29 50 76 73 122 73c109 0 179 -99 179 -254c0 -158 -71 -253 -179 -253c-46 0 -92 25 -122 73v-61z" />
    <glyph glyph-name="f_f" unicode="ff" horiz-adv-x="577" 
d="M197 0h-121v378h-62v105h62v38c0 98 56 156 146 156c40 0 80 -11 106 -36l-39 -81c-12 12 -24 18 -43 18c-31 0 -49 -21 -49 -57v-38h79v-105h-79v-378zM485 0h-121v378h-62v105h62v38c0 98 56 156 146 156c40 0 80 -11 106 -36l-39 -81c-12 12 -24 18 -43 18
c-31 0 -49 -21 -49 -57v-38h79v-105h-79v-378z" />
    <glyph glyph-name="f_h" unicode="fh" horiz-adv-x="788" 
d="M197 0h-121v378h-62v105h62v38c0 99 57 156 141 156c33 0 59 -6 80 -17l-22 -91c-7 6 -17 9 -30 9c-29 0 -48 -20 -48 -57v-38h79v-105h-79v-378zM734 0h-120v320c0 50 -24 69 -64 69c-39 0 -71 -31 -87 -60v-329h-121v667h121v-247c25 38 79 75 141 75
c90 0 130 -49 130 -130v-365z" />
    <glyph glyph-name="fi" unicode="fi" horiz-adv-x="517" 
d="M197 0h-121v378h-62v105h62v38c0 99 57 156 141 156c33 0 59 -6 80 -17l-22 -91c-7 6 -17 9 -30 9c-29 0 -48 -20 -48 -57v-38h79v-105h-79v-378zM402 537c-39 0 -72 32 -72 72s33 73 72 73c40 0 72 -33 72 -73s-32 -72 -72 -72zM462 0h-120v483h120v-483z" />
    <glyph glyph-name="f_j" unicode="fj" horiz-adv-x="517" 
d="M197 0h-121v378h-62v105h62v38c0 99 57 156 141 156c33 0 59 -6 80 -17l-22 -91c-7 6 -17 9 -30 9c-29 0 -48 -20 -48 -57v-38h79v-105h-79v-378zM402 537c-39 0 -72 32 -72 72s33 73 72 73c40 0 72 -33 72 -73s-32 -72 -72 -72zM310 -196c-44 0 -67 9 -92 29l30 91
c12 -12 25 -19 45 -19c29 0 49 20 49 67v511h120v-511c0 -106 -48 -168 -152 -168z" />
    <glyph glyph-name="f_k" unicode="fk" horiz-adv-x="758" 
d="M197 0h-121v378h-62v105h62v38c0 99 57 156 141 156c33 0 59 -6 80 -17l-22 -91c-7 6 -17 9 -30 9c-29 0 -48 -20 -48 -57v-38h79v-105h-79v-378zM754 0h-141l-100 189l-51 -71v-118h-120v667h120v-403l147 219h140l-153 -217z" />
    <glyph glyph-name="fl" unicode="fl" horiz-adv-x="517" 
d="M197 0h-121v378h-62v105h62v38c0 99 57 156 141 156c33 0 59 -6 80 -17l-22 -91c-7 6 -17 9 -30 9c-29 0 -48 -20 -48 -57v-38h79v-105h-79v-378zM462 0h-120v667h120v-667z" />
    <glyph glyph-name="f_f_i" unicode="ffi" horiz-adv-x="805" 
d="M485 0h-121v378h-62v105h62v38c0 99 57 156 141 156c33 0 59 -6 80 -17l-22 -91c-7 6 -17 9 -30 9c-29 0 -48 -20 -48 -57v-38h79v-105h-79v-378zM691 537c-39 0 -72 32 -72 72s33 73 72 73c40 0 72 -33 72 -73s-32 -72 -72 -72zM751 0h-120v483h120v-483zM197 0h-121
v378h-62v105h62v38c0 98 56 156 146 156c40 0 80 -11 106 -36l-39 -81c-12 12 -24 18 -43 18c-31 0 -49 -21 -49 -57v-38h79v-105h-79v-378z" />
    <glyph glyph-name="f_f_j" unicode="ffj" horiz-adv-x="805" 
d="M485 0h-121v378h-62v105h62v38c0 99 57 156 141 156c33 0 59 -6 80 -17l-22 -91c-7 6 -17 9 -30 9c-29 0 -48 -20 -48 -57v-38h79v-105h-79v-378zM691 537c-39 0 -72 32 -72 72s33 73 72 73c40 0 72 -33 72 -73s-32 -72 -72 -72zM599 -196c-44 0 -67 9 -92 29l30 91
c12 -12 25 -19 45 -19c29 0 49 20 49 67v511h120v-511c0 -106 -48 -168 -152 -168zM197 0h-121v378h-62v105h62v38c0 98 56 156 146 156c40 0 80 -11 106 -36l-39 -81c-12 12 -24 18 -43 18c-31 0 -49 -21 -49 -57v-38h79v-105h-79v-378z" />
    <glyph glyph-name="f_f_l" unicode="ffl" horiz-adv-x="805" 
d="M485 0h-121v378h-62v105h62v38c0 99 57 156 141 156c33 0 59 -6 80 -17l-22 -91c-7 6 -17 9 -30 9c-29 0 -48 -20 -48 -57v-38h79v-105h-79v-378zM751 0h-120v667h120v-667zM197 0h-121v378h-62v105h62v38c0 98 56 156 146 156c40 0 80 -11 106 -36l-39 -81
c-12 12 -24 18 -43 18c-31 0 -49 -21 -49 -57v-38h79v-105h-79v-378z" />
    <glyph glyph-name=".notdef" horiz-adv-x="469" 
d="M410 -90h-351v842h351v-842zM378 -60v782h-288v-782h288z" />
    <glyph glyph-name=".null" horiz-adv-x="0" 
 />
    <glyph glyph-name=".null" horiz-adv-x="0" 
 />
    <glyph glyph-name="CR" unicode="&#xd;" horiz-adv-x="0" 
 />
    <glyph glyph-name="space" unicode=" " horiz-adv-x="210" 
 />
    <glyph glyph-name="nbspace" unicode="&#xa0;" horiz-adv-x="210" 
 />
    <glyph glyph-name="thinspace" unicode="&#x2009;" horiz-adv-x="42" 
 />
    <glyph glyph-name="zero" unicode="0" horiz-adv-x="537" 
d="M268 -12c-165 0 -236 174 -236 345c0 172 71 344 236 344c166 0 236 -172 236 -344c0 -171 -69 -345 -236 -345zM268 107c78 0 100 98 100 226c0 129 -22 225 -100 225c-77 0 -99 -96 -99 -225c0 -128 22 -226 99 -226z" />
    <glyph glyph-name="zero.pzero" horiz-adv-x="537" 
d="M268 -12c-51 0 -93 17 -127 45l-19 -33h-86l53 94c-39 65 -57 152 -57 239c0 172 71 344 236 344c51 0 93 -17 126 -44l20 34h86l-54 -95c40 -65 58 -152 58 -239c0 -171 -69 -345 -236 -345zM268 107c78 0 100 98 100 226c0 33 -2 64 -5 92l-160 -282
c15 -23 36 -36 65 -36zM169 333c0 -32 1 -63 4 -90l159 280c-15 22 -36 35 -64 35c-77 0 -99 -96 -99 -225z" />
    <glyph glyph-name="one" unicode="1" horiz-adv-x="380" 
d="M321 0h-135v494l-101 -105l-77 81l196 197h117v-667z" />
    <glyph glyph-name="two" unicode="2" horiz-adv-x="521" 
d="M478 0h-434v108c244 237 295 290 295 366c0 51 -39 84 -89 84c-59 0 -106 -27 -142 -75l-80 84c54 72 133 110 224 110c129 0 223 -78 223 -202c0 -101 -68 -187 -233 -357h236v-118z" />
    <glyph glyph-name="three" unicode="3" horiz-adv-x="513" 
d="M249 -12c-106 0 -187 47 -229 108l80 84c34 -44 87 -73 143 -73c70 0 102 37 102 89c0 62 -43 84 -108 84c-22 0 -52 0 -62 -2v121c10 -1 43 -1 59 -1c61 0 102 25 102 77c0 56 -40 83 -98 83c-52 0 -99 -24 -133 -67l-76 78c48 67 124 108 220 108
c132 0 219 -63 219 -181c0 -76 -57 -138 -126 -152c68 -10 136 -70 136 -160c0 -116 -89 -196 -229 -196z" />
    <glyph glyph-name="four" unicode="4" horiz-adv-x="514" 
d="M426 0h-134v142h-272v112l234 413h172v-407h67v-118h-67v-142zM292 260v271l-151 -271h151z" />
    <glyph glyph-name="five" unicode="5" horiz-adv-x="527" 
d="M262 -12c-103 0 -174 38 -224 105l81 86c35 -46 82 -72 139 -72c64 0 101 49 101 105c0 66 -35 105 -95 105c-45 0 -79 -16 -110 -55l-97 26v379h400v-118h-266v-171c26 32 71 55 122 55c101 0 182 -79 182 -217c0 -134 -91 -228 -233 -228z" />
    <glyph glyph-name="six" unicode="6" horiz-adv-x="525" 
d="M278 -12c-177 0 -246 159 -246 344c0 200 95 345 267 345c71 0 132 -28 171 -72l-65 -100c-26 35 -57 53 -104 53c-81 0 -133 -93 -133 -199v-12c25 46 79 85 142 85c100 0 187 -75 187 -217c0 -129 -88 -227 -219 -227zM270 107c61 0 91 53 91 103c0 78 -46 107 -93 107
c-43 0 -77 -30 -100 -68c5 -63 28 -142 102 -142z" />
    <glyph glyph-name="seven" unicode="7" horiz-adv-x="468" 
d="M242 0h-145l200 549h-276v118h428v-93z" />
    <glyph glyph-name="eight" unicode="8" horiz-adv-x="523" 
d="M262 -12c-133 0 -230 64 -230 182c0 81 59 148 127 174c-63 23 -118 77 -118 159c0 122 111 174 221 174c108 0 221 -52 221 -174c0 -82 -56 -136 -119 -159c68 -26 128 -93 128 -173c0 -119 -98 -183 -230 -183zM262 392c25 6 86 32 86 89c0 49 -34 79 -86 79
c-53 0 -87 -30 -87 -79c0 -57 61 -83 87 -89zM262 105c52 0 95 30 95 83c0 64 -68 97 -95 101c-28 -4 -95 -37 -95 -101c0 -53 41 -83 95 -83z" />
    <glyph glyph-name="nine" unicode="9" horiz-adv-x="525" 
d="M225 -11c-70 0 -131 28 -170 72l64 99c27 -34 58 -52 105 -52c85 0 133 94 133 198v13c-26 -46 -80 -85 -142 -85c-100 0 -187 75 -187 217c0 129 88 227 219 227c176 0 245 -159 245 -345c0 -199 -94 -344 -267 -344zM257 349c43 0 77 30 99 68c-4 63 -26 142 -101 142
c-61 0 -91 -54 -91 -103c0 -78 46 -107 93 -107z" />
    <glyph glyph-name="zero.tnum" unicode="&#xf639;" horiz-adv-x="532" 
d="M265 -12c-165 0 -236 174 -236 345c0 172 71 344 236 344c166 0 236 -172 236 -344c0 -171 -69 -345 -236 -345zM265 107c78 0 100 98 100 226c0 129 -22 225 -100 225c-77 0 -99 -96 -99 -225c0 -128 22 -226 99 -226z" />
    <glyph glyph-name="zero.tzero" unicode="&#xf638;" horiz-adv-x="532" 
d="M266 -12c-51 0 -93 17 -127 45l-19 -33h-86l53 94c-39 65 -57 152 -57 239c0 172 71 344 236 344c51 0 93 -17 126 -44l20 34h86l-54 -95c40 -65 58 -152 58 -239c0 -171 -69 -345 -236 -345zM266 107c78 0 100 98 100 226c0 33 -2 64 -5 92l-160 -282
c15 -23 36 -36 65 -36zM167 333c0 -32 1 -63 4 -90l159 280c-15 22 -36 35 -64 35c-77 0 -99 -96 -99 -225z" />
    <glyph glyph-name="one.tnum" unicode="&#xf6dc;" horiz-adv-x="532" 
d="M401 0h-135v494l-101 -105l-77 81l196 197h117v-667z" />
    <glyph glyph-name="two.tnum" unicode="&#xf63a;" horiz-adv-x="532" 
d="M490 0h-434v108c244 237 295 290 295 366c0 51 -39 84 -89 84c-59 0 -106 -27 -142 -75l-80 84c54 72 133 110 224 110c129 0 223 -78 223 -202c0 -101 -68 -187 -233 -357h236v-118z" />
    <glyph glyph-name="three.tnum" unicode="&#xf63b;" horiz-adv-x="532" 
d="M262 -12c-106 0 -187 47 -229 108l80 84c34 -44 87 -73 143 -73c70 0 102 37 102 89c0 62 -43 84 -108 84c-22 0 -52 0 -62 -2v121c10 -1 43 -1 59 -1c61 0 102 25 102 77c0 56 -40 83 -98 83c-52 0 -99 -24 -133 -67l-76 78c48 67 124 108 220 108
c132 0 219 -63 219 -181c0 -76 -57 -138 -126 -152c68 -10 136 -70 136 -160c0 -116 -89 -196 -229 -196z" />
    <glyph glyph-name="four.tnum" unicode="&#xf63c;" horiz-adv-x="532" 
d="M434 0h-134v142h-272v112l234 413h172v-407h67v-118h-67v-142zM300 260v271l-151 -271h151z" />
    <glyph glyph-name="five.tnum" unicode="&#xf63d;" horiz-adv-x="532" 
d="M262 -12c-103 0 -174 38 -224 105l81 86c35 -46 82 -72 139 -72c64 0 101 49 101 105c0 66 -35 105 -95 105c-45 0 -79 -16 -110 -55l-97 26v379h400v-118h-266v-171c26 32 71 55 122 55c101 0 182 -79 182 -217c0 -134 -91 -228 -233 -228z" />
    <glyph glyph-name="six.tnum" unicode="&#xf63e;" horiz-adv-x="532" 
d="M283 -12c-177 0 -246 159 -246 344c0 200 95 345 267 345c71 0 132 -28 171 -72l-65 -100c-26 35 -57 53 -104 53c-81 0 -133 -93 -133 -199v-12c25 46 79 85 142 85c100 0 187 -75 187 -217c0 -129 -88 -227 -219 -227zM275 107c61 0 91 53 91 103c0 78 -46 107 -93 107
c-43 0 -77 -30 -100 -68c5 -63 28 -142 102 -142z" />
    <glyph glyph-name="seven.tnum" unicode="&#xf63f;" horiz-adv-x="532" 
d="M273 0h-145l200 549h-276v118h428v-93z" />
    <glyph glyph-name="eight.tnum" unicode="&#xf640;" horiz-adv-x="532" 
d="M266 -12c-133 0 -230 64 -230 182c0 81 59 148 127 174c-63 23 -118 77 -118 159c0 122 111 174 221 174c108 0 221 -52 221 -174c0 -82 -56 -136 -119 -159c68 -26 128 -93 128 -173c0 -119 -98 -183 -230 -183zM266 392c25 6 86 32 86 89c0 49 -34 79 -86 79
c-53 0 -87 -30 -87 -79c0 -57 61 -83 87 -89zM266 105c52 0 95 30 95 83c0 64 -68 97 -95 101c-28 -4 -95 -37 -95 -101c0 -53 41 -83 95 -83z" />
    <glyph glyph-name="nine.tnum" unicode="&#xf641;" horiz-adv-x="532" 
d="M229 -11c-70 0 -131 28 -170 72l64 99c27 -34 58 -52 105 -52c85 0 133 94 133 198v13c-26 -46 -80 -85 -142 -85c-100 0 -187 75 -187 217c0 129 88 227 219 227c176 0 245 -159 245 -345c0 -199 -94 -344 -267 -344zM261 349c43 0 77 30 99 68c-4 63 -26 142 -101 142
c-61 0 -91 -54 -91 -103c0 -78 46 -107 93 -107z" />
    <glyph glyph-name="zero.tonum" unicode="&#xf643;" horiz-adv-x="532" 
d="M501 275c0 -145 -70 -287 -236 -287c-164 0 -236 142 -236 287c0 146 72 287 236 287c165 0 236 -141 236 -287zM365 275c0 86 -27 168 -100 168c-72 0 -99 -82 -99 -168s27 -168 99 -168c73 0 100 82 100 168z" />
    <glyph glyph-name="zero.tonumzero" horiz-adv-x="532" 
d="M501 275c0 -145 -70 -287 -236 -287c-51 0 -94 13 -128 37l-16 -25h-82l49 73c-40 54 -59 128 -59 202c0 146 72 287 236 287c50 0 92 -13 125 -36l16 24h82l-48 -71c42 -54 61 -129 61 -204zM365 275c0 27 -3 54 -9 78l-148 -222c14 -15 33 -24 57 -24
c73 0 100 82 100 168zM166 275c0 -26 2 -51 7 -74l147 220c-14 14 -33 22 -55 22c-72 0 -99 -82 -99 -168z" />
    <glyph glyph-name="one.tonum" unicode="&#xf644;" horiz-adv-x="532" 
d="M401 0h-135v377l-101 -105l-77 81l196 197h117v-550z" />
    <glyph glyph-name="two.tonum" unicode="&#xf645;" horiz-adv-x="532" 
d="M466 0h-407v109c210 106 281 193 281 255c0 46 -35 79 -83 79c-53 0 -100 -23 -138 -72l-80 81c54 72 134 110 224 110c128 0 212 -68 212 -176c0 -87 -76 -186 -203 -268h194v-118z" />
    <glyph glyph-name="three.tonum" unicode="&#xf646;" horiz-adv-x="532" 
d="M262 -127c-106 0 -187 47 -229 108l80 84c34 -44 87 -73 143 -73c70 0 102 37 102 89c0 62 -43 84 -108 84c-22 0 -52 0 -62 -2v121c10 -1 43 -1 59 -1c61 0 102 25 102 77c0 56 -40 83 -98 83c-52 0 -99 -24 -133 -67l-76 78c48 67 124 108 220 108
c132 0 219 -63 219 -181c0 -76 -57 -138 -126 -152c68 -10 136 -70 136 -160c0 -116 -89 -196 -229 -196z" />
    <glyph glyph-name="four.tonum" unicode="&#xf647;" horiz-adv-x="532" 
d="M501 31h-67v-148h-134v148h-272v112l234 407h172v-401h67v-118zM300 149v265l-151 -265h151z" />
    <glyph glyph-name="five.tonum" unicode="&#xf648;" horiz-adv-x="532" 
d="M262 -129c-103 0 -174 38 -224 105l81 86c35 -46 82 -72 139 -72c64 0 101 49 101 105c0 66 -35 105 -95 105c-45 0 -79 -16 -110 -55l-97 26v379h400v-118h-266v-171c26 32 71 55 122 55c101 0 182 -79 182 -217c0 -134 -91 -228 -233 -228z" />
    <glyph glyph-name="six.tonum" unicode="&#xf649;" horiz-adv-x="532" 
d="M283 -12c-177 0 -246 159 -246 344c0 200 95 345 267 345c71 0 132 -28 171 -72l-65 -100c-26 35 -57 53 -104 53c-81 0 -133 -93 -133 -199v-12c25 46 79 85 142 85c100 0 187 -75 187 -217c0 -129 -88 -227 -219 -227zM275 107c61 0 91 53 91 103c0 78 -46 107 -93 107
c-43 0 -77 -30 -100 -68c5 -63 28 -142 102 -142z" />
    <glyph glyph-name="seven.tonum" unicode="&#xf64a;" horiz-adv-x="532" 
d="M273 -117h-145l200 549h-276v118h428v-93z" />
    <glyph glyph-name="eight.tonum" unicode="&#xf64b;" horiz-adv-x="532" 
d="M266 -12c-133 0 -230 64 -230 182c0 81 59 148 127 174c-63 23 -118 77 -118 159c0 122 111 174 221 174c108 0 221 -52 221 -174c0 -82 -56 -136 -119 -159c68 -26 128 -93 128 -173c0 -119 -98 -183 -230 -183zM266 392c25 6 86 32 86 89c0 49 -34 79 -86 79
c-53 0 -87 -30 -87 -79c0 -57 61 -83 87 -89zM266 105c52 0 95 30 95 83c0 64 -68 97 -95 101c-28 -4 -95 -37 -95 -101c0 -53 41 -83 95 -83z" />
    <glyph glyph-name="nine.tonum" unicode="&#xf64c;" horiz-adv-x="532" 
d="M229 -127c-70 0 -131 28 -170 72l64 99c27 -34 58 -52 105 -52c85 0 133 94 133 198v13c-26 -46 -80 -85 -142 -85c-100 0 -187 75 -187 217c0 129 88 227 219 227c176 0 245 -159 245 -345c0 -199 -94 -344 -267 -344zM261 233c43 0 77 30 99 68c-4 63 -26 142 -101 142
c-61 0 -91 -54 -91 -103c0 -78 46 -107 93 -107z" />
    <glyph glyph-name="zero.onum" unicode="&#xf730;" horiz-adv-x="537" 
d="M504 275c0 -145 -70 -287 -236 -287c-164 0 -236 142 -236 287c0 146 72 287 236 287c165 0 236 -141 236 -287zM368 275c0 86 -27 168 -100 168c-72 0 -99 -82 -99 -168s27 -168 99 -168c73 0 100 82 100 168z" />
    <glyph glyph-name="zero.onumzero" horiz-adv-x="537" 
d="M504 275c0 -145 -70 -287 -236 -287c-51 0 -94 13 -128 37l-16 -25h-82l49 73c-40 54 -59 128 -59 202c0 146 72 287 236 287c50 0 92 -13 125 -36l16 24h82l-48 -71c42 -54 61 -129 61 -204zM368 275c0 27 -3 54 -9 78l-148 -222c14 -15 33 -24 57 -24
c73 0 100 82 100 168zM169 275c0 -26 2 -51 7 -74l147 220c-14 14 -33 22 -55 22c-72 0 -99 -82 -99 -168z" />
    <glyph glyph-name="one.onum" unicode="&#xf731;" horiz-adv-x="380" 
d="M321 0h-135v377l-101 -105l-77 81l196 197h117v-550z" />
    <glyph glyph-name="two.onum" unicode="&#xf732;" horiz-adv-x="505" 
d="M453 0h-407v109c210 106 281 193 281 255c0 46 -35 79 -83 79c-53 0 -100 -23 -138 -72l-80 81c54 72 134 110 224 110c128 0 212 -68 212 -176c0 -87 -76 -186 -203 -268h194v-118z" />
    <glyph glyph-name="three.onum" unicode="&#xf733;" horiz-adv-x="509" 
d="M245 -128c-106 0 -187 47 -229 108l80 84c34 -44 87 -73 143 -73c70 0 102 37 102 89c0 62 -43 84 -108 84c-22 0 -52 0 -62 -2v121c10 -1 43 -1 59 -1c61 0 102 25 102 77c0 56 -40 83 -98 83c-52 0 -99 -24 -133 -67l-76 78c48 67 124 108 220 108
c132 0 219 -63 219 -181c0 -76 -57 -138 -126 -152c68 -10 136 -70 136 -160c0 -116 -89 -196 -229 -196z" />
    <glyph glyph-name="four.onum" unicode="&#xf734;" horiz-adv-x="514" 
d="M493 31h-67v-148h-134v148h-272v112l234 407h172v-401h67v-118zM292 149v265l-151 -265h151z" />
    <glyph glyph-name="five.onum" unicode="&#xf735;" horiz-adv-x="527" 
d="M262 -129c-103 0 -174 38 -224 105l81 86c35 -46 82 -72 139 -72c64 0 101 49 101 105c0 66 -35 105 -95 105c-45 0 -79 -16 -110 -55l-97 26v379h400v-118h-266v-171c26 32 71 55 122 55c101 0 182 -79 182 -217c0 -134 -91 -228 -233 -228z" />
    <glyph glyph-name="six.onum" unicode="&#xf736;" horiz-adv-x="525" 
d="M278 -12c-177 0 -246 159 -246 344c0 200 95 345 267 345c71 0 132 -28 171 -72l-65 -100c-26 35 -57 53 -104 53c-81 0 -133 -93 -133 -199v-12c25 46 79 85 142 85c100 0 187 -75 187 -217c0 -129 -88 -227 -219 -227zM270 107c61 0 91 53 91 103c0 78 -46 107 -93 107
c-43 0 -77 -30 -100 -68c5 -63 28 -142 102 -142z" />
    <glyph glyph-name="seven.onum" unicode="&#xf737;" horiz-adv-x="468" 
d="M242 -117h-145l200 549h-276v118h428v-93z" />
    <glyph glyph-name="eight.onum" unicode="&#xf738;" horiz-adv-x="523" 
d="M262 -12c-133 0 -230 64 -230 182c0 81 59 148 127 174c-63 23 -118 77 -118 159c0 122 111 174 221 174c108 0 221 -52 221 -174c0 -82 -56 -136 -119 -159c68 -26 128 -93 128 -173c0 -119 -98 -183 -230 -183zM262 392c25 6 86 32 86 89c0 49 -34 79 -86 79
c-53 0 -87 -30 -87 -79c0 -57 61 -83 87 -89zM262 105c52 0 95 30 95 83c0 64 -68 97 -95 101c-28 -4 -95 -37 -95 -101c0 -53 41 -83 95 -83z" />
    <glyph glyph-name="nine.onum" unicode="&#xf739;" horiz-adv-x="525" 
d="M225 -127c-70 0 -131 28 -170 72l64 99c27 -34 58 -52 105 -52c85 0 133 94 133 198v13c-26 -46 -80 -85 -142 -85c-100 0 -187 75 -187 217c0 129 88 227 219 227c176 0 245 -159 245 -345c0 -199 -94 -344 -267 -344zM257 233c43 0 77 30 99 68c-4 63 -26 142 -101 142
c-61 0 -91 -54 -91 -103c0 -78 46 -107 93 -107z" />
    <glyph glyph-name="A" unicode="A" horiz-adv-x="554" 
d="M556 0h-146l-31 118h-205l-31 -118h-145l198 667h162zM353 236l-76 290l-76 -290h152z" />
    <glyph glyph-name="B" unicode="B" horiz-adv-x="558" 
d="M344 0h-285v667h276c119 0 176 -79 176 -170c0 -84 -46 -138 -107 -153c68 -11 118 -81 118 -164c0 -101 -57 -180 -178 -180zM303 397c48 0 71 31 71 77c0 45 -23 76 -71 76h-110v-153h110zM308 117c50 0 77 30 77 82c0 46 -26 82 -77 82h-115v-164h115z" />
    <glyph glyph-name="C" unicode="C" horiz-adv-x="558" 
d="M314 -12c-173 0 -282 143 -282 345s109 345 282 345c128 0 189 -83 223 -160l-111 -49c-20 53 -59 90 -112 90c-90 0 -144 -95 -144 -226s54 -226 144 -226c55 0 94 42 113 97l111 -48c-33 -80 -94 -168 -224 -168z" />
    <glyph glyph-name="D" unicode="D" horiz-adv-x="597" 
d="M274 0h-215v667h215c184 0 290 -138 290 -334s-105 -333 -290 -333zM274 118c99 0 153 88 153 215c0 132 -52 216 -153 216h-81v-431h81z" />
    <glyph glyph-name="E" unicode="E" horiz-adv-x="481" 
d="M441 0h-382v667h382v-118h-248v-151h241v-118h-241v-162h248v-118z" />
    <glyph glyph-name="F" unicode="F" horiz-adv-x="473" 
d="M193 0h-134v667h382v-118h-248v-151h241v-118h-241v-280z" />
    <glyph glyph-name="G" unicode="G" horiz-adv-x="586" 
d="M314 -12c-169 0 -282 138 -282 345c0 208 113 345 282 345c116 0 186 -71 222 -153l-109 -51c-21 47 -58 85 -113 85c-85 0 -144 -83 -144 -226s59 -226 144 -226c44 0 81 18 101 40v101h-125v118h252v-272c-56 -66 -130 -106 -228 -106z" />
    <glyph glyph-name="G.alt1" horiz-adv-x="596" 
d="M306 -12c-161 0 -274 138 -274 345c0 208 113 345 282 345c116 0 186 -71 222 -153l-109 -51c-21 47 -58 85 -113 85c-85 0 -144 -83 -144 -226s59 -226 144 -226c73 0 112 69 122 141h-146v118h284c0 -238 -89 -378 -268 -378z" />
    <glyph glyph-name="H" unicode="H" horiz-adv-x="608" 
d="M549 0h-135v284h-221v-284h-134v667h134v-265h221v265h135v-667z" />
    <glyph glyph-name="I" unicode="I" horiz-adv-x="252" 
d="M193 0h-134v667h134v-667z" />
    <glyph glyph-name="J" unicode="J" horiz-adv-x="417" 
d="M151 -12c-53 0 -104 14 -144 51l48 105c21 -22 50 -37 83 -37c53 0 87 32 87 90v470h134v-474c0 -141 -86 -205 -208 -205z" />
    <glyph glyph-name="K" unicode="K" horiz-adv-x="553" 
d="M552 0h-158l-154 261l-47 -74v-187h-134v667h134v-303l188 303h156l-213 -314z" />
    <glyph glyph-name="L" unicode="L" horiz-adv-x="444" 
d="M417 0h-358v667h134v-549h224v-118z" />
    <glyph glyph-name="M" unicode="M" horiz-adv-x="735" 
d="M677 0h-134v430l-149 -430h-53l-148 430v-430h-134v667h180l129 -372l130 372h179v-667z" />
    <glyph glyph-name="N" unicode="N" horiz-adv-x="606" 
d="M548 0h-128l-227 394v-394h-134v667h136l218 -380v380h135v-667z" />
    <glyph glyph-name="O" unicode="O" horiz-adv-x="622" 
d="M310 -12c-174 0 -278 146 -278 345c0 198 104 345 278 345c175 0 279 -147 279 -345c0 -199 -104 -345 -279 -345zM310 107c92 0 142 99 142 226c0 129 -50 226 -142 226c-91 0 -140 -97 -140 -226c0 -127 49 -226 140 -226z" />
    <glyph glyph-name="P" unicode="P" horiz-adv-x="533" 
d="M193 0h-134v667h246c137 0 206 -99 206 -213s-69 -213 -206 -213h-112v-241zM289 359c51 0 85 37 85 95s-34 95 -85 95h-96v-190h96z" />
    <glyph glyph-name="Q" unicode="Q" horiz-adv-x="622" 
d="M310 -12c-174 0 -278 146 -278 345c0 198 104 345 278 345c175 0 279 -147 279 -345c0 -112 -33 -207 -93 -269l28 -44l-93 -58l-27 42c-28 -10 -60 -16 -94 -16zM310 107c10 0 20 1 29 3l-65 105l94 58l54 -88c20 39 30 91 30 148c0 129 -50 226 -142 226
c-91 0 -140 -97 -140 -226c0 -127 49 -226 140 -226z" />
    <glyph glyph-name="R" unicode="R" horiz-adv-x="551" 
d="M516 0h-149l-102 241h-72v-241h-134v667h249c122 0 203 -88 203 -211c0 -115 -61 -173 -116 -191zM288 359c52 0 86 37 86 95s-34 95 -86 95h-95v-190h95z" />
    <glyph glyph-name="S" unicode="S" horiz-adv-x="498" 
d="M244 -12c-101 0 -175 33 -228 86l66 103c37 -41 95 -71 161 -71c59 0 91 33 91 74c0 117 -298 77 -298 303c0 105 82 195 220 195c81 0 151 -26 202 -74l-64 -100c-40 38 -91 56 -143 56c-48 0 -78 -27 -78 -68c0 -104 297 -76 297 -301c0 -117 -80 -203 -226 -203z" />
    <glyph glyph-name="T" unicode="T" horiz-adv-x="473" 
d="M304 0h-134v549h-148v118h430v-118h-148v-549z" />
    <glyph glyph-name="U" unicode="U" horiz-adv-x="609" 
d="M305 -12c-151 0 -246 88 -246 242v437h135v-438c0 -79 40 -123 111 -123c70 0 110 44 110 123v438h135v-437c0 -154 -95 -242 -245 -242z" />
    <glyph glyph-name="V" unicode="V" horiz-adv-x="554" 
d="M358 0h-162l-198 667h145l134 -509l133 509h146z" />
    <glyph glyph-name="W" unicode="W" horiz-adv-x="767" 
d="M609 0h-140l-86 444l-85 -444h-140l-152 667h144l86 -464l95 464h105l96 -464l85 464h144z" />
    <glyph glyph-name="X" unicode="X" horiz-adv-x="553" 
d="M555 0h-154l-125 237l-124 -237h-154l195 341l-184 326h154l113 -223l113 223h155l-184 -325z" />
    <glyph glyph-name="Y" unicode="Y" horiz-adv-x="538" 
d="M336 0h-134v275l-206 392h148l125 -268l125 268h148l-206 -392v-275z" />
    <glyph glyph-name="Z" unicode="Z" horiz-adv-x="484" 
d="M448 0h-412v110l241 439h-241v118h405v-108l-243 -441h250v-118z" />
    <glyph glyph-name="a" unicode="a" 
d="M425 0h-121v48c-27 -38 -78 -60 -127 -60c-76 0 -149 57 -149 160c0 106 73 157 149 157c50 0 101 -20 127 -57v63c0 52 -32 84 -89 84c-42 0 -83 -17 -119 -52l-45 82c51 49 124 70 186 70c105 0 188 -47 188 -171v-324zM223 69c33 0 65 17 81 46v62
c-16 29 -48 47 -81 47c-45 0 -75 -32 -75 -78s30 -77 75 -77z" />
    <glyph glyph-name="a.alt1" horiz-adv-x="504" 
d="M450 0h-120v61c-30 -48 -76 -73 -122 -73c-108 0 -179 95 -179 253c0 155 70 254 179 254c46 0 92 -23 121 -73v61h121v-483zM246 94c33 0 68 25 84 57v180c-16 32 -51 57 -84 57c-61 0 -93 -62 -93 -147c0 -84 32 -147 93 -147z" />
    <glyph glyph-name="b" unicode="b" horiz-adv-x="504" 
d="M174 151c16 -32 51 -57 84 -57c61 0 93 63 93 147c0 85 -32 148 -93 148c-33 0 -68 -26 -84 -58v-180zM174 0h-120v667h120v-245c29 50 76 73 122 73c109 0 179 -99 179 -254c0 -158 -71 -253 -179 -253c-46 0 -92 25 -122 73v-61z" />
    <glyph glyph-name="c" unicode="c" horiz-adv-x="421" 
d="M250 -12c-133 0 -221 106 -221 254c0 147 88 253 221 253c76 0 126 -31 154 -65l-60 -83c-22 27 -48 42 -81 42c-69 0 -110 -63 -110 -147s41 -148 110 -148c33 0 59 15 81 42l60 -83c-28 -34 -78 -65 -154 -65z" />
    <glyph glyph-name="d" unicode="d" horiz-adv-x="504" 
d="M450 0h-120v61c-30 -48 -76 -73 -122 -73c-108 0 -179 95 -179 253c0 155 70 254 179 254c46 0 92 -23 122 -73v245h120v-667zM246 94c33 0 68 25 84 57v181c-16 32 -51 57 -84 57c-61 0 -93 -63 -93 -148c0 -84 32 -147 93 -147z" />
    <glyph glyph-name="e" unicode="e" 
d="M254 -12c-136 0 -225 102 -225 254c0 140 82 253 216 253c133 0 208 -108 208 -258v-34h-303c5 -66 44 -118 117 -118c34 0 78 17 105 47l55 -72c-43 -47 -108 -72 -173 -72zM337 285c-2 50 -24 113 -94 113c-67 0 -91 -63 -93 -113h187z" />
    <glyph glyph-name="f" unicode="f" horiz-adv-x="288" 
d="M197 0h-121v378h-62v105h62v38c0 98 56 156 146 156c40 0 80 -11 106 -36l-39 -81c-12 12 -24 18 -43 18c-31 0 -49 -21 -49 -57v-38h79v-105h-79v-378z" />
    <glyph glyph-name="f.alt1" horiz-adv-x="288" 
d="M197 0h-121v378h-62v105h62v38c0 99 57 156 141 156c33 0 59 -6 80 -17l-22 -91c-7 6 -17 9 -30 9c-29 0 -48 -20 -48 -57v-38h79v-105h-79v-378z" />
    <glyph glyph-name="g" unicode="g" horiz-adv-x="504" 
d="M227 -196c-71 0 -128 17 -178 62l48 92c33 -36 75 -53 124 -53c55 0 108 29 108 114v59c-30 -48 -75 -74 -122 -74c-107 0 -178 87 -178 245c0 155 70 246 178 246c47 0 93 -23 122 -73v61h120v-458c0 -176 -115 -221 -222 -221zM246 110c33 0 68 25 83 56v166
c-15 32 -50 57 -83 57c-61 0 -93 -56 -93 -140s32 -139 93 -139z" />
    <glyph glyph-name="h" unicode="h" horiz-adv-x="500" 
d="M446 0h-120v320c0 50 -24 69 -64 69c-39 0 -71 -31 -87 -60v-329h-121v667h121v-247c25 38 79 75 141 75c90 0 130 -49 130 -130v-365z" />
    <glyph glyph-name="i" unicode="i" horiz-adv-x="228" 
d="M114 537c-39 0 -72 32 -72 72s33 73 72 73c40 0 72 -33 72 -73s-32 -72 -72 -72zM174 0h-120v483h120v-483z" />
    <glyph glyph-name="j" unicode="j" horiz-adv-x="228" 
d="M114 537c-39 0 -72 32 -72 72s33 73 72 73c40 0 72 -33 72 -73s-32 -72 -72 -72zM22 -196c-44 0 -67 9 -92 29l30 91c12 -12 25 -19 45 -19c29 0 49 20 49 67v511h120v-511c0 -106 -48 -168 -152 -168z" />
    <glyph glyph-name="k" unicode="k" horiz-adv-x="469" 
d="M466 0h-141l-100 189l-51 -71v-118h-120v667h120v-403l147 219h140l-153 -217z" />
    <glyph glyph-name="l" unicode="l" horiz-adv-x="228" 
d="M174 0h-120v667h120v-667z" />
    <glyph glyph-name="l.alt1" horiz-adv-x="265" 
d="M177 -12c-84 0 -123 43 -123 128v551h120v-523c0 -31 12 -50 36 -50c15 0 28 6 35 14l25 -92c-18 -16 -49 -28 -93 -28z" />
    <glyph glyph-name="m" unicode="m" horiz-adv-x="744" 
d="M690 0h-120v325c0 40 -17 64 -55 64s-68 -33 -83 -60v-329h-120v325c0 39 -16 64 -55 64c-37 0 -68 -33 -83 -60v-329h-120v483h120v-63c19 33 76 75 136 75c61 0 104 -29 117 -84c23 42 80 84 141 84c74 0 122 -39 122 -128v-367z" />
    <glyph glyph-name="n" unicode="n" horiz-adv-x="500" 
d="M445 0h-120v318c0 51 -23 71 -63 71s-71 -31 -88 -60v-329h-120v483h120v-63c26 38 80 75 142 75c89 0 129 -51 129 -132v-363z" />
    <glyph glyph-name="o" unicode="o" horiz-adv-x="495" 
d="M247 -12c-142 0 -218 118 -218 254c0 135 76 253 218 253c144 0 219 -118 219 -253c0 -136 -75 -254 -219 -254zM247 94c66 0 95 68 95 148c0 79 -29 147 -95 147c-64 0 -93 -68 -93 -147c0 -80 29 -148 93 -148z" />
    <glyph glyph-name="p" unicode="p" horiz-adv-x="503" 
d="M296 -12c-46 0 -92 23 -122 73v-245h-120v667h120v-61c30 48 75 73 122 73c109 0 179 -95 179 -253c0 -157 -70 -254 -179 -254zM257 94c62 0 94 63 94 148c0 84 -32 147 -94 147c-32 0 -67 -24 -83 -56v-182c16 -31 51 -57 83 -57z" />
    <glyph glyph-name="q" unicode="q" horiz-adv-x="503" 
d="M245 94c33 0 68 26 84 57v182c-16 32 -51 56 -84 56c-61 0 -93 -63 -93 -147c0 -85 32 -148 93 -148zM207 -12c-109 0 -179 97 -179 254c0 158 70 253 179 253c47 0 92 -25 122 -73v61h120v-667h-120v245c-30 -50 -76 -73 -122 -73z" />
    <glyph glyph-name="r" unicode="r" horiz-adv-x="320" 
d="M174 0h-120v483h120v-66c27 43 80 78 132 78v-118c-8 2 -18 3 -29 3c-38 0 -83 -25 -103 -58v-322z" />
    <glyph glyph-name="s" unicode="s" horiz-adv-x="412" 
d="M203 -12c-78 0 -145 26 -186 69l51 84c30 -32 84 -59 133 -59c46 0 71 21 71 51c0 80 -239 38 -239 217c0 78 63 145 176 145c69 0 126 -25 168 -62l-48 -81c-24 27 -69 50 -118 50c-38 0 -64 -20 -64 -46c0 -73 240 -37 240 -218c0 -87 -71 -150 -184 -150z" />
    <glyph glyph-name="t" unicode="t" horiz-adv-x="298" 
d="M198 -12c-84 0 -123 43 -123 128v262h-63v105h63v132h120v-132h80v-105h-80v-234c0 -31 12 -50 35 -50c15 0 30 6 36 14l25 -92c-18 -16 -49 -28 -93 -28z" />
    <glyph glyph-name="u" unicode="u" horiz-adv-x="499" 
d="M445 0h-120v61c-26 -38 -79 -73 -142 -73c-89 0 -129 49 -129 130v365h120v-319c0 -51 24 -70 64 -70c39 0 70 29 87 59v330h120v-483z" />
    <glyph glyph-name="v" unicode="v" horiz-adv-x="447" 
d="M288 0h-129l-161 483h128l97 -339l98 339h128z" />
    <glyph glyph-name="w" unicode="w" horiz-adv-x="688" 
d="M557 0h-127l-86 329l-85 -329h-127l-129 483h124l76 -328l84 328h111l87 -328l76 328h125z" />
    <glyph glyph-name="x" unicode="x" horiz-adv-x="438" 
d="M436 0h-131l-86 161l-87 -161h-130l141 246l-134 237h131l79 -152l78 152h131l-134 -237z" />
    <glyph glyph-name="y" unicode="y" horiz-adv-x="447" 
d="M43 -189l18 106c8 -4 22 -7 31 -7c27 0 44 10 53 35l16 46l-163 492h128l97 -338l98 338h128l-189 -565c-30 -89 -82 -113 -159 -114c-15 0 -45 3 -58 7z" />
    <glyph glyph-name="y.alt1" horiz-adv-x="499" 
d="M227 -196c-72 0 -130 20 -175 62l48 92c32 -37 80 -53 122 -53c65 0 103 41 103 115v60c-26 -38 -79 -73 -142 -73c-89 0 -129 49 -129 130v346h120v-301c0 -50 24 -69 64 -69c39 0 70 29 87 58v312h120v-456c0 -144 -81 -223 -218 -223z" />
    <glyph glyph-name="z" unicode="z" horiz-adv-x="407" 
d="M372 0h-338v90l181 288h-181v105h334v-87l-182 -291h186v-105z" />
    <glyph glyph-name="A.smcp" unicode="&#xf761;" horiz-adv-x="484" 
d="M168 550h148l170 -550h-134l-25 95h-169l-26 -95h-135zM301 203l-59 214l-59 -214h118z" />
    <glyph glyph-name="B.smcp" unicode="&#xf762;" horiz-adv-x="488" 
d="M301 0h-247v550h240c105 0 155 -66 155 -141c0 -66 -37 -109 -87 -125c57 -13 97 -69 97 -135c0 -83 -50 -149 -158 -149zM275 107c37 0 57 22 57 59c0 33 -19 61 -57 61h-96v-120h96zM270 334c36 0 52 23 52 54s-16 55 -52 55h-91v-109h91z" />
    <glyph glyph-name="C.smcp" unicode="&#xf763;" horiz-adv-x="485" 
d="M274 -12c-152 0 -244 121 -244 287c0 167 92 287 244 287c107 0 163 -68 194 -139l-102 -42c-18 43 -50 71 -92 71c-74 0 -117 -75 -117 -177c0 -101 43 -177 117 -177c43 0 76 29 92 73l102 -41c-30 -72 -87 -142 -194 -142z" />
    <glyph glyph-name="D.smcp" unicode="&#xf764;" horiz-adv-x="526" 
d="M246 0h-192v550h191c161 0 251 -114 251 -276c0 -161 -89 -274 -250 -274zM245 108c82 0 124 69 124 166c0 102 -40 168 -124 168h-66v-334h66z" />
    <glyph glyph-name="E.smcp" unicode="&#xf765;" horiz-adv-x="428" 
d="M391 0h-337v550h337v-107h-212v-110h206v-107h-206v-119h212v-107z" />
    <glyph glyph-name="F.smcp" unicode="&#xf766;" horiz-adv-x="421" 
d="M179 0h-125v550h337v-107h-212v-110h206v-107h-206v-226z" />
    <glyph glyph-name="G.smcp" unicode="&#xf767;" horiz-adv-x="511" 
d="M275 -12c-150 0 -245 117 -245 287c0 172 95 287 245 287c95 0 157 -58 189 -128l-100 -47c-18 37 -46 65 -89 65c-71 0 -117 -66 -117 -177c0 -110 46 -178 118 -178c35 0 62 15 78 31v76h-94v101h212v-228c-51 -56 -114 -89 -197 -89z" />
    <glyph glyph-name="G.smcp.alt1" horiz-adv-x="519" 
d="M269 -12c-144 0 -239 117 -239 287c0 172 95 287 245 287c95 0 157 -58 189 -128l-100 -47c-18 37 -46 65 -89 65c-71 0 -117 -66 -117 -177c0 -110 45 -178 117 -178c53 0 89 51 97 107h-112v101h238c0 -192 -78 -317 -229 -317z" />
    <glyph glyph-name="H.smcp" unicode="&#xf768;" horiz-adv-x="542" 
d="M488 0h-125v227h-184v-227h-125v550h125v-214h184v214h125v-550z" />
    <glyph glyph-name="I.smcp" unicode="&#xf769;" horiz-adv-x="233" 
d="M179 0h-125v550h125v-550z" />
    <glyph glyph-name="J.smcp" unicode="&#xf76a;" horiz-adv-x="371" 
d="M130 -12c-47 0 -91 14 -125 46l41 97c18 -20 44 -33 72 -33c45 0 73 26 73 73v379h125v-392c0 -118 -75 -170 -186 -170z" />
    <glyph glyph-name="K.smcp" unicode="&#xf76b;" horiz-adv-x="491" 
d="M489 0h-146l-130 207l-34 -52v-155h-125v550h125v-233l153 233h145l-186 -259z" />
    <glyph glyph-name="L.smcp" unicode="&#xf76c;" horiz-adv-x="396" 
d="M371 0h-317v550h125v-442h192v-108z" />
    <glyph glyph-name="M.smcp" unicode="&#xf76d;" horiz-adv-x="648" 
d="M594 0h-124v332l-119 -332h-53l-119 332v-332h-125v550h161l109 -305l111 305h159v-550z" />
    <glyph glyph-name="N.smcp" unicode="&#xf76e;" horiz-adv-x="537" 
d="M483 0h-123l-181 315v-315h-125v550h131l174 -302v302h124v-550z" />
    <glyph glyph-name="O.smcp" unicode="&#xf76f;" horiz-adv-x="544" 
d="M271 -12c-153 0 -241 123 -241 287s88 287 241 287s242 -123 242 -287s-89 -287 -242 -287zM271 98c75 0 115 78 115 177c0 100 -40 177 -115 177s-114 -77 -114 -177c0 -99 39 -177 114 -177z" />
    <glyph glyph-name="P.smcp" unicode="&#xf770;" horiz-adv-x="470" 
d="M179 0h-125v550h220c117 0 177 -83 177 -179c0 -97 -58 -179 -177 -179h-95v-192zM259 301c43 0 65 30 65 70c0 41 -22 71 -65 71h-80v-141h80z" />
    <glyph glyph-name="Q.smcp" unicode="&#xf771;" horiz-adv-x="544" 
d="M271 -12c-153 0 -241 123 -241 287s88 287 241 287s242 -123 242 -287c0 -94 -29 -174 -83 -226l23 -36l-80 -47l-22 35c-24 -8 -51 -13 -80 -13zM271 98c6 0 13 1 19 2l-48 77l79 48l41 -66c16 31 24 71 24 116c0 100 -40 177 -115 177s-114 -77 -114 -177
c0 -99 39 -177 114 -177z" />
    <glyph glyph-name="R.smcp" unicode="&#xf772;" horiz-adv-x="488" 
d="M457 0h-138l-83 192h-57v-192h-125v550h220c114 0 177 -79 177 -178c0 -94 -50 -145 -99 -160zM259 301c43 0 66 29 66 70s-24 71 -66 71h-80v-141h80z" />
    <glyph glyph-name="S.smcp" unicode="&#xf773;" horiz-adv-x="435" 
d="M213 -12c-85 0 -150 27 -197 70l54 96c32 -35 86 -61 140 -61c49 0 76 24 76 59c0 90 -251 62 -251 249c0 88 73 161 191 161c74 0 133 -22 179 -63l-53 -90c-33 31 -80 47 -123 47c-39 0 -66 -21 -66 -53c0 -81 251 -57 251 -247c0 -100 -74 -168 -201 -168z" />
    <glyph glyph-name="T.smcp" unicode="&#xf774;" horiz-adv-x="398" 
d="M262 0h-125v442h-119v108h363v-108h-119v-442z" />
    <glyph glyph-name="U.smcp" unicode="&#xf775;" horiz-adv-x="539" 
d="M270 -12c-138 0 -216 79 -216 219v343h126v-351c0 -64 31 -101 90 -101c58 0 90 38 90 101v351h125v-342c0 -142 -78 -220 -215 -220z" />
    <glyph glyph-name="V.smcp" unicode="&#xf776;" horiz-adv-x="484" 
d="M316 0h-148l-171 550h136l109 -397l110 397h134z" />
    <glyph glyph-name="W.smcp" unicode="&#xf777;" horiz-adv-x="669" 
d="M533 0h-128l-71 339l-71 -339h-128l-133 550h133l71 -355l80 355h98l79 -357l71 357h133z" />
    <glyph glyph-name="X.smcp" unicode="&#xf778;" horiz-adv-x="485" 
d="M488 0h-142l-103 189l-104 -189h-142l166 281l-156 269h141l95 -177l93 177h142l-156 -268z" />
    <glyph glyph-name="Y.smcp" unicode="&#xf779;" horiz-adv-x="472" 
d="M299 0h-124v227l-179 323h136l105 -209l103 209h137l-178 -323v-227z" />
    <glyph glyph-name="Z.smcp" unicode="&#xf77a;" horiz-adv-x="423" 
d="M393 0h-363v93l199 348h-199v109h357v-91l-199 -350h205v-109z" />
    <glyph glyph-name="Aacute" unicode="&#xc1;" horiz-adv-x="554" 
d="M556 0h-146l-31 118h-205l-31 -118h-145l198 667h162zM353 236l-76 290l-76 -290h152zM437 867l-134 -144h-80l107 144h107z" />
    <glyph glyph-name="Abreve" unicode="&#x102;" horiz-adv-x="554" 
d="M556 0h-146l-31 118h-205l-31 -118h-145l198 667h162zM353 236l-76 290l-76 -290h152zM427 780c-35 -46 -88 -75 -150 -75c-60 0 -115 29 -150 75l55 44c21 -30 55 -50 95 -50c39 0 74 19 95 50z" />
    <glyph glyph-name="Acircumflex" unicode="&#xc2;" horiz-adv-x="554" 
d="M410 723h-70l-64 91l-61 -91h-70l77 144h108zM556 0h-146l-31 118h-205l-31 -118h-145l198 667h162zM353 236l-76 290l-76 -290h152z" />
    <glyph glyph-name="Adieresis" unicode="&#xc4;" horiz-adv-x="554" 
d="M436 777c0 -36 -30 -65 -66 -65c-35 0 -64 29 -64 65s29 64 64 64c36 0 66 -28 66 -64zM248 777c0 -36 -28 -65 -64 -65s-65 29 -65 65s29 64 65 64s64 -28 64 -64zM556 0h-146l-31 118h-205l-31 -118h-145l198 667h162zM353 236l-76 290l-76 -290h152z" />
    <glyph glyph-name="Agrave" unicode="&#xc0;" horiz-adv-x="554" 
d="M556 0h-146l-31 118h-205l-31 -118h-145l198 667h162zM353 236l-76 290l-76 -290h152zM331 723h-80l-134 144h107z" />
    <glyph glyph-name="Amacron" unicode="&#x100;" horiz-adv-x="554" 
d="M556 0h-146l-31 118h-205l-31 -118h-145l198 667h162zM353 236l-76 290l-76 -290h152zM432 730h-311v69h311v-69z" />
    <glyph glyph-name="Aogonek" unicode="&#x104;" horiz-adv-x="554" 
d="M557 -103l49 -28c-15 -32 -42 -55 -85 -55c-50 0 -90 26 -90 86c0 37 15 71 45 100h-66l-31 118h-205l-31 -118h-145l198 667h162l198 -667h-1c-42 -25 -64 -58 -64 -95c0 -29 14 -40 31 -40c18 0 29 13 35 32zM353 236l-76 290l-76 -290h152z" />
    <glyph glyph-name="Aring" unicode="&#xc5;" horiz-adv-x="554" 
d="M556 0h-146l-31 118h-205l-31 -118h-145l198 667h162zM353 236l-76 290l-76 -290h152zM278 690c-53 0 -97 43 -97 97c0 53 44 97 97 97s96 -44 96 -97c0 -54 -43 -97 -96 -97zM278 744c24 0 42 19 42 43c0 23 -18 43 -42 43c-23 0 -43 -20 -43 -43c0 -24 20 -43 43 -43z
" />
    <glyph glyph-name="Atilde" unicode="&#xc3;" horiz-adv-x="554" 
d="M556 0h-146l-31 118h-205l-31 -118h-145l198 667h162zM353 236l-76 290l-76 -290h152zM327 721c-60 0 -70 71 -102 71c-17 0 -31 -20 -31 -65h-62c0 81 34 134 96 134c60 0 70 -71 103 -71c17 0 30 20 30 65h62c0 -81 -33 -134 -96 -134z" />
    <glyph glyph-name="uni1EA0" unicode="&#x1ea0;" horiz-adv-x="554" 
d="M556 0h-146l-31 118h-205l-31 -118h-145l198 667h162zM353 236l-76 290l-76 -290h152zM278 -194c-35 0 -65 28 -65 64s30 65 65 65s64 -29 64 -65s-29 -64 -64 -64z" />
    <glyph glyph-name="uni1EA2" unicode="&#x1ea2;" horiz-adv-x="554" 
d="M556 0h-146l-31 118h-205l-31 -118h-145l198 667h162zM353 236l-76 290l-76 -290h152zM249 754l-44 11c10 34 36 55 73 55c38 0 70 -21 70 -69c0 -22 -6 -38 -16 -54h-50c14 17 19 34 19 51c0 22 -11 31 -24 31c-14 0 -23 -10 -28 -25z" />
    <glyph glyph-name="uni1EA4" unicode="&#x1ea4;" horiz-adv-x="554" 
d="M410 682h-70l-64 68l-61 -68h-70l77 108h108zM556 0h-146l-31 118h-205l-31 -118h-145l198 667h162zM353 236l-76 290l-76 -290h152zM596 843l-134 -108h-80l107 108h107z" />
    <glyph glyph-name="uni1EAC" unicode="&#x1eac;" horiz-adv-x="554" 
d="M556 0h-146l-31 118h-205l-31 -118h-145l198 667h162zM353 236l-76 290l-76 -290h152zM410 723h-70l-64 91l-61 -91h-70l77 144h108zM278 -194c-35 0 -65 28 -65 64s30 65 65 65s64 -29 64 -65s-29 -64 -64 -64z" />
    <glyph glyph-name="uni1EA6" unicode="&#x1ea6;" horiz-adv-x="554" 
d="M410 682h-70l-64 68l-61 -68h-70l77 108h108zM556 0h-146l-31 118h-205l-31 -118h-145l198 667h162zM353 236l-76 290l-76 -290h152zM174 735h-80l-134 108h107z" />
    <glyph glyph-name="uni1EA8" unicode="&#x1ea8;" horiz-adv-x="554" 
d="M410 682h-70l-64 68l-61 -68h-70l77 108h108zM556 0h-146l-31 118h-205l-31 -118h-145l198 667h162zM353 236l-76 290l-76 -290h152zM394 787l-44 8c10 26 36 41 73 41c38 0 70 -15 70 -51c0 -17 -6 -29 -16 -41h-50c14 13 19 26 19 38c0 17 -11 24 -24 24
c-14 0 -23 -8 -28 -19z" />
    <glyph glyph-name="uni1EAE" unicode="&#x1eae;" horiz-adv-x="554" 
d="M556 0h-146l-31 118h-205l-31 -118h-145l198 667h162zM353 236l-76 290l-76 -290h152zM437 833l-134 -87h-80l107 87h107zM427 736c-35 -32 -88 -53 -150 -53c-60 0 -115 21 -150 53l55 30c21 -20 55 -34 95 -34c39 0 74 13 95 34z" />
    <glyph glyph-name="uni1EAA" unicode="&#x1eaa;" horiz-adv-x="554" 
d="M410 678h-70l-64 45l-61 -45h-70l77 72h108zM556 0h-146l-31 118h-205l-31 -118h-145l198 667h162zM353 236l-76 290l-76 -290h152zM326 757c-60 0 -70 35 -102 35c-17 0 -31 -10 -31 -32h-62c0 40 34 67 96 67c60 0 70 -36 103 -36c17 0 30 10 30 33h62
c0 -41 -33 -67 -96 -67z" />
    <glyph glyph-name="uni1EB0" unicode="&#x1eb0;" horiz-adv-x="554" 
d="M556 0h-146l-31 118h-205l-31 -118h-145l198 667h162zM353 236l-76 290l-76 -290h152zM332 746h-80l-134 87h107zM427 733c-35 -32 -88 -53 -150 -53c-60 0 -115 21 -150 53l55 30c21 -20 55 -34 95 -34c39 0 74 13 95 34z" />
    <glyph glyph-name="uni1EB2" unicode="&#x1eb2;" horiz-adv-x="554" 
d="M556 0h-146l-31 118h-205l-31 -118h-145l198 667h162zM353 236l-76 290l-76 -290h152zM249 782l-44 7c10 20 36 33 73 33c38 0 70 -13 70 -42c0 -13 -6 -22 -16 -32h-50c14 10 19 20 19 31c0 13 -11 18 -24 18c-14 0 -23 -6 -28 -15zM427 734c-35 -32 -88 -53 -150 -53
c-60 0 -115 21 -150 53l55 30c21 -20 55 -34 95 -34c39 0 74 13 95 34z" />
    <glyph glyph-name="uni1EB4" unicode="&#x1eb4;" horiz-adv-x="554" 
d="M556 0h-146l-31 118h-205l-31 -118h-145l198 667h162zM353 236l-76 290l-76 -290h152zM427 724c-35 -27 -88 -44 -150 -44c-60 0 -115 17 -150 44l55 26c21 -18 55 -30 95 -30c39 0 74 12 95 30zM326 757c-60 0 -70 35 -102 35c-17 0 -31 -10 -31 -32h-62
c0 40 34 67 96 67c60 0 70 -36 103 -36c17 0 30 10 30 33h62c0 -41 -33 -67 -96 -67z" />
    <glyph glyph-name="uni1EB6" unicode="&#x1eb6;" horiz-adv-x="554" 
d="M556 0h-146l-31 118h-205l-31 -118h-145l198 667h162zM353 236l-76 290l-76 -290h152zM278 -194c-35 0 -65 28 -65 64s30 65 65 65s64 -29 64 -65s-29 -64 -64 -64zM427 780c-35 -46 -88 -75 -150 -75c-60 0 -115 29 -150 75l55 44c21 -30 55 -50 95 -50
c39 0 74 19 95 50z" />
    <glyph glyph-name="AE" unicode="&#xc6;" horiz-adv-x="787" 
d="M751 0h-382v118h-174l-52 -118h-145l315 667h438v-118h-247v-151h240v-118h-240v-162h247v-118zM369 236v290l-126 -290h126z" />
    <glyph glyph-name="AEacute" unicode="&#x1fc;" horiz-adv-x="787" 
d="M598 867l-134 -144h-80l107 144h107zM751 0h-382v118h-174l-52 -118h-145l315 667h438v-118h-247v-151h240v-118h-240v-162h247v-118zM369 236v290l-126 -290h126z" />
    <glyph glyph-name="uni1E02" unicode="&#x1e02;" horiz-adv-x="558" 
d="M344 0h-285v667h276c119 0 176 -79 176 -170c0 -84 -46 -138 -107 -153c68 -11 118 -81 118 -164c0 -101 -57 -180 -178 -180zM303 397c48 0 71 31 71 77c0 45 -23 76 -71 76h-110v-153h110zM308 117c50 0 77 30 77 82c0 46 -26 82 -77 82h-115v-164h115zM279 712
c-35 0 -65 28 -65 64s30 65 65 65s64 -29 64 -65s-29 -64 -64 -64z" />
    <glyph glyph-name="Cacute" unicode="&#x106;" horiz-adv-x="558" 
d="M474 867l-134 -144h-80l107 144h107zM314 -12c-173 0 -282 143 -282 345s109 345 282 345c128 0 189 -83 223 -160l-111 -49c-20 53 -59 90 -112 90c-90 0 -144 -95 -144 -226s54 -226 144 -226c55 0 94 42 113 97l111 -48c-33 -80 -94 -168 -224 -168z" />
    <glyph glyph-name="Ccedilla" unicode="&#xc7;" horiz-adv-x="558" 
d="M309 -191c-41 0 -77 15 -98 32l23 48c23 -18 48 -28 72 -28c25 0 46 12 46 34c0 16 -9 26 -26 26c-12 0 -22 -5 -29 -13l-44 25l22 58c-151 19 -243 155 -243 342c0 202 109 345 282 345c128 0 189 -83 223 -160l-111 -49c-20 53 -59 90 -112 90
c-90 0 -144 -95 -144 -226s54 -226 144 -226c55 0 94 42 113 97l111 -48c-32 -76 -88 -159 -205 -167l-15 -37c9 7 19 10 32 10c35 0 63 -28 63 -69c0 -52 -46 -84 -104 -84z" />
    <glyph glyph-name="Ccircumflex" unicode="&#x108;" horiz-adv-x="558" 
d="M447 723h-70l-64 91l-61 -91h-70l77 144h108zM314 -12c-173 0 -282 143 -282 345s109 345 282 345c128 0 189 -83 223 -160l-111 -49c-20 53 -59 90 -112 90c-90 0 -144 -95 -144 -226s54 -226 144 -226c55 0 94 42 113 97l111 -48c-33 -80 -94 -168 -224 -168z" />
    <glyph glyph-name="Cdotaccent" unicode="&#x10a;" horiz-adv-x="558" 
d="M314 -12c-173 0 -282 143 -282 345s109 345 282 345c128 0 189 -83 223 -160l-111 -49c-20 53 -59 90 -112 90c-90 0 -144 -95 -144 -226s54 -226 144 -226c55 0 94 42 113 97l111 -48c-33 -80 -94 -168 -224 -168zM315 712c-35 0 -65 28 -65 64s30 65 65 65
s64 -29 64 -65s-29 -64 -64 -64z" />
    <glyph glyph-name="Ccaron" unicode="&#x10c;" horiz-adv-x="558" 
d="M370 723h-108l-80 144h70l64 -91l61 91h70zM314 -12c-173 0 -282 143 -282 345s109 345 282 345c128 0 189 -83 223 -160l-111 -49c-20 53 -59 90 -112 90c-90 0 -144 -95 -144 -226s54 -226 144 -226c55 0 94 42 113 97l111 -48c-33 -80 -94 -168 -224 -168z" />
    <glyph glyph-name="Dcaron" unicode="&#x10e;" horiz-adv-x="597" 
d="M354 723h-108l-80 144h70l64 -91l61 91h70zM274 0h-215v667h215c184 0 290 -138 290 -334s-105 -333 -290 -333zM274 118c99 0 153 88 153 215c0 132 -52 216 -153 216h-81v-431h81z" />
    <glyph glyph-name="Dcroat" unicode="&#x110;" horiz-adv-x="620" 
d="M298 0h-215v280h-71v99h71v288h215c184 0 290 -138 290 -334s-105 -333 -290 -333zM298 118c99 0 153 88 153 215c0 132 -52 216 -153 216h-81v-170h107v-99h-107v-162h81z" />
    <glyph glyph-name="uni1E0A" unicode="&#x1e0a;" horiz-adv-x="597" 
d="M274 0h-215v667h215c184 0 290 -138 290 -334s-105 -333 -290 -333zM274 118c99 0 153 88 153 215c0 132 -52 216 -153 216h-81v-431h81zM298 712c-35 0 -65 28 -65 64s30 65 65 65s64 -29 64 -65s-29 -64 -64 -64z" />
    <glyph glyph-name="Eacute" unicode="&#xc9;" horiz-adv-x="481" 
d="M410 867l-134 -144h-80l107 144h107zM441 0h-382v667h382v-118h-248v-151h241v-118h-241v-162h248v-118z" />
    <glyph glyph-name="Ebreve" unicode="&#x114;" horiz-adv-x="481" 
d="M441 0h-382v667h382v-118h-248v-151h241v-118h-241v-162h248v-118zM400 780c-35 -46 -88 -75 -150 -75c-60 0 -115 29 -150 75l55 44c21 -30 55 -50 95 -50c39 0 74 19 95 50z" />
    <glyph glyph-name="Ecircumflex" unicode="&#xca;" horiz-adv-x="481" 
d="M383 723h-70l-64 91l-61 -91h-70l77 144h108zM441 0h-382v667h382v-118h-248v-151h241v-118h-241v-162h248v-118z" />
    <glyph glyph-name="Edieresis" unicode="&#xcb;" horiz-adv-x="481" 
d="M410 777c0 -36 -30 -65 -66 -65c-35 0 -64 29 -64 65s29 64 64 64c36 0 66 -28 66 -64zM222 777c0 -36 -28 -65 -64 -65s-65 29 -65 65s29 64 65 64s64 -28 64 -64zM441 0h-382v667h382v-118h-248v-151h241v-118h-241v-162h248v-118z" />
    <glyph glyph-name="Edotaccent" unicode="&#x116;" horiz-adv-x="481" 
d="M441 0h-382v667h382v-118h-248v-151h241v-118h-241v-162h248v-118zM253 712c-35 0 -65 28 -65 64s30 65 65 65s64 -29 64 -65s-29 -64 -64 -64z" />
    <glyph glyph-name="Egrave" unicode="&#xc8;" horiz-adv-x="481" 
d="M441 0h-382v667h382v-118h-248v-151h241v-118h-241v-162h248v-118zM303 723h-80l-134 144h107z" />
    <glyph glyph-name="Emacron" unicode="&#x112;" horiz-adv-x="481" 
d="M441 0h-382v667h382v-118h-248v-151h241v-118h-241v-162h248v-118zM405 730h-311v69h311v-69z" />
    <glyph glyph-name="Eogonek" unicode="&#x118;" horiz-adv-x="481" 
d="M441 0c-42 -25 -64 -58 -64 -95c0 -29 14 -40 31 -40c18 0 29 13 35 32l49 -28c-15 -32 -42 -55 -85 -55c-50 0 -90 26 -90 86c0 37 15 71 45 100h-303v667h382v-118h-248v-151h241v-118h-241v-162h248v-118z" />
    <glyph glyph-name="Ecaron" unicode="&#x11a;" horiz-adv-x="481" 
d="M305 723h-108l-80 144h70l64 -91l61 91h70zM441 0h-382v667h382v-118h-248v-151h241v-118h-241v-162h248v-118z" />
    <glyph glyph-name="uni1EB8" unicode="&#x1eb8;" horiz-adv-x="481" 
d="M441 0h-382v667h382v-118h-248v-151h241v-118h-241v-162h248v-118zM253 -194c-35 0 -65 28 -65 64s30 65 65 65s64 -29 64 -65s-29 -64 -64 -64z" />
    <glyph glyph-name="uni1EBA" unicode="&#x1eba;" horiz-adv-x="481" 
d="M441 0h-382v667h382v-118h-248v-151h241v-118h-241v-162h248v-118zM216 754l-44 11c10 34 36 55 73 55c38 0 70 -21 70 -69c0 -22 -6 -38 -16 -54h-50c14 17 19 34 19 51c0 22 -11 31 -24 31c-14 0 -23 -10 -28 -25z" />
    <glyph glyph-name="uni1EBC" unicode="&#x1ebc;" horiz-adv-x="481" 
d="M441 0h-382v667h382v-118h-248v-151h241v-118h-241v-162h248v-118zM302 721c-60 0 -70 71 -102 71c-17 0 -31 -20 -31 -65h-62c0 81 34 134 96 134c60 0 70 -71 103 -71c17 0 30 20 30 65h62c0 -81 -33 -134 -96 -134z" />
    <glyph glyph-name="uni1EBE" unicode="&#x1ebe;" horiz-adv-x="481" 
d="M386 682h-70l-64 68l-61 -68h-70l77 108h108zM571 843l-134 -108h-80l107 108h107zM441 0h-382v667h382v-118h-248v-151h241v-118h-241v-162h248v-118z" />
    <glyph glyph-name="uni1EC0" unicode="&#x1ec0;" horiz-adv-x="481" 
d="M386 682h-70l-64 68l-61 -68h-70l77 108h108zM441 0h-382v667h382v-118h-248v-151h241v-118h-241v-162h248v-118zM150 735h-80l-134 108h107z" />
    <glyph glyph-name="uni1EC2" unicode="&#x1ec2;" horiz-adv-x="481" 
d="M385 682h-70l-64 68l-61 -68h-70l77 108h108zM441 0h-382v667h382v-118h-248v-151h241v-118h-241v-162h248v-118zM368 787l-44 8c10 26 36 41 73 41c38 0 70 -15 70 -51c0 -17 -6 -29 -16 -41h-50c14 13 19 26 19 38c0 17 -11 24 -24 24c-14 0 -23 -8 -28 -19z" />
    <glyph glyph-name="uni1EC4" unicode="&#x1ec4;" horiz-adv-x="481" 
d="M385 678h-70l-64 45l-61 -45h-70l77 72h108zM441 0h-382v667h382v-118h-248v-151h241v-118h-241v-162h248v-118zM300 757c-60 0 -70 35 -102 35c-17 0 -31 -10 -31 -32h-62c0 40 34 67 96 67c60 0 70 -36 103 -36c17 0 30 10 30 33h62c0 -41 -33 -67 -96 -67z" />
    <glyph glyph-name="uni1EC6" unicode="&#x1ec6;" horiz-adv-x="481" 
d="M383 723h-70l-64 91l-61 -91h-70l77 144h108zM441 0h-382v667h382v-118h-248v-151h241v-118h-241v-162h248v-118zM253 -194c-35 0 -65 28 -65 64s30 65 65 65s64 -29 64 -65s-29 -64 -64 -64z" />
    <glyph glyph-name="uni1E1E" unicode="&#x1e1e;" horiz-adv-x="473" 
d="M252 712c-35 0 -65 28 -65 64s30 65 65 65s64 -29 64 -65s-29 -64 -64 -64zM193 0h-134v667h382v-118h-248v-151h241v-118h-241v-280z" />
    <glyph glyph-name="Gcircumflex" unicode="&#x11c;" horiz-adv-x="586" 
d="M448 723h-70l-64 91l-61 -91h-70l77 144h108zM314 -12c-169 0 -282 138 -282 345c0 208 113 345 282 345c116 0 186 -71 222 -153l-109 -51c-21 47 -58 85 -113 85c-85 0 -144 -83 -144 -226s59 -226 144 -226c44 0 81 18 101 40v101h-125v118h252v-272
c-56 -66 -130 -106 -228 -106z" />
    <glyph glyph-name="Gbreve" unicode="&#x11e;" horiz-adv-x="586" 
d="M314 -12c-169 0 -282 138 -282 345c0 208 113 345 282 345c116 0 186 -71 222 -153l-109 -51c-21 47 -58 85 -113 85c-85 0 -144 -83 -144 -226s59 -226 144 -226c44 0 81 18 101 40v101h-125v118h252v-272c-56 -66 -130 -106 -228 -106zM466 780
c-35 -46 -88 -75 -150 -75c-60 0 -115 29 -150 75l55 44c21 -30 55 -50 95 -50c39 0 74 19 95 50z" />
    <glyph glyph-name="Gdotaccent" unicode="&#x120;" horiz-adv-x="586" 
d="M314 -12c-169 0 -282 138 -282 345c0 208 113 345 282 345c116 0 186 -71 222 -153l-109 -51c-21 47 -58 85 -113 85c-85 0 -144 -83 -144 -226s59 -226 144 -226c44 0 81 18 101 40v101h-125v118h252v-272c-56 -66 -130 -106 -228 -106zM316 712c-35 0 -65 28 -65 64
s30 65 65 65s64 -29 64 -65s-29 -64 -64 -64z" />
    <glyph glyph-name="Gcommaaccent" unicode="&#x122;" horiz-adv-x="586" 
d="M378 -138c0 -60 -33 -114 -81 -148l-42 34c27 16 57 51 62 80c-2 -1 -9 -2 -14 -2c-29 0 -52 22 -52 55s27 60 60 60c35 0 67 -29 67 -79zM314 -12c-169 0 -282 138 -282 345c0 208 113 345 282 345c116 0 186 -71 222 -153l-109 -51c-21 47 -58 85 -113 85
c-85 0 -144 -83 -144 -226s59 -226 144 -226c44 0 81 18 101 40v101h-125v118h252v-272c-56 -66 -130 -106 -228 -106z" />
    <glyph glyph-name="Gbreve.alt1" horiz-adv-x="593" 
d="M465 780c-35 -46 -88 -75 -150 -75c-60 0 -115 29 -150 75l55 44c21 -30 55 -50 95 -50c39 0 74 19 95 50zM306 -12c-161 0 -274 138 -274 345c0 208 113 345 282 345c116 0 186 -71 222 -153l-109 -51c-21 47 -58 85 -113 85c-85 0 -144 -83 -144 -226s59 -226 144 -226
c73 0 112 69 122 141h-146v118h284c0 -238 -89 -378 -268 -378z" />
    <glyph glyph-name="Gcommaaccent.alt1" horiz-adv-x="593" 
d="M383 -138c0 -60 -33 -114 -81 -148l-42 34c27 16 57 51 62 80c-2 -1 -9 -2 -14 -2c-29 0 -52 22 -52 55s27 60 60 60c35 0 67 -29 67 -79zM306 -12c-161 0 -274 138 -274 345c0 208 113 345 282 345c116 0 186 -71 222 -153l-109 -51c-21 47 -58 85 -113 85
c-85 0 -144 -83 -144 -226s59 -226 144 -226c73 0 112 69 122 141h-146v118h284c0 -238 -89 -378 -268 -378z" />
    <glyph glyph-name="Gcircumflex.alt1" horiz-adv-x="593" 
d="M446 723h-70l-64 91l-61 -91h-70l77 144h108zM306 -12c-161 0 -274 138 -274 345c0 208 113 345 282 345c116 0 186 -71 222 -153l-109 -51c-21 47 -58 85 -113 85c-85 0 -144 -83 -144 -226s59 -226 144 -226c73 0 112 69 122 141h-146v118h284
c0 -238 -89 -378 -268 -378z" />
    <glyph glyph-name="Gdotaccent.alt1" horiz-adv-x="593" 
d="M313 712c-35 0 -65 28 -65 64s30 65 65 65s64 -29 64 -65s-29 -64 -64 -64zM306 -12c-161 0 -274 138 -274 345c0 208 113 345 282 345c116 0 186 -71 222 -153l-109 -51c-21 47 -58 85 -113 85c-85 0 -144 -83 -144 -226s59 -226 144 -226c73 0 112 69 122 141h-146v118
h284c0 -238 -89 -378 -268 -378z" />
    <glyph glyph-name="Hbar" unicode="&#x126;" horiz-adv-x="631" 
d="M561 0h-135v284h-221v-284h-134v499h-59v69h59v99h134v-99h221v99h135v-99h53v-69h-53v-499zM205 402h221v97h-221v-97z" />
    <glyph glyph-name="Hcircumflex" unicode="&#x124;" horiz-adv-x="608" 
d="M436 723h-70l-64 91l-61 -91h-70l77 144h108zM549 0h-135v284h-221v-284h-134v667h134v-265h221v265h135v-667z" />
    <glyph glyph-name="uni1E22" unicode="&#x1e22;" horiz-adv-x="608" 
d="M549 0h-135v284h-221v-284h-134v667h134v-265h221v265h135v-667zM303 712c-35 0 -65 28 -65 64s30 65 65 65s64 -29 64 -65s-29 -64 -64 -64z" />
    <glyph glyph-name="Iacute" unicode="&#xcd;" horiz-adv-x="252" 
d="M193 0h-134v667h134v-667zM287 867l-134 -144h-80l107 144h107z" />
    <glyph glyph-name="Ibreve" unicode="&#x12c;" horiz-adv-x="252" 
d="M193 0h-134v667h134v-667zM278 780c-35 -46 -88 -75 -150 -75c-60 0 -115 29 -150 75l55 44c21 -30 55 -50 95 -50c39 0 74 19 95 50z" />
    <glyph glyph-name="Icircumflex" unicode="&#xce;" horiz-adv-x="252" 
d="M259 723h-70l-64 91l-61 -91h-70l77 144h108zM193 0h-134v667h134v-667z" />
    <glyph glyph-name="Idieresis" unicode="&#xcf;" horiz-adv-x="252" 
d="M286 777c0 -36 -30 -65 -66 -65c-35 0 -64 29 -64 65s29 64 64 64c36 0 66 -28 66 -64zM98 777c0 -36 -28 -65 -64 -65s-65 29 -65 65s29 64 65 64s64 -28 64 -64zM193 0h-134v667h134v-667z" />
    <glyph glyph-name="Idotaccent" unicode="&#x130;" horiz-adv-x="252" 
d="M193 0h-134v667h134v-667zM127 712c-35 0 -65 28 -65 64s30 65 65 65s64 -29 64 -65s-29 -64 -64 -64z" />
    <glyph glyph-name="Igrave" unicode="&#xcc;" horiz-adv-x="252" 
d="M193 0h-134v667h134v-667zM180 723h-80l-134 144h107z" />
    <glyph glyph-name="Imacron" unicode="&#x12a;" horiz-adv-x="252" 
d="M193 0h-134v667h134v-667zM282 730h-311v69h311v-69z" />
    <glyph glyph-name="Iogonek" unicode="&#x12e;" horiz-adv-x="252" 
d="M195 -103l49 -28c-15 -32 -42 -55 -85 -55c-50 0 -90 26 -90 86c0 37 15 71 45 100h-55v667h134v-667c-42 -25 -64 -58 -64 -95c0 -29 14 -40 31 -40c18 0 29 13 35 32z" />
    <glyph glyph-name="Itilde" unicode="&#x128;" horiz-adv-x="252" 
d="M193 0h-134v667h134v-667zM177 721c-60 0 -70 71 -102 71c-17 0 -31 -20 -31 -65h-62c0 81 34 134 96 134c60 0 70 -71 103 -71c17 0 30 20 30 65h62c0 -81 -33 -134 -96 -134z" />
    <glyph glyph-name="uni1EC8" unicode="&#x1ec8;" horiz-adv-x="252" 
d="M193 0h-134v667h134v-667zM99 754l-44 11c10 34 36 55 73 55c38 0 70 -21 70 -69c0 -22 -6 -38 -16 -54h-50c14 17 19 34 19 51c0 22 -11 31 -24 31c-14 0 -23 -10 -28 -25z" />
    <glyph glyph-name="uni1ECA" unicode="&#x1eca;" horiz-adv-x="252" 
d="M193 0h-134v667h134v-667zM128 -194c-35 0 -65 28 -65 64s30 65 65 65s64 -29 64 -65s-29 -64 -64 -64z" />
    <glyph glyph-name="IJ" unicode="&#x132;" horiz-adv-x="669" 
d="M193 0h-134v667h134v-667zM403 -12c-53 0 -104 14 -144 51l48 105c21 -22 50 -37 83 -37c53 0 87 32 87 90v470h134v-474c0 -141 -86 -205 -208 -205z" />
    <glyph glyph-name="Jcircumflex" unicode="&#x134;" horiz-adv-x="417" 
d="M425 723h-70l-64 91l-61 -91h-70l77 144h108zM151 -12c-53 0 -104 14 -144 51l48 105c21 -22 50 -37 83 -37c53 0 87 32 87 90v470h134v-474c0 -141 -86 -205 -208 -205z" />
    <glyph glyph-name="Kcommaaccent" unicode="&#x136;" horiz-adv-x="559" 
d="M349 -138c0 -60 -33 -114 -81 -148l-42 34c27 16 57 51 62 80c-2 -1 -9 -2 -14 -2c-29 0 -52 22 -52 55s27 60 60 60c35 0 67 -29 67 -79zM552 0h-158l-154 261l-47 -74v-187h-134v667h134v-303l188 303h156l-213 -314z" />
    <glyph glyph-name="Lacute" unicode="&#x139;" horiz-adv-x="444" 
d="M398 867l-134 -144h-80l107 144h107zM417 0h-358v667h134v-549h224v-118z" />
    <glyph glyph-name="Lcaron" unicode="&#x13d;" horiz-adv-x="444" 
d="M384 601c0 -60 -33 -114 -81 -148l-42 34c27 16 57 51 62 80c-2 -1 -9 -2 -14 -2c-29 0 -52 22 -52 55s27 60 60 60c35 0 67 -29 67 -79zM417 0h-358v667h134v-549h224v-118z" />
    <glyph glyph-name="Lcommaaccent" unicode="&#x13b;" horiz-adv-x="444" 
d="M290 -138c0 -60 -33 -114 -81 -148l-42 34c27 16 57 51 62 80c-2 -1 -9 -2 -14 -2c-29 0 -52 22 -52 55s27 60 60 60c35 0 67 -29 67 -79zM417 0h-358v667h134v-549h224v-118z" />
    <glyph glyph-name="Ldot" unicode="&#x13f;" horiz-adv-x="485" 
d="M417 0h-358v667h134v-549h224v-118zM445 341c0 -41 -35 -77 -77 -77s-77 36 -77 77c0 42 35 78 77 78s77 -36 77 -78z" />
    <glyph glyph-name="Lslash" unicode="&#x141;" horiz-adv-x="455" 
d="M12 205v110l59 34v318h134v-240l67 39v-111l-67 -39v-198h224v-118h-358v239z" />
    <glyph glyph-name="Nacute" unicode="&#x143;" horiz-adv-x="606" 
d="M463 867l-134 -144h-80l107 144h107zM548 0h-128l-227 394v-394h-134v667h136l218 -380v380h135v-667z" />
    <glyph glyph-name="Ncaron" unicode="&#x147;" horiz-adv-x="606" 
d="M358 723h-108l-80 144h70l64 -91l61 91h70zM548 0h-128l-227 394v-394h-134v667h136l218 -380v380h135v-667z" />
    <glyph glyph-name="Ncommaaccent" unicode="&#x145;" horiz-adv-x="606" 
d="M372 -138c0 -60 -33 -114 -81 -148l-42 34c27 16 57 51 62 80c-2 -1 -9 -2 -14 -2c-29 0 -52 22 -52 55s27 60 60 60c35 0 67 -29 67 -79zM548 0h-128l-227 394v-394h-134v667h136l218 -380v380h135v-667z" />
    <glyph glyph-name="Ntilde" unicode="&#xd1;" horiz-adv-x="606" 
d="M351 721c-60 0 -70 71 -102 71c-17 0 -31 -20 -31 -65h-62c0 81 34 134 96 134c60 0 70 -71 103 -71c17 0 30 20 30 65h62c0 -81 -33 -134 -96 -134zM548 0h-128l-227 394v-394h-134v667h136l218 -380v380h135v-667z" />
    <glyph glyph-name="Eng" unicode="&#x14a;" horiz-adv-x="606" 
d="M340 -196c-53 0 -105 14 -145 51l49 104c21 -22 49 -37 83 -37c52 0 86 32 86 89v1l-220 396v-408h-134v667h136l218 -394v394h135v-658c0 -142 -86 -205 -208 -205z" />
    <glyph glyph-name="Oacute" unicode="&#xd3;" horiz-adv-x="622" 
d="M471 867l-134 -144h-80l107 144h107zM310 -12c-174 0 -278 146 -278 345c0 198 104 345 278 345c175 0 279 -147 279 -345c0 -199 -104 -345 -279 -345zM310 107c92 0 142 99 142 226c0 129 -50 226 -142 226c-91 0 -140 -97 -140 -226c0 -127 49 -226 140 -226z" />
    <glyph glyph-name="Obreve" unicode="&#x14e;" horiz-adv-x="622" 
d="M310 -12c-174 0 -278 146 -278 345c0 198 104 345 278 345c175 0 279 -147 279 -345c0 -199 -104 -345 -279 -345zM310 107c92 0 142 99 142 226c0 129 -50 226 -142 226c-91 0 -140 -97 -140 -226c0 -127 49 -226 140 -226zM461 780c-35 -46 -88 -75 -150 -75
c-60 0 -115 29 -150 75l55 44c21 -30 55 -50 95 -50c39 0 74 19 95 50z" />
    <glyph glyph-name="Ocircumflex" unicode="&#xd4;" horiz-adv-x="622" 
d="M445 723h-70l-64 91l-61 -91h-70l77 144h108zM310 -12c-174 0 -278 146 -278 345c0 198 104 345 278 345c175 0 279 -147 279 -345c0 -199 -104 -345 -279 -345zM310 107c92 0 142 99 142 226c0 129 -50 226 -142 226c-91 0 -140 -97 -140 -226c0 -127 49 -226 140 -226z
" />
    <glyph glyph-name="Odieresis" unicode="&#xd6;" horiz-adv-x="622" 
d="M470 777c0 -36 -30 -65 -66 -65c-35 0 -64 29 -64 65s29 64 64 64c36 0 66 -28 66 -64zM282 777c0 -36 -28 -65 -64 -65s-65 29 -65 65s29 64 65 64s64 -28 64 -64zM310 -12c-174 0 -278 146 -278 345c0 198 104 345 278 345c175 0 279 -147 279 -345
c0 -199 -104 -345 -279 -345zM310 107c92 0 142 99 142 226c0 129 -50 226 -142 226c-91 0 -140 -97 -140 -226c0 -127 49 -226 140 -226z" />
    <glyph glyph-name="Ograve" unicode="&#xd2;" horiz-adv-x="622" 
d="M365 723h-80l-134 144h107zM310 -12c-174 0 -278 146 -278 345c0 198 104 345 278 345c175 0 279 -147 279 -345c0 -199 -104 -345 -279 -345zM310 107c92 0 142 99 142 226c0 129 -50 226 -142 226c-91 0 -140 -97 -140 -226c0 -127 49 -226 140 -226z" />
    <glyph glyph-name="Ohungarumlaut" unicode="&#x150;" horiz-adv-x="622" 
d="M361 867l-98 -144h-66l70 144h94zM500 867l-98 -144h-66l70 144h94zM310 -12c-174 0 -278 146 -278 345c0 198 104 345 278 345c175 0 279 -147 279 -345c0 -199 -104 -345 -279 -345zM310 107c92 0 142 99 142 226c0 129 -50 226 -142 226c-91 0 -140 -97 -140 -226
c0 -127 49 -226 140 -226z" />
    <glyph glyph-name="Omacron" unicode="&#x14c;" horiz-adv-x="622" 
d="M466 730h-311v69h311v-69zM310 -12c-174 0 -278 146 -278 345c0 198 104 345 278 345c175 0 279 -147 279 -345c0 -199 -104 -345 -279 -345zM310 107c92 0 142 99 142 226c0 129 -50 226 -142 226c-91 0 -140 -97 -140 -226c0 -127 49 -226 140 -226z" />
    <glyph glyph-name="Oslash" unicode="&#xd8;" horiz-adv-x="622" 
d="M310 -12c-57 0 -106 15 -147 43l-19 -31h-88l52 83c-49 62 -76 149 -76 250c0 198 104 345 278 345c54 0 102 -15 142 -40l18 29h88l-49 -79c52 -62 80 -152 80 -255c0 -199 -104 -345 -279 -345zM310 107c92 0 142 99 142 226c0 49 -7 93 -21 129l-200 -323
c21 -20 47 -32 79 -32zM170 333c0 -45 6 -86 18 -121l197 319c-20 18 -46 28 -75 28c-91 0 -140 -97 -140 -226z" />
    <glyph glyph-name="Oslashacute" unicode="&#x1fe;" horiz-adv-x="622" 
d="M471 867l-134 -144h-80l107 144h107zM310 -12c-57 0 -106 15 -147 43l-19 -31h-88l52 83c-49 62 -76 149 -76 250c0 198 104 345 278 345c54 0 102 -15 142 -40l18 29h88l-49 -79c52 -62 80 -152 80 -255c0 -199 -104 -345 -279 -345zM310 107c92 0 142 99 142 226
c0 49 -7 93 -21 129l-200 -323c21 -20 47 -32 79 -32zM170 333c0 -45 6 -86 18 -121l197 319c-20 18 -46 28 -75 28c-91 0 -140 -97 -140 -226z" />
    <glyph glyph-name="Otilde" unicode="&#xd5;" horiz-adv-x="622" 
d="M310 -12c-174 0 -278 146 -278 345c0 198 104 345 278 345c175 0 279 -147 279 -345c0 -199 -104 -345 -279 -345zM310 107c92 0 142 99 142 226c0 129 -50 226 -142 226c-91 0 -140 -97 -140 -226c0 -127 49 -226 140 -226zM361 721c-60 0 -70 71 -102 71
c-17 0 -31 -20 -31 -65h-62c0 81 34 134 96 134c60 0 70 -71 103 -71c17 0 30 20 30 65h62c0 -81 -33 -134 -96 -134z" />
    <glyph glyph-name="uni1ECC" unicode="&#x1ecc;" horiz-adv-x="622" 
d="M310 -12c-174 0 -278 146 -278 345c0 198 104 345 278 345c175 0 279 -147 279 -345c0 -199 -104 -345 -279 -345zM310 107c92 0 142 99 142 226c0 129 -50 226 -142 226c-91 0 -140 -97 -140 -226c0 -127 49 -226 140 -226zM313 -194c-35 0 -65 28 -65 64s30 65 65 65
s64 -29 64 -65s-29 -64 -64 -64z" />
    <glyph glyph-name="uni1ECE" unicode="&#x1ece;" horiz-adv-x="622" 
d="M310 -12c-174 0 -278 146 -278 345c0 198 104 345 278 345c175 0 279 -147 279 -345c0 -199 -104 -345 -279 -345zM310 107c92 0 142 99 142 226c0 129 -50 226 -142 226c-91 0 -140 -97 -140 -226c0 -127 49 -226 140 -226zM282 754l-44 11c10 34 36 55 73 55
c38 0 70 -21 70 -69c0 -22 -6 -38 -16 -54h-50c14 17 19 34 19 51c0 22 -11 31 -24 31c-14 0 -23 -10 -28 -25z" />
    <glyph glyph-name="uni1ED0" unicode="&#x1ed0;" horiz-adv-x="622" 
d="M440 682h-70l-64 68l-61 -68h-70l77 108h108zM626 843l-134 -108h-80l107 108h107zM310 -12c-174 0 -278 146 -278 345c0 198 104 345 278 345c175 0 279 -147 279 -345c0 -199 -104 -345 -279 -345zM310 107c92 0 142 99 142 226c0 129 -50 226 -142 226
c-91 0 -140 -97 -140 -226c0 -127 49 -226 140 -226z" />
    <glyph glyph-name="uni1ED2" unicode="&#x1ed2;" horiz-adv-x="622" 
d="M439 682h-70l-64 68l-61 -68h-70l77 108h108zM310 -12c-174 0 -278 146 -278 345c0 198 104 345 278 345c175 0 279 -147 279 -345c0 -199 -104 -345 -279 -345zM310 107c92 0 142 99 142 226c0 129 -50 226 -142 226c-91 0 -140 -97 -140 -226c0 -127 49 -226 140 -226z
M202 735h-80l-134 108h107z" />
    <glyph glyph-name="uni1ED4" unicode="&#x1ed4;" horiz-adv-x="622" 
d="M439 682h-70l-64 68l-61 -68h-70l77 108h108zM310 -12c-174 0 -278 146 -278 345c0 198 104 345 278 345c175 0 279 -147 279 -345c0 -199 -104 -345 -279 -345zM310 107c92 0 142 99 142 226c0 129 -50 226 -142 226c-91 0 -140 -97 -140 -226c0 -127 49 -226 140 -226z
M422 787l-44 8c10 26 36 41 73 41c38 0 70 -15 70 -51c0 -17 -6 -29 -16 -41h-50c14 13 19 26 19 38c0 17 -11 24 -24 24c-14 0 -23 -8 -28 -19z" />
    <glyph glyph-name="uni1ED6" unicode="&#x1ed6;" horiz-adv-x="622" 
d="M442 678h-70l-64 45l-61 -45h-70l77 72h108zM310 -12c-174 0 -278 146 -278 345c0 198 104 345 278 345c175 0 279 -147 279 -345c0 -199 -104 -345 -279 -345zM310 107c92 0 142 99 142 226c0 129 -50 226 -142 226c-91 0 -140 -97 -140 -226c0 -127 49 -226 140 -226z
M357 757c-60 0 -70 35 -102 35c-17 0 -31 -10 -31 -32h-62c0 40 34 67 96 67c60 0 70 -36 103 -36c17 0 30 10 30 33h62c0 -41 -33 -67 -96 -67z" />
    <glyph glyph-name="uni1ED8" unicode="&#x1ed8;" horiz-adv-x="622" 
d="M445 723h-70l-64 91l-61 -91h-70l77 144h108zM310 -12c-174 0 -278 146 -278 345c0 198 104 345 278 345c175 0 279 -147 279 -345c0 -199 -104 -345 -279 -345zM310 107c92 0 142 99 142 226c0 129 -50 226 -142 226c-91 0 -140 -97 -140 -226c0 -127 49 -226 140 -226z
M313 -194c-35 0 -65 28 -65 64s30 65 65 65s64 -29 64 -65s-29 -64 -64 -64z" />
    <glyph glyph-name="Ohorn" unicode="&#x1a0;" horiz-adv-x="622" 
d="M310 -12c-174 0 -278 146 -278 345c0 198 104 345 278 345c90 0 161 -39 209 -104c19 17 35 41 39 62c-2 -1 -8 -2 -13 -2c-27 0 -47 20 -47 50c0 29 24 54 54 54c32 0 61 -27 61 -72c0 -53 -29 -100 -70 -131c30 -56 46 -125 46 -202c0 -199 -104 -345 -279 -345z
M310 107c92 0 142 99 142 226c0 129 -50 226 -142 226c-91 0 -140 -97 -140 -226c0 -127 49 -226 140 -226z" />
    <glyph glyph-name="uni1EDA" unicode="&#x1eda;" horiz-adv-x="622" 
d="M471 867l-134 -144h-80l107 144h107zM310 -12c-174 0 -278 146 -278 345c0 198 104 345 278 345c90 0 161 -39 209 -104c19 17 35 41 39 62c-2 -1 -8 -2 -13 -2c-27 0 -47 20 -47 50c0 29 24 54 54 54c32 0 61 -27 61 -72c0 -53 -29 -100 -70 -131
c30 -56 46 -125 46 -202c0 -199 -104 -345 -279 -345zM310 107c92 0 142 99 142 226c0 129 -50 226 -142 226c-91 0 -140 -97 -140 -226c0 -127 49 -226 140 -226z" />
    <glyph glyph-name="uni1EDC" unicode="&#x1edc;" horiz-adv-x="622" 
d="M310 -12c-174 0 -278 146 -278 345c0 198 104 345 278 345c90 0 161 -39 209 -104c19 17 35 41 39 62c-2 -1 -8 -2 -13 -2c-27 0 -47 20 -47 50c0 29 24 54 54 54c32 0 61 -27 61 -72c0 -53 -29 -100 -70 -131c30 -56 46 -125 46 -202c0 -199 -104 -345 -279 -345z
M310 107c92 0 142 99 142 226c0 129 -50 226 -142 226c-91 0 -140 -97 -140 -226c0 -127 49 -226 140 -226zM365 723h-80l-134 144h107z" />
    <glyph glyph-name="uni1EDE" unicode="&#x1ede;" horiz-adv-x="622" 
d="M310 -12c-174 0 -278 146 -278 345c0 198 104 345 278 345c90 0 161 -39 209 -104c19 17 35 41 39 62c-2 -1 -8 -2 -13 -2c-27 0 -47 20 -47 50c0 29 24 54 54 54c32 0 61 -27 61 -72c0 -53 -29 -100 -70 -131c30 -56 46 -125 46 -202c0 -199 -104 -345 -279 -345z
M310 107c92 0 142 99 142 226c0 129 -50 226 -142 226c-91 0 -140 -97 -140 -226c0 -127 49 -226 140 -226zM283 754l-44 11c10 34 36 55 73 55c38 0 70 -21 70 -69c0 -22 -6 -38 -16 -54h-50c14 17 19 34 19 51c0 22 -11 31 -24 31c-14 0 -23 -10 -28 -25z" />
    <glyph glyph-name="uni1EE0" unicode="&#x1ee0;" horiz-adv-x="622" 
d="M310 -12c-174 0 -278 146 -278 345c0 198 104 345 278 345c90 0 161 -39 209 -104c19 17 35 41 39 62c-2 -1 -8 -2 -13 -2c-27 0 -47 20 -47 50c0 29 24 54 54 54c32 0 61 -27 61 -72c0 -53 -29 -100 -70 -131c30 -56 46 -125 46 -202c0 -199 -104 -345 -279 -345z
M310 107c92 0 142 99 142 226c0 129 -50 226 -142 226c-91 0 -140 -97 -140 -226c0 -127 49 -226 140 -226zM361 721c-60 0 -70 71 -102 71c-17 0 -31 -20 -31 -65h-62c0 81 34 134 96 134c60 0 70 -71 103 -71c17 0 30 20 30 65h62c0 -81 -33 -134 -96 -134z" />
    <glyph glyph-name="uni1EE2" unicode="&#x1ee2;" horiz-adv-x="622" 
d="M310 -12c-174 0 -278 146 -278 345c0 198 104 345 278 345c90 0 161 -39 209 -104c19 17 35 41 39 62c-2 -1 -8 -2 -13 -2c-27 0 -47 20 -47 50c0 29 24 54 54 54c32 0 61 -27 61 -72c0 -53 -29 -100 -70 -131c30 -56 46 -125 46 -202c0 -199 -104 -345 -279 -345z
M310 107c92 0 142 99 142 226c0 129 -50 226 -142 226c-91 0 -140 -97 -140 -226c0 -127 49 -226 140 -226zM313 -194c-35 0 -65 28 -65 64s30 65 65 65s64 -29 64 -65s-29 -64 -64 -64z" />
    <glyph glyph-name="OE" unicode="&#x152;" horiz-adv-x="858" 
d="M821 0h-381v64c-34 -53 -97 -76 -149 -76c-162 0 -259 146 -259 345s97 344 259 344c52 0 115 -22 149 -74v64h381v-118h-247v-151h240v-118h-240v-162h247v-118zM440 210v246c-23 67 -70 102 -126 102c-96 0 -144 -96 -144 -225c0 -128 48 -226 144 -226
c56 0 103 37 126 103z" />
    <glyph glyph-name="uni1E56" unicode="&#x1e56;" horiz-adv-x="533" 
d="M193 0h-134v667h246c137 0 206 -99 206 -213s-69 -213 -206 -213h-112v-241zM289 359c51 0 85 37 85 95s-34 95 -85 95h-96v-190h96zM266 712c-35 0 -65 28 -65 64s30 65 65 65s64 -29 64 -65s-29 -64 -64 -64z" />
    <glyph glyph-name="Racute" unicode="&#x154;" horiz-adv-x="551" 
d="M443 867l-134 -144h-80l107 144h107zM516 0h-149l-102 241h-72v-241h-134v667h249c122 0 203 -88 203 -211c0 -115 -61 -173 -116 -191zM288 359c52 0 86 37 86 95s-34 95 -86 95h-95v-190h95z" />
    <glyph glyph-name="Rcaron" unicode="&#x158;" horiz-adv-x="551" 
d="M332 723h-108l-80 144h70l64 -91l61 91h70zM516 0h-149l-102 241h-72v-241h-134v667h249c122 0 203 -88 203 -211c0 -115 -61 -173 -116 -191zM288 359c52 0 86 37 86 95s-34 95 -86 95h-95v-190h95z" />
    <glyph glyph-name="Rcommaaccent" unicode="&#x156;" horiz-adv-x="551" 
d="M345 -138c0 -60 -33 -114 -81 -148l-42 34c27 16 57 51 62 80c-2 -1 -9 -2 -14 -2c-29 0 -52 22 -52 55s27 60 60 60c35 0 67 -29 67 -79zM516 0h-149l-102 241h-72v-241h-134v667h249c122 0 203 -88 203 -211c0 -115 -61 -173 -116 -191zM288 359c52 0 86 37 86 95
s-34 95 -86 95h-95v-190h95z" />
    <glyph glyph-name="Sacute" unicode="&#x15a;" horiz-adv-x="498" 
d="M410 867l-134 -144h-80l107 144h107zM244 -12c-101 0 -175 33 -228 86l66 103c37 -41 95 -71 161 -71c59 0 91 33 91 74c0 117 -298 77 -298 303c0 105 82 195 220 195c81 0 151 -26 202 -74l-64 -100c-40 38 -91 56 -143 56c-48 0 -78 -27 -78 -68
c0 -104 297 -76 297 -301c0 -117 -80 -203 -226 -203z" />
    <glyph glyph-name="Scaron" unicode="&#x160;" horiz-adv-x="498" 
d="M310 723h-108l-80 144h70l64 -91l61 91h70zM244 -12c-101 0 -175 33 -228 86l66 103c37 -41 95 -71 161 -71c59 0 91 33 91 74c0 117 -298 77 -298 303c0 105 82 195 220 195c81 0 151 -26 202 -74l-64 -100c-40 38 -91 56 -143 56c-48 0 -78 -27 -78 -68
c0 -104 297 -76 297 -301c0 -117 -80 -203 -226 -203z" />
    <glyph glyph-name="Scircumflex" unicode="&#x15c;" horiz-adv-x="498" 
d="M387 723h-70l-64 91l-61 -91h-70l77 144h108zM244 -12c-101 0 -175 33 -228 86l66 103c37 -41 95 -71 161 -71c59 0 91 33 91 74c0 117 -298 77 -298 303c0 105 82 195 220 195c81 0 151 -26 202 -74l-64 -100c-40 38 -91 56 -143 56c-48 0 -78 -27 -78 -68
c0 -104 297 -76 297 -301c0 -117 -80 -203 -226 -203z" />
    <glyph glyph-name="Scedilla" unicode="&#x15e;" horiz-adv-x="498" 
d="M236 -195c-41 0 -77 15 -98 32l23 48c23 -18 48 -28 72 -28c25 0 46 12 46 34c0 16 -9 26 -26 26c-12 0 -22 -5 -29 -13l-44 25l23 61c-81 8 -142 38 -187 84l66 103c37 -41 95 -71 161 -71c59 0 91 33 91 74c0 117 -298 77 -298 303c0 105 82 195 220 195
c81 0 151 -26 202 -74l-64 -100c-40 38 -91 56 -143 56c-48 0 -78 -27 -78 -68c0 -104 297 -76 297 -301c0 -113 -74 -196 -209 -202l-16 -41c9 7 19 10 32 10c35 0 63 -28 63 -69c0 -52 -46 -84 -104 -84z" />
    <glyph glyph-name="Scommaaccent" unicode="&#x218;" horiz-adv-x="498" 
d="M314 -138c0 -60 -33 -114 -81 -148l-42 34c27 16 57 51 62 80c-2 -1 -9 -2 -14 -2c-29 0 -52 22 -52 55s27 60 60 60c35 0 67 -29 67 -79zM244 -12c-101 0 -175 33 -228 86l66 103c37 -41 95 -71 161 -71c59 0 91 33 91 74c0 117 -298 77 -298 303c0 105 82 195 220 195
c81 0 151 -26 202 -74l-64 -100c-40 38 -91 56 -143 56c-48 0 -78 -27 -78 -68c0 -104 297 -76 297 -301c0 -117 -80 -203 -226 -203z" />
    <glyph glyph-name="uni1E60" unicode="&#x1e60;" horiz-adv-x="498" 
d="M244 -12c-101 0 -175 33 -228 86l66 103c37 -41 95 -71 161 -71c59 0 91 33 91 74c0 117 -298 77 -298 303c0 105 82 195 220 195c81 0 151 -26 202 -74l-64 -100c-40 38 -91 56 -143 56c-48 0 -78 -27 -78 -68c0 -104 297 -76 297 -301c0 -117 -80 -203 -226 -203z
M249 712c-35 0 -65 28 -65 64s30 65 65 65s64 -29 64 -65s-29 -64 -64 -64z" />
    <glyph glyph-name="Tbar" unicode="&#x166;" horiz-adv-x="473" 
d="M304 0h-134v267h-102v69h102v213h-148v118h430v-118h-148v-213h98v-69h-98v-267z" />
    <glyph glyph-name="Tcaron" unicode="&#x164;" horiz-adv-x="473" 
d="M292 723h-108l-80 144h70l64 -91l61 91h70zM304 0h-134v549h-148v118h430v-118h-148v-549z" />
    <glyph glyph-name="Tcommaaccent" unicode="&#x162;" horiz-adv-x="473" 
d="M305 -138c0 -60 -33 -114 -81 -148l-42 34c27 16 57 51 62 80c-2 -1 -9 -2 -14 -2c-29 0 -52 22 -52 55s27 60 60 60c35 0 67 -29 67 -79zM304 0h-134v549h-148v118h430v-118h-148v-549z" />
    <glyph glyph-name="uni021A" unicode="&#x21a;" horiz-adv-x="473" 
d="M305 -138c0 -60 -33 -114 -81 -148l-42 34c27 16 57 51 62 80c-2 -1 -9 -2 -14 -2c-29 0 -52 22 -52 55s27 60 60 60c35 0 67 -29 67 -79zM304 0h-134v549h-148v118h430v-118h-148v-549z" />
    <glyph glyph-name="uni1E6A" unicode="&#x1e6a;" horiz-adv-x="473" 
d="M304 0h-134v549h-148v118h430v-118h-148v-549zM237 712c-35 0 -65 28 -65 64s30 65 65 65s64 -29 64 -65s-29 -64 -64 -64z" />
    <glyph glyph-name="Uacute" unicode="&#xda;" horiz-adv-x="609" 
d="M465 867l-134 -144h-80l107 144h107zM305 -12c-151 0 -246 88 -246 242v437h135v-438c0 -79 40 -123 111 -123c70 0 110 44 110 123v438h135v-437c0 -154 -95 -242 -245 -242z" />
    <glyph glyph-name="Ubreve" unicode="&#x16c;" horiz-adv-x="609" 
d="M305 -12c-151 0 -246 88 -246 242v437h135v-438c0 -79 40 -123 111 -123c70 0 110 44 110 123v438h135v-437c0 -154 -95 -242 -245 -242zM456 780c-35 -46 -88 -75 -150 -75c-60 0 -115 29 -150 75l55 44c21 -30 55 -50 95 -50c39 0 74 19 95 50z" />
    <glyph glyph-name="Ucircumflex" unicode="&#xdb;" horiz-adv-x="609" 
d="M439 723h-70l-64 91l-61 -91h-70l77 144h108zM305 -12c-151 0 -246 88 -246 242v437h135v-438c0 -79 40 -123 111 -123c70 0 110 44 110 123v438h135v-437c0 -154 -95 -242 -245 -242z" />
    <glyph glyph-name="Udieresis" unicode="&#xdc;" horiz-adv-x="609" 
d="M464 777c0 -36 -30 -65 -66 -65c-35 0 -64 29 -64 65s29 64 64 64c36 0 66 -28 66 -64zM276 777c0 -36 -28 -65 -64 -65s-65 29 -65 65s29 64 65 64s64 -28 64 -64zM305 -12c-151 0 -246 88 -246 242v437h135v-438c0 -79 40 -123 111 -123c70 0 110 44 110 123v438h135
v-437c0 -154 -95 -242 -245 -242z" />
    <glyph glyph-name="Ugrave" unicode="&#xd9;" horiz-adv-x="609" 
d="M305 -12c-151 0 -246 88 -246 242v437h135v-438c0 -79 40 -123 111 -123c70 0 110 44 110 123v438h135v-437c0 -154 -95 -242 -245 -242zM358 723h-80l-134 144h107z" />
    <glyph glyph-name="Uhungarumlaut" unicode="&#x170;" horiz-adv-x="609" 
d="M305 -12c-151 0 -246 88 -246 242v437h135v-438c0 -79 40 -123 111 -123c70 0 110 44 110 123v438h135v-437c0 -154 -95 -242 -245 -242zM356 867l-98 -144h-66l70 144h94zM495 867l-98 -144h-66l70 144h94z" />
    <glyph glyph-name="Umacron" unicode="&#x16a;" horiz-adv-x="609" 
d="M305 -12c-151 0 -246 88 -246 242v437h135v-438c0 -79 40 -123 111 -123c70 0 110 44 110 123v438h135v-437c0 -154 -95 -242 -245 -242zM461 730h-311v69h311v-69z" />
    <glyph glyph-name="Uogonek" unicode="&#x172;" horiz-adv-x="609" 
d="M395 -103l49 -28c-15 -32 -42 -55 -85 -55c-50 0 -90 26 -90 86c0 32 11 62 33 88c-149 1 -243 89 -243 242v437h135v-438c0 -79 40 -123 111 -123c70 0 110 44 110 123v438h135v-437c0 -121 -59 -202 -157 -230c-42 -25 -64 -58 -64 -95c0 -29 14 -40 31 -40
c18 0 29 13 35 32z" />
    <glyph glyph-name="Uring" unicode="&#x16e;" horiz-adv-x="609" 
d="M306 695c-53 0 -97 43 -97 97c0 53 44 97 97 97s96 -44 96 -97c0 -54 -43 -97 -96 -97zM306 749c24 0 42 19 42 43c0 23 -18 43 -42 43c-23 0 -43 -20 -43 -43c0 -24 20 -43 43 -43zM305 -12c-151 0 -246 88 -246 242v437h135v-438c0 -79 40 -123 111 -123
c70 0 110 44 110 123v438h135v-437c0 -154 -95 -242 -245 -242z" />
    <glyph glyph-name="Utilde" unicode="&#x168;" horiz-adv-x="609" 
d="M305 -12c-151 0 -246 88 -246 242v437h135v-438c0 -79 40 -123 111 -123c70 0 110 44 110 123v438h135v-437c0 -154 -95 -242 -245 -242zM356 721c-60 0 -70 71 -102 71c-17 0 -31 -20 -31 -65h-62c0 81 34 134 96 134c60 0 70 -71 103 -71c17 0 30 20 30 65h62
c0 -81 -33 -134 -96 -134z" />
    <glyph glyph-name="uni1EE4" unicode="&#x1ee4;" horiz-adv-x="609" 
d="M305 -12c-151 0 -246 88 -246 242v437h135v-438c0 -79 40 -123 111 -123c70 0 110 44 110 123v438h135v-437c0 -154 -95 -242 -245 -242zM307 -194c-35 0 -65 28 -65 64s30 65 65 65s64 -29 64 -65s-29 -64 -64 -64z" />
    <glyph glyph-name="Uhorn" unicode="&#x1af;" horiz-adv-x="609" 
d="M652 727c0 -57 -34 -116 -102 -152v-345c0 -154 -95 -242 -245 -242c-151 0 -246 88 -246 242v437h135v-438c0 -79 40 -123 111 -123c70 0 110 44 110 123v438h135v-39c23 17 43 45 48 69c-2 -1 -8 -2 -14 -2c-26 0 -46 20 -46 50s23 54 53 54c32 0 61 -26 61 -72z" />
    <glyph glyph-name="uni1EE6" unicode="&#x1ee6;" horiz-adv-x="609" 
d="M305 -12c-151 0 -246 88 -246 242v437h135v-438c0 -79 40 -123 111 -123c70 0 110 44 110 123v438h135v-437c0 -154 -95 -242 -245 -242zM277 754l-44 11c10 34 36 55 73 55c38 0 70 -21 70 -69c0 -22 -6 -38 -16 -54h-50c14 17 19 34 19 51c0 22 -11 31 -24 31
c-14 0 -23 -10 -28 -25z" />
    <glyph glyph-name="uni1EE8" unicode="&#x1ee8;" horiz-adv-x="609" 
d="M465 867l-134 -144h-80l107 144h107zM652 727c0 -57 -34 -116 -102 -152v-345c0 -154 -95 -242 -245 -242c-151 0 -246 88 -246 242v437h135v-438c0 -79 40 -123 111 -123c70 0 110 44 110 123v438h135v-39c23 17 43 45 48 69c-2 -1 -8 -2 -14 -2c-26 0 -46 20 -46 50
s23 54 53 54c32 0 61 -26 61 -72z" />
    <glyph glyph-name="uni1EEA" unicode="&#x1eea;" horiz-adv-x="609" 
d="M358 723h-80l-134 144h107zM652 727c0 -57 -34 -116 -102 -152v-345c0 -154 -95 -242 -245 -242c-151 0 -246 88 -246 242v437h135v-438c0 -79 40 -123 111 -123c70 0 110 44 110 123v438h135v-39c23 17 43 45 48 69c-2 -1 -8 -2 -14 -2c-26 0 -46 20 -46 50s23 54 53 54
c32 0 61 -26 61 -72z" />
    <glyph glyph-name="uni1EEC" unicode="&#x1eec;" horiz-adv-x="609" 
d="M277 754l-44 11c10 34 36 55 73 55c38 0 70 -21 70 -69c0 -22 -6 -38 -16 -54h-50c14 17 19 34 19 51c0 22 -11 31 -24 31c-14 0 -23 -10 -28 -25zM652 727c0 -57 -34 -116 -102 -152v-345c0 -154 -95 -242 -245 -242c-151 0 -246 88 -246 242v437h135v-438
c0 -79 40 -123 111 -123c70 0 110 44 110 123v438h135v-39c23 17 43 45 48 69c-2 -1 -8 -2 -14 -2c-26 0 -46 20 -46 50s23 54 53 54c32 0 61 -26 61 -72z" />
    <glyph glyph-name="uni1EEE" unicode="&#x1eee;" horiz-adv-x="609" 
d="M652 727c0 -57 -34 -116 -102 -152v-345c0 -154 -95 -242 -245 -242c-151 0 -246 88 -246 242v437h135v-438c0 -79 40 -123 111 -123c70 0 110 44 110 123v438h135v-39c23 17 43 45 48 69c-2 -1 -8 -2 -14 -2c-26 0 -46 20 -46 50s23 54 53 54c32 0 61 -26 61 -72z
M354 721c-60 0 -70 71 -102 71c-17 0 -31 -20 -31 -65h-62c0 81 34 134 96 134c60 0 70 -71 103 -71c17 0 30 20 30 65h62c0 -81 -33 -134 -96 -134z" />
    <glyph glyph-name="uni1EF0" unicode="&#x1ef0;" horiz-adv-x="609" 
d="M307 -194c-35 0 -65 28 -65 64s30 65 65 65s64 -29 64 -65s-29 -64 -64 -64zM652 727c0 -57 -34 -116 -102 -152v-345c0 -154 -95 -242 -245 -242c-151 0 -246 88 -246 242v437h135v-438c0 -79 40 -123 111 -123c70 0 110 44 110 123v438h135v-39c23 17 43 45 48 69
c-2 -1 -8 -2 -14 -2c-26 0 -46 20 -46 50s23 54 53 54c32 0 61 -26 61 -72z" />
    <glyph glyph-name="Wacute" unicode="&#x1e82;" horiz-adv-x="767" 
d="M544 867l-134 -144h-80l107 144h107zM609 0h-140l-86 444l-85 -444h-140l-152 667h144l86 -464l95 464h105l96 -464l85 464h144z" />
    <glyph glyph-name="Wcircumflex" unicode="&#x174;" horiz-adv-x="767" 
d="M516 723h-70l-64 91l-61 -91h-70l77 144h108zM609 0h-140l-86 444l-85 -444h-140l-152 667h144l86 -464l95 464h105l96 -464l85 464h144z" />
    <glyph glyph-name="Wdieresis" unicode="&#x1e84;" horiz-adv-x="767" 
d="M542 777c0 -36 -30 -65 -66 -65c-35 0 -64 29 -64 65s29 64 64 64c36 0 66 -28 66 -64zM354 777c0 -36 -28 -65 -64 -65s-65 29 -65 65s29 64 65 64s64 -28 64 -64zM609 0h-140l-86 444l-85 -444h-140l-152 667h144l86 -464l95 464h105l96 -464l85 464h144z" />
    <glyph glyph-name="Wgrave" unicode="&#x1e80;" horiz-adv-x="767" 
d="M609 0h-140l-86 444l-85 -444h-140l-152 667h144l86 -464l95 464h105l96 -464l85 464h144zM437 723h-80l-134 144h107z" />
    <glyph glyph-name="Yacute" unicode="&#xdd;" horiz-adv-x="538" 
d="M336 0h-134v275l-206 392h148l125 -268l125 268h148l-206 -392v-275zM429 867l-134 -144h-80l107 144h107z" />
    <glyph glyph-name="Ycircumflex" unicode="&#x176;" horiz-adv-x="538" 
d="M402 723h-70l-64 91l-61 -91h-70l77 144h108zM336 0h-134v275l-206 392h148l125 -268l125 268h148l-206 -392v-275z" />
    <glyph glyph-name="Ydieresis" unicode="&#x178;" horiz-adv-x="538" 
d="M429 777c0 -36 -30 -65 -66 -65c-35 0 -64 29 -64 65s29 64 64 64c36 0 66 -28 66 -64zM241 777c0 -36 -28 -65 -64 -65s-65 29 -65 65s29 64 65 64s64 -28 64 -64zM336 0h-134v275l-206 392h148l125 -268l125 268h148l-206 -392v-275z" />
    <glyph glyph-name="Ygrave" unicode="&#x1ef2;" horiz-adv-x="538" 
d="M336 0h-134v275l-206 392h148l125 -268l125 268h148l-206 -392v-275zM323 723h-80l-134 144h107z" />
    <glyph glyph-name="Zacute" unicode="&#x179;" horiz-adv-x="484" 
d="M394 867l-134 -144h-80l107 144h107zM448 0h-412v110l241 439h-241v118h405v-108l-243 -441h250v-118z" />
    <glyph glyph-name="Zcaron" unicode="&#x17d;" horiz-adv-x="484" 
d="M296 723h-108l-80 144h70l64 -91l61 91h70zM448 0h-412v110l241 439h-241v118h405v-108l-243 -441h250v-118z" />
    <glyph glyph-name="Zdotaccent" unicode="&#x17b;" horiz-adv-x="484" 
d="M448 0h-412v110l241 439h-241v118h405v-108l-243 -441h250v-118zM239 712c-35 0 -65 28 -65 64s30 65 65 65s64 -29 64 -65s-29 -64 -64 -64z" />
    <glyph glyph-name="Eth" unicode="&#xd0;" horiz-adv-x="620" 
d="M298 0h-215v280h-71v99h71v288h215c184 0 290 -138 290 -334s-105 -333 -290 -333zM298 118c99 0 153 88 153 215c0 132 -52 216 -153 216h-81v-170h107v-99h-107v-162h81z" />
    <glyph glyph-name="Thorn" unicode="&#xde;" horiz-adv-x="533" 
d="M193 0h-134v667h134v-109h112c137 0 206 -100 206 -214s-69 -212 -206 -212h-112v-132zM288 250c52 0 86 37 86 94c0 58 -34 96 -86 96h-95v-190h95z" />
    <glyph glyph-name="aacute" unicode="&#xe1;" 
d="M425 0h-121v48c-27 -38 -78 -60 -127 -60c-76 0 -149 57 -149 160c0 106 73 157 149 157c50 0 101 -20 127 -57v63c0 52 -32 84 -89 84c-42 0 -83 -17 -119 -52l-45 82c51 49 124 70 186 70c105 0 188 -47 188 -171v-324zM223 69c33 0 65 17 81 46v62
c-16 29 -48 47 -81 47c-45 0 -75 -32 -75 -78s30 -77 75 -77zM398 700l-134 -144h-80l107 144h107z" />
    <glyph glyph-name="abreve" unicode="&#x103;" 
d="M425 0h-121v48c-27 -38 -78 -60 -127 -60c-76 0 -149 57 -149 160c0 106 73 157 149 157c50 0 101 -20 127 -57v63c0 52 -32 84 -89 84c-42 0 -83 -17 -119 -52l-45 82c51 49 124 70 186 70c105 0 188 -47 188 -171v-324zM223 69c33 0 65 17 81 46v62
c-16 29 -48 47 -81 47c-45 0 -75 -32 -75 -78s30 -77 75 -77zM389 613c-35 -46 -88 -75 -150 -75c-60 0 -115 29 -150 75l55 44c21 -30 55 -50 95 -50c39 0 74 19 95 50z" />
    <glyph glyph-name="acircumflex" unicode="&#xe2;" 
d="M425 0h-121v48c-27 -38 -78 -60 -127 -60c-76 0 -149 57 -149 160c0 106 73 157 149 157c50 0 101 -20 127 -57v63c0 52 -32 84 -89 84c-42 0 -83 -17 -119 -52l-45 82c51 49 124 70 186 70c105 0 188 -47 188 -171v-324zM223 69c33 0 65 17 81 46v62
c-16 29 -48 47 -81 47c-45 0 -75 -32 -75 -78s30 -77 75 -77zM373 556h-70l-64 91l-61 -91h-70l77 144h108z" />
    <glyph glyph-name="adieresis" unicode="&#xe4;" 
d="M425 0h-121v48c-27 -38 -78 -60 -127 -60c-76 0 -149 57 -149 160c0 106 73 157 149 157c50 0 101 -20 127 -57v63c0 52 -32 84 -89 84c-42 0 -83 -17 -119 -52l-45 82c51 49 124 70 186 70c105 0 188 -47 188 -171v-324zM223 69c33 0 65 17 81 46v62
c-16 29 -48 47 -81 47c-45 0 -75 -32 -75 -78s30 -77 75 -77zM398 610c0 -36 -30 -65 -66 -65c-35 0 -64 29 -64 65s29 64 64 64c36 0 66 -28 66 -64zM210 610c0 -36 -28 -65 -64 -65s-65 29 -65 65s29 64 65 64s64 -28 64 -64z" />
    <glyph glyph-name="agrave" unicode="&#xe0;" 
d="M425 0h-121v48c-27 -38 -78 -60 -127 -60c-76 0 -149 57 -149 160c0 106 73 157 149 157c50 0 101 -20 127 -57v63c0 52 -32 84 -89 84c-42 0 -83 -17 -119 -52l-45 82c51 49 124 70 186 70c105 0 188 -47 188 -171v-324zM223 69c33 0 65 17 81 46v62
c-16 29 -48 47 -81 47c-45 0 -75 -32 -75 -78s30 -77 75 -77zM291 556h-80l-134 144h107z" />
    <glyph glyph-name="amacron" unicode="&#x101;" 
d="M425 0h-121v48c-27 -38 -78 -60 -127 -60c-76 0 -149 57 -149 160c0 106 73 157 149 157c50 0 101 -20 127 -57v63c0 52 -32 84 -89 84c-42 0 -83 -17 -119 -52l-45 82c51 49 124 70 186 70c105 0 188 -47 188 -171v-324zM223 69c33 0 65 17 81 46v62
c-16 29 -48 47 -81 47c-45 0 -75 -32 -75 -78s30 -77 75 -77zM394 563h-311v69h311v-69z" />
    <glyph glyph-name="aogonek" unicode="&#x105;" 
d="M427 -103l49 -28c-15 -32 -42 -55 -85 -55c-50 0 -90 26 -90 86c0 37 15 71 45 100h-42v48c-27 -38 -78 -60 -127 -60c-76 0 -149 57 -149 160c0 106 73 157 149 157c50 0 101 -20 127 -57v63c0 52 -32 84 -89 84c-42 0 -83 -17 -119 -52l-45 82c51 49 124 70 186 70
c105 0 188 -47 188 -171v-324c-42 -25 -64 -58 -64 -95c0 -29 14 -40 31 -40c18 0 29 13 35 32zM223 69c33 0 65 17 81 46v62c-16 29 -48 47 -81 47c-45 0 -75 -32 -75 -78s30 -77 75 -77z" />
    <glyph glyph-name="aring" unicode="&#xe5;" 
d="M425 0h-121v48c-27 -38 -78 -60 -127 -60c-76 0 -149 57 -149 160c0 106 73 157 149 157c50 0 101 -20 127 -57v63c0 52 -32 84 -89 84c-42 0 -83 -17 -119 -52l-45 82c51 49 124 70 186 70c105 0 188 -47 188 -171v-324zM223 69c33 0 65 17 81 46v62
c-16 29 -48 47 -81 47c-45 0 -75 -32 -75 -78s30 -77 75 -77zM239 534c-53 0 -97 43 -97 97c0 53 44 97 97 97s96 -44 96 -97c0 -54 -43 -97 -96 -97zM239 588c24 0 42 19 42 43c0 23 -18 43 -42 43c-23 0 -43 -20 -43 -43c0 -24 20 -43 43 -43z" />
    <glyph glyph-name="atilde" unicode="&#xe3;" 
d="M425 0h-121v48c-27 -38 -78 -60 -127 -60c-76 0 -149 57 -149 160c0 106 73 157 149 157c50 0 101 -20 127 -57v63c0 52 -32 84 -89 84c-42 0 -83 -17 -119 -52l-45 82c51 49 124 70 186 70c105 0 188 -47 188 -171v-324zM223 69c33 0 65 17 81 46v62
c-16 29 -48 47 -81 47c-45 0 -75 -32 -75 -78s30 -77 75 -77zM288 554c-60 0 -70 71 -102 71c-17 0 -31 -20 -31 -65h-62c0 81 34 134 96 134c60 0 70 -71 103 -71c17 0 30 20 30 65h62c0 -81 -33 -134 -96 -134z" />
    <glyph glyph-name="uni1EA1" unicode="&#x1ea1;" 
d="M425 0h-121v48c-27 -38 -78 -60 -127 -60c-76 0 -149 57 -149 160c0 106 73 157 149 157c50 0 101 -20 127 -57v63c0 52 -32 84 -89 84c-42 0 -83 -17 -119 -52l-45 82c51 49 124 70 186 70c105 0 188 -47 188 -171v-324zM223 69c33 0 65 17 81 46v62
c-16 29 -48 47 -81 47c-45 0 -75 -32 -75 -78s30 -77 75 -77zM240 -194c-35 0 -65 28 -65 64s30 65 65 65s64 -29 64 -65s-29 -64 -64 -64z" />
    <glyph glyph-name="uni1EA3" unicode="&#x1ea3;" 
d="M425 0h-121v48c-27 -38 -78 -60 -127 -60c-76 0 -149 57 -149 160c0 106 73 157 149 157c50 0 101 -20 127 -57v63c0 52 -32 84 -89 84c-42 0 -83 -17 -119 -52l-45 82c51 49 124 70 186 70c105 0 188 -47 188 -171v-324zM223 69c33 0 65 17 81 46v62
c-16 29 -48 47 -81 47c-45 0 -75 -32 -75 -78s30 -77 75 -77zM211 584l-44 11c10 34 36 55 73 55c38 0 70 -21 70 -69c0 -22 -6 -38 -16 -54h-50c14 17 19 34 19 51c0 22 -11 31 -24 31c-14 0 -23 -10 -28 -25z" />
    <glyph glyph-name="uni1EA5" unicode="&#x1ea5;" 
d="M425 0h-121v48c-27 -38 -78 -60 -127 -60c-76 0 -149 57 -149 160c0 106 73 157 149 157c50 0 101 -20 127 -57v63c0 52 -32 84 -89 84c-42 0 -83 -17 -119 -52l-45 82c51 49 124 70 186 70c105 0 188 -47 188 -171v-324zM223 69c33 0 65 17 81 46v62
c-16 29 -48 47 -81 47c-45 0 -75 -32 -75 -78s30 -77 75 -77zM373 556h-70l-64 91l-61 -91h-70l77 144h108zM555 770l-134 -144h-80l107 144h107z" />
    <glyph glyph-name="uni1EAD" unicode="&#x1ead;" 
d="M425 0h-121v48c-27 -38 -78 -60 -127 -60c-76 0 -149 57 -149 160c0 106 73 157 149 157c50 0 101 -20 127 -57v63c0 52 -32 84 -89 84c-42 0 -83 -17 -119 -52l-45 82c51 49 124 70 186 70c105 0 188 -47 188 -171v-324zM223 69c33 0 65 17 81 46v62
c-16 29 -48 47 -81 47c-45 0 -75 -32 -75 -78s30 -77 75 -77zM372 556h-70l-64 91l-61 -91h-70l77 144h108zM240 -194c-35 0 -65 28 -65 64s30 65 65 65s64 -29 64 -65s-29 -64 -64 -64z" />
    <glyph glyph-name="uni1EA7" unicode="&#x1ea7;" 
d="M425 0h-121v48c-27 -38 -78 -60 -127 -60c-76 0 -149 57 -149 160c0 106 73 157 149 157c50 0 101 -20 127 -57v63c0 52 -32 84 -89 84c-42 0 -83 -17 -119 -52l-45 82c51 49 124 70 186 70c105 0 188 -47 188 -171v-324zM223 69c33 0 65 17 81 46v62
c-16 29 -48 47 -81 47c-45 0 -75 -32 -75 -78s30 -77 75 -77zM373 556h-70l-64 91l-61 -91h-70l77 144h108zM137 626h-80l-134 144h107z" />
    <glyph glyph-name="uni1EA9" unicode="&#x1ea9;" 
d="M425 0h-121v48c-27 -38 -78 -60 -127 -60c-76 0 -149 57 -149 160c0 106 73 157 149 157c50 0 101 -20 127 -57v63c0 52 -32 84 -89 84c-42 0 -83 -17 -119 -52l-45 82c51 49 124 70 186 70c105 0 188 -47 188 -171v-324zM223 69c33 0 65 17 81 46v62
c-16 29 -48 47 -81 47c-45 0 -75 -32 -75 -78s30 -77 75 -77zM373 556h-70l-64 91l-61 -91h-70l77 144h108zM307 724l-44 11c10 34 36 55 73 55c38 0 70 -21 70 -69c0 -22 -6 -38 -16 -54h-50c14 17 19 34 19 51c0 22 -11 31 -24 31c-14 0 -23 -10 -28 -25z" />
    <glyph glyph-name="uni1EAF" unicode="&#x1eaf;" 
d="M425 0h-121v48c-27 -38 -78 -60 -127 -60c-76 0 -149 57 -149 160c0 106 73 157 149 157c50 0 101 -20 127 -57v63c0 52 -32 84 -89 84c-42 0 -83 -17 -119 -52l-45 82c51 49 124 70 186 70c105 0 188 -47 188 -171v-324zM223 69c33 0 65 17 81 46v62
c-16 29 -48 47 -81 47c-45 0 -75 -32 -75 -78s30 -77 75 -77zM400 777l-134 -144h-80l107 144h107zM389 593c-35 -46 -88 -75 -150 -75c-60 0 -115 29 -150 75l55 44c21 -30 55 -50 95 -50c39 0 74 19 95 50z" />
    <glyph glyph-name="uni1EAB" unicode="&#x1eab;" 
d="M425 0h-121v48c-27 -38 -78 -60 -127 -60c-76 0 -149 57 -149 160c0 106 73 157 149 157c50 0 101 -20 127 -57v63c0 52 -32 84 -89 84c-42 0 -83 -17 -119 -52l-45 82c51 49 124 70 186 70c105 0 188 -47 188 -171v-324zM223 69c33 0 65 17 81 46v62
c-16 29 -48 47 -81 47c-45 0 -75 -32 -75 -78s30 -77 75 -77zM373 523h-70l-64 91l-61 -91h-70l77 144h108zM288 682c-60 0 -70 71 -102 71c-17 0 -31 -20 -31 -65h-62c0 81 34 134 96 134c60 0 70 -71 103 -71c17 0 30 20 30 65h62c0 -81 -33 -134 -96 -134z" />
    <glyph glyph-name="uni1EB1" unicode="&#x1eb1;" 
d="M425 0h-121v48c-27 -38 -78 -60 -127 -60c-76 0 -149 57 -149 160c0 106 73 157 149 157c50 0 101 -20 127 -57v63c0 52 -32 84 -89 84c-42 0 -83 -17 -119 -52l-45 82c51 49 124 70 186 70c105 0 188 -47 188 -171v-324zM223 69c33 0 65 17 81 46v62
c-16 29 -48 47 -81 47c-45 0 -75 -32 -75 -78s30 -77 75 -77zM291 633h-80l-134 144h107zM389 594c-35 -46 -88 -75 -150 -75c-60 0 -115 29 -150 75l55 44c21 -30 55 -50 95 -50c39 0 74 19 95 50z" />
    <glyph glyph-name="uni1EB3" unicode="&#x1eb3;" 
d="M425 0h-121v48c-27 -38 -78 -60 -127 -60c-76 0 -149 57 -149 160c0 106 73 157 149 157c50 0 101 -20 127 -57v63c0 52 -32 84 -89 84c-42 0 -83 -17 -119 -52l-45 82c51 49 124 70 186 70c105 0 188 -47 188 -171v-324zM223 69c33 0 65 17 81 46v62
c-16 29 -48 47 -81 47c-45 0 -75 -32 -75 -78s30 -77 75 -77zM212 691l-44 11c10 34 36 55 73 55c38 0 70 -21 70 -69c0 -22 -6 -38 -16 -54h-50c14 17 19 34 19 51c0 22 -11 31 -24 31c-14 0 -23 -10 -28 -25zM389 594c-35 -46 -88 -75 -150 -75c-60 0 -115 29 -150 75
l55 44c21 -30 55 -50 95 -50c39 0 74 19 95 50z" />
    <glyph glyph-name="uni1EB5" unicode="&#x1eb5;" 
d="M425 0h-121v48c-27 -38 -78 -60 -127 -60c-76 0 -149 57 -149 160c0 106 73 157 149 157c50 0 101 -20 127 -57v63c0 52 -32 84 -89 84c-42 0 -83 -17 -119 -52l-45 82c51 49 124 70 186 70c105 0 188 -47 188 -171v-324zM223 69c33 0 65 17 81 46v62
c-16 29 -48 47 -81 47c-45 0 -75 -32 -75 -78s30 -77 75 -77zM389 594c-35 -46 -88 -75 -150 -75c-60 0 -115 29 -150 75l55 44c21 -30 55 -50 95 -50c39 0 74 19 95 50zM287 654c-60 0 -70 71 -102 71c-17 0 -31 -20 -31 -65h-62c0 81 34 134 96 134c60 0 70 -71 103 -71
c17 0 30 20 30 65h62c0 -81 -33 -134 -96 -134z" />
    <glyph glyph-name="uni1EB7" unicode="&#x1eb7;" 
d="M425 0h-121v48c-27 -38 -78 -60 -127 -60c-76 0 -149 57 -149 160c0 106 73 157 149 157c50 0 101 -20 127 -57v63c0 52 -32 84 -89 84c-42 0 -83 -17 -119 -52l-45 82c51 49 124 70 186 70c105 0 188 -47 188 -171v-324zM223 69c33 0 65 17 81 46v62
c-16 29 -48 47 -81 47c-45 0 -75 -32 -75 -78s30 -77 75 -77zM240 -194c-35 0 -65 28 -65 64s30 65 65 65s64 -29 64 -65s-29 -64 -64 -64zM388 613c-35 -46 -88 -75 -150 -75c-60 0 -115 29 -150 75l55 44c21 -30 55 -50 95 -50c39 0 74 19 95 50z" />
    <glyph glyph-name="ae" unicode="&#xe6;" horiz-adv-x="751" 
d="M725 203h-291c5 -66 42 -117 111 -117c35 0 74 17 99 47l56 -73c-43 -47 -108 -72 -166 -72c-73 0 -121 27 -159 81c-33 -44 -92 -81 -172 -81c-98 0 -175 55 -175 158c0 102 68 159 154 159c51 0 105 -19 134 -56v62c0 51 -35 84 -95 84c-44 0 -87 -17 -125 -52l-45 82
c51 49 125 70 184 70c74 0 122 -31 144 -76c29 40 70 76 149 76c125 0 197 -110 197 -259v-33zM433 285h176c-1 50 -22 113 -87 113c-64 0 -87 -64 -89 -113zM316 164v13c-19 29 -53 47 -89 47c-46 0 -80 -28 -80 -72c0 -47 34 -71 79 -71c50 0 90 42 90 83z" />
    <glyph glyph-name="aeacute" unicode="&#x1fd;" horiz-adv-x="751" 
d="M525 700l-134 -144h-80l107 144h107zM725 203h-291c5 -66 42 -117 111 -117c35 0 74 17 99 47l56 -73c-43 -47 -108 -72 -166 -72c-73 0 -121 27 -159 81c-33 -44 -92 -81 -172 -81c-98 0 -175 55 -175 158c0 102 68 159 154 159c51 0 105 -19 134 -56v62
c0 51 -35 84 -95 84c-44 0 -87 -17 -125 -52l-45 82c51 49 125 70 184 70c74 0 122 -31 144 -76c29 40 70 76 149 76c125 0 197 -110 197 -259v-33zM433 285h176c-1 50 -22 113 -87 113c-64 0 -87 -64 -89 -113zM316 164v13c-19 29 -53 47 -89 47c-46 0 -80 -28 -80 -72
c0 -47 34 -71 79 -71c50 0 90 42 90 83z" />
    <glyph glyph-name="aacute.alt1" horiz-adv-x="504" 
d="M407 700l-134 -144h-80l107 144h107zM450 0h-120v61c-30 -48 -76 -73 -122 -73c-108 0 -179 95 -179 253c0 155 70 254 179 254c46 0 92 -23 121 -73v61h121v-483zM246 94c33 0 68 25 84 57v180c-16 32 -51 57 -84 57c-61 0 -93 -62 -93 -147c0 -84 32 -147 93 -147z" />
    <glyph glyph-name="abreve.alt1" horiz-adv-x="504" 
d="M450 0h-120v61c-30 -48 -76 -73 -122 -73c-108 0 -179 95 -179 253c0 155 70 254 179 254c46 0 92 -23 121 -73v61h121v-483zM246 94c33 0 68 25 84 57v180c-16 32 -51 57 -84 57c-61 0 -93 -62 -93 -147c0 -84 32 -147 93 -147zM408 613c-35 -46 -88 -75 -150 -75
c-60 0 -115 29 -150 75l55 44c21 -30 55 -50 95 -50c39 0 74 19 95 50z" />
    <glyph glyph-name="acircumflex.alt1" horiz-adv-x="504" 
d="M389 556h-70l-64 91l-61 -91h-70l77 144h108zM450 0h-120v61c-30 -48 -76 -73 -122 -73c-108 0 -179 95 -179 253c0 155 70 254 179 254c46 0 92 -23 121 -73v61h121v-483zM246 94c33 0 68 25 84 57v180c-16 32 -51 57 -84 57c-61 0 -93 -62 -93 -147
c0 -84 32 -147 93 -147z" />
    <glyph glyph-name="adieresis.alt1" horiz-adv-x="504" 
d="M416 610c0 -36 -30 -65 -66 -65c-35 0 -64 29 -64 65s29 64 64 64c36 0 66 -28 66 -64zM228 610c0 -36 -28 -65 -64 -65s-65 29 -65 65s29 64 65 64s64 -28 64 -64zM450 0h-120v61c-30 -48 -76 -73 -122 -73c-108 0 -179 95 -179 253c0 155 70 254 179 254
c46 0 92 -23 121 -73v61h121v-483zM246 94c33 0 68 25 84 57v180c-16 32 -51 57 -84 57c-61 0 -93 -62 -93 -147c0 -84 32 -147 93 -147z" />
    <glyph glyph-name="agrave.alt1" horiz-adv-x="504" 
d="M450 0h-120v61c-30 -48 -76 -73 -122 -73c-108 0 -179 95 -179 253c0 155 70 254 179 254c46 0 92 -23 121 -73v61h121v-483zM246 94c33 0 68 25 84 57v180c-16 32 -51 57 -84 57c-61 0 -93 -62 -93 -147c0 -84 32 -147 93 -147zM300 556h-80l-134 144h107z" />
    <glyph glyph-name="amacron.alt1" horiz-adv-x="504" 
d="M413 563h-311v69h311v-69zM450 0h-120v61c-30 -48 -76 -73 -122 -73c-108 0 -179 95 -179 253c0 155 70 254 179 254c46 0 92 -23 121 -73v61h121v-483zM246 94c33 0 68 25 84 57v180c-16 32 -51 57 -84 57c-61 0 -93 -62 -93 -147c0 -84 32 -147 93 -147z" />
    <glyph glyph-name="aogonek.alt1" horiz-adv-x="504" 
d="M450 0c-42 -25 -64 -58 -64 -95c0 -29 14 -40 31 -40c18 0 29 13 35 32l49 -28c-15 -32 -42 -55 -85 -55c-50 0 -90 26 -90 86c0 37 15 71 45 100h-41v61c-30 -48 -76 -73 -122 -73c-108 0 -179 95 -179 253c0 155 70 254 179 254c46 0 92 -23 121 -73v61h121v-483z
M246 94c33 0 68 25 84 57v180c-16 32 -51 57 -84 57c-61 0 -93 -62 -93 -147c0 -84 32 -147 93 -147z" />
    <glyph glyph-name="aring.alt1" horiz-adv-x="504" 
d="M257 534c-53 0 -97 43 -97 97c0 53 44 97 97 97s96 -44 96 -97c0 -54 -43 -97 -96 -97zM257 588c24 0 42 19 42 43c0 23 -18 43 -42 43c-23 0 -43 -20 -43 -43c0 -24 20 -43 43 -43zM450 0h-120v61c-30 -48 -76 -73 -122 -73c-108 0 -179 95 -179 253
c0 155 70 254 179 254c46 0 92 -23 121 -73v61h121v-483zM246 94c33 0 68 25 84 57v180c-16 32 -51 57 -84 57c-61 0 -93 -62 -93 -147c0 -84 32 -147 93 -147z" />
    <glyph glyph-name="atilde.alt1" horiz-adv-x="504" 
d="M450 0h-120v61c-30 -48 -76 -73 -122 -73c-108 0 -179 95 -179 253c0 155 70 254 179 254c46 0 92 -23 121 -73v61h121v-483zM246 94c33 0 68 25 84 57v180c-16 32 -51 57 -84 57c-61 0 -93 -62 -93 -147c0 -84 32 -147 93 -147zM307 554c-60 0 -70 71 -102 71
c-17 0 -31 -20 -31 -65h-62c0 81 34 134 96 134c60 0 70 -71 103 -71c17 0 30 20 30 65h62c0 -81 -33 -134 -96 -134z" />
    <glyph glyph-name="uni1EA1.alt1" horiz-adv-x="504" 
d="M450 0h-120v61c-30 -48 -76 -73 -122 -73c-108 0 -179 95 -179 253c0 155 70 254 179 254c46 0 92 -23 121 -73v61h121v-483zM246 94c33 0 68 25 84 57v180c-16 32 -51 57 -84 57c-61 0 -93 -62 -93 -147c0 -84 32 -147 93 -147zM257 -194c-35 0 -65 28 -65 64
s30 65 65 65s64 -29 64 -65s-29 -64 -64 -64z" />
    <glyph glyph-name="uni1EA3.alt1" horiz-adv-x="504" 
d="M450 0h-120v61c-30 -48 -76 -73 -122 -73c-108 0 -179 95 -179 253c0 155 70 254 179 254c46 0 92 -23 121 -73v61h121v-483zM246 94c33 0 68 25 84 57v180c-16 32 -51 57 -84 57c-61 0 -93 -62 -93 -147c0 -84 32 -147 93 -147zM228 584l-44 11c10 34 36 55 73 55
c38 0 70 -21 70 -69c0 -22 -6 -38 -16 -54h-50c14 17 19 34 19 51c0 22 -11 31 -24 31c-14 0 -23 -10 -28 -25z" />
    <glyph glyph-name="uni1EA5.alt1" horiz-adv-x="504" 
d="M391 556h-70l-64 91l-61 -91h-70l77 144h108zM572 770l-134 -144h-80l107 144h107zM450 0h-120v61c-30 -48 -76 -73 -122 -73c-108 0 -179 95 -179 253c0 155 70 254 179 254c46 0 92 -23 121 -73v61h121v-483zM246 94c33 0 68 25 84 57v180c-16 32 -51 57 -84 57
c-61 0 -93 -62 -93 -147c0 -84 32 -147 93 -147z" />
    <glyph glyph-name="uni1EAD.alt1" horiz-adv-x="504" 
d="M392 556h-70l-64 91l-61 -91h-70l77 144h108zM450 0h-120v61c-30 -48 -76 -73 -122 -73c-108 0 -179 95 -179 253c0 155 70 254 179 254c46 0 92 -23 121 -73v61h121v-483zM246 94c33 0 68 25 84 57v180c-16 32 -51 57 -84 57c-61 0 -93 -62 -93 -147
c0 -84 32 -147 93 -147zM260 -194c-35 0 -65 28 -65 64s30 65 65 65s64 -29 64 -65s-29 -64 -64 -64z" />
    <glyph glyph-name="uni1EA7.alt1" horiz-adv-x="504" 
d="M393 556h-70l-64 91l-61 -91h-70l77 144h108zM450 0h-120v61c-30 -48 -76 -73 -122 -73c-108 0 -179 95 -179 253c0 155 70 254 179 254c46 0 92 -23 121 -73v61h121v-483zM246 94c33 0 68 25 84 57v180c-16 32 -51 57 -84 57c-61 0 -93 -62 -93 -147
c0 -84 32 -147 93 -147zM156 626h-80l-134 144h107z" />
    <glyph glyph-name="uni1EA9.alt1" horiz-adv-x="504" 
d="M391 556h-70l-64 91l-61 -91h-70l77 144h108zM450 0h-120v61c-30 -48 -76 -73 -122 -73c-108 0 -179 95 -179 253c0 155 70 254 179 254c46 0 92 -23 121 -73v61h121v-483zM246 94c33 0 68 25 84 57v180c-16 32 -51 57 -84 57c-61 0 -93 -62 -93 -147
c0 -84 32 -147 93 -147zM325 724l-44 11c10 34 36 55 73 55c38 0 70 -21 70 -69c0 -22 -6 -38 -16 -54h-50c14 17 19 34 19 51c0 22 -11 31 -24 31c-14 0 -23 -10 -28 -25z" />
    <glyph glyph-name="uni1EAF.alt1" horiz-adv-x="504" 
d="M417 777l-134 -144h-80l107 144h107zM450 0h-120v61c-30 -48 -76 -73 -122 -73c-108 0 -179 95 -179 253c0 155 70 254 179 254c46 0 92 -23 121 -73v61h121v-483zM246 94c33 0 68 25 84 57v180c-16 32 -51 57 -84 57c-61 0 -93 -62 -93 -147c0 -84 32 -147 93 -147z
M407 593c-35 -46 -88 -75 -150 -75c-60 0 -115 29 -150 75l55 44c21 -30 55 -50 95 -50c39 0 74 19 95 50z" />
    <glyph glyph-name="uni1EAB.alt1" horiz-adv-x="504" 
d="M393 523h-70l-64 91l-61 -91h-70l77 144h108zM450 0h-120v61c-30 -48 -76 -73 -122 -73c-108 0 -179 95 -179 253c0 155 70 254 179 254c46 0 92 -23 121 -73v61h121v-483zM246 94c33 0 68 25 84 57v180c-16 32 -51 57 -84 57c-61 0 -93 -62 -93 -147
c0 -84 32 -147 93 -147zM307 682c-60 0 -70 71 -102 71c-17 0 -31 -20 -31 -65h-62c0 81 34 134 96 134c60 0 70 -71 103 -71c17 0 30 20 30 65h62c0 -81 -33 -134 -96 -134z" />
    <glyph glyph-name="uni1EB1.alt1" horiz-adv-x="504" 
d="M450 0h-120v61c-30 -48 -76 -73 -122 -73c-108 0 -179 95 -179 253c0 155 70 254 179 254c46 0 92 -23 121 -73v61h121v-483zM246 94c33 0 68 25 84 57v180c-16 32 -51 57 -84 57c-61 0 -93 -62 -93 -147c0 -84 32 -147 93 -147zM309 633h-80l-134 144h107zM408 594
c-35 -46 -88 -75 -150 -75c-60 0 -115 29 -150 75l55 44c21 -30 55 -50 95 -50c39 0 74 19 95 50z" />
    <glyph glyph-name="uni1EB3.alt1" horiz-adv-x="504" 
d="M450 0h-120v61c-30 -48 -76 -73 -122 -73c-108 0 -179 95 -179 253c0 155 70 254 179 254c46 0 92 -23 121 -73v61h121v-483zM246 94c33 0 68 25 84 57v180c-16 32 -51 57 -84 57c-61 0 -93 -62 -93 -147c0 -84 32 -147 93 -147zM230 691l-44 11c10 34 36 55 73 55
c38 0 70 -21 70 -69c0 -22 -6 -38 -16 -54h-50c14 17 19 34 19 51c0 22 -11 31 -24 31c-14 0 -23 -10 -28 -25zM408 594c-35 -46 -88 -75 -150 -75c-60 0 -115 29 -150 75l55 44c21 -30 55 -50 95 -50c39 0 74 19 95 50z" />
    <glyph glyph-name="uni1EB5.alt1" horiz-adv-x="504" 
d="M407 594c-35 -46 -88 -75 -150 -75c-60 0 -115 29 -150 75l55 44c21 -30 55 -50 95 -50c39 0 74 19 95 50zM450 0h-120v61c-30 -48 -76 -73 -122 -73c-108 0 -179 95 -179 253c0 155 70 254 179 254c46 0 92 -23 121 -73v61h121v-483zM246 94c33 0 68 25 84 57v180
c-16 32 -51 57 -84 57c-61 0 -93 -62 -93 -147c0 -84 32 -147 93 -147zM306 654c-60 0 -70 71 -102 71c-17 0 -31 -20 -31 -65h-62c0 81 34 134 96 134c60 0 70 -71 103 -71c17 0 30 20 30 65h62c0 -81 -33 -134 -96 -134z" />
    <glyph glyph-name="uni1EB7.alt1" horiz-adv-x="504" 
d="M450 0h-120v61c-30 -48 -76 -73 -122 -73c-108 0 -179 95 -179 253c0 155 70 254 179 254c46 0 92 -23 121 -73v61h121v-483zM246 94c33 0 68 25 84 57v180c-16 32 -51 57 -84 57c-61 0 -93 -62 -93 -147c0 -84 32 -147 93 -147zM262 -194c-35 0 -65 28 -65 64
s30 65 65 65s64 -29 64 -65s-29 -64 -64 -64zM410 613c-35 -46 -88 -75 -150 -75c-60 0 -115 29 -150 75l55 44c21 -30 55 -50 95 -50c39 0 74 19 95 50z" />
    <glyph glyph-name="ae.alt1" horiz-adv-x="778" 
d="M246 94c33 0 68 25 84 57v180c-16 32 -51 57 -84 57c-61 0 -93 -62 -93 -147c0 -84 32 -147 93 -147zM450 71v-71h-120v61c-30 -48 -76 -73 -122 -73c-108 0 -179 95 -179 253c0 155 70 254 179 254c46 0 92 -23 121 -73v61h121v-65c24 44 62 77 126 77
c114 0 176 -108 176 -258v-34h-302c5 -66 44 -116 117 -116c36 0 77 17 104 47l55 -77c-32 -41 -83 -69 -138 -69c-78 0 -117 42 -138 83zM637 285c-2 50 -24 114 -94 114c-66 0 -91 -64 -93 -114h187z" />
    <glyph glyph-name="aeacute.alt1" horiz-adv-x="778" 
d="M246 94c33 0 68 25 84 57v180c-16 32 -51 57 -84 57c-61 0 -93 -62 -93 -147c0 -84 32 -147 93 -147zM450 71v-71h-120v61c-30 -48 -76 -73 -122 -73c-108 0 -179 95 -179 253c0 155 70 254 179 254c46 0 92 -23 121 -73v61h121v-65c24 44 62 77 126 77
c114 0 176 -108 176 -258v-34h-302c5 -66 44 -116 117 -116c36 0 77 17 104 47l55 -77c-32 -41 -83 -69 -138 -69c-78 0 -117 42 -138 83zM637 285c-2 50 -24 114 -94 114c-66 0 -91 -64 -93 -114h187zM550 700l-134 -144h-80l107 144h107z" />
    <glyph glyph-name="uni1E03" unicode="&#x1e03;" horiz-adv-x="504" 
d="M174 151c16 -32 51 -57 84 -57c61 0 93 63 93 147c0 85 -32 148 -93 148c-33 0 -68 -26 -84 -58v-180zM174 0h-120v667h120v-245c29 50 76 73 122 73c109 0 179 -99 179 -254c0 -158 -71 -253 -179 -253c-46 0 -92 25 -122 73v-61zM259 712c-35 0 -65 28 -65 64
s30 65 65 65s64 -29 64 -65s-29 -64 -64 -64z" />
    <glyph glyph-name="cacute" unicode="&#x107;" horiz-adv-x="421" 
d="M410 700l-134 -144h-80l107 144h107zM250 -12c-133 0 -221 106 -221 254c0 147 88 253 221 253c76 0 126 -31 154 -65l-60 -83c-22 27 -48 42 -81 42c-69 0 -110 -63 -110 -147s41 -148 110 -148c33 0 59 15 81 42l60 -83c-28 -34 -78 -65 -154 -65z" />
    <glyph glyph-name="ccedilla" unicode="&#xe7;" horiz-adv-x="421" 
d="M251 -193c-41 0 -77 15 -98 32l23 48c23 -18 48 -28 72 -28c25 0 46 12 46 34c0 16 -9 26 -26 26c-12 0 -22 -5 -29 -13l-44 25l22 60c-114 15 -188 115 -188 251c0 147 88 253 221 253c76 0 126 -31 154 -65l-60 -83c-22 27 -48 42 -81 42c-69 0 -110 -63 -110 -147
s41 -148 110 -148c33 0 59 15 81 42l60 -83c-25 -30 -66 -57 -128 -63l-16 -40c9 7 19 10 32 10c35 0 63 -28 63 -69c0 -52 -46 -84 -104 -84z" />
    <glyph glyph-name="ccircumflex" unicode="&#x109;" horiz-adv-x="421" 
d="M385 556h-70l-64 91l-61 -91h-70l77 144h108zM250 -12c-133 0 -221 106 -221 254c0 147 88 253 221 253c76 0 126 -31 154 -65l-60 -83c-22 27 -48 42 -81 42c-69 0 -110 -63 -110 -147s41 -148 110 -148c33 0 59 15 81 42l60 -83c-28 -34 -78 -65 -154 -65z" />
    <glyph glyph-name="cdotaccent" unicode="&#x10b;" horiz-adv-x="421" 
d="M250 -12c-133 0 -221 106 -221 254c0 147 88 253 221 253c76 0 126 -31 154 -65l-60 -83c-22 27 -48 42 -81 42c-69 0 -110 -63 -110 -147s41 -148 110 -148c33 0 59 15 81 42l60 -83c-28 -34 -78 -65 -154 -65zM250 545c-35 0 -65 28 -65 64s30 65 65 65s64 -29 64 -65
s-29 -64 -64 -64z" />
    <glyph glyph-name="ccaron" unicode="&#x10d;" horiz-adv-x="421" 
d="M308 556h-108l-80 144h70l64 -91l61 91h70zM250 -12c-133 0 -221 106 -221 254c0 147 88 253 221 253c76 0 126 -31 154 -65l-60 -83c-22 27 -48 42 -81 42c-69 0 -110 -63 -110 -147s41 -148 110 -148c33 0 59 15 81 42l60 -83c-28 -34 -78 -65 -154 -65z" />
    <glyph glyph-name="dcaron" unicode="&#x10f;" horiz-adv-x="613" 
d="M618 600c0 -60 -33 -114 -81 -148l-42 34c27 16 57 51 62 80c-2 -1 -9 -2 -14 -2c-29 0 -52 22 -52 55s27 60 60 60c35 0 67 -29 67 -79zM450 0h-120v61c-30 -48 -76 -73 -122 -73c-108 0 -179 95 -179 253c0 155 70 254 179 254c46 0 92 -23 122 -73v245h120v-667z
M246 94c33 0 68 25 84 57v181c-16 32 -51 57 -84 57c-61 0 -93 -63 -93 -148c0 -84 32 -147 93 -147z" />
    <glyph glyph-name="dcroat" unicode="&#x111;" horiz-adv-x="511" 
d="M450 0h-120v61c-30 -48 -76 -73 -122 -73c-108 0 -179 95 -179 253c0 155 70 254 179 254c46 0 92 -23 122 -73v107h-132v69h132v69h120v-69h52v-69h-52v-529zM246 94c33 0 68 25 84 57v181c-16 32 -51 57 -84 57c-61 0 -93 -63 -93 -148c0 -84 32 -147 93 -147z" />
    <glyph glyph-name="uni1E0B" unicode="&#x1e0b;" horiz-adv-x="504" 
d="M450 0h-120v61c-30 -48 -76 -73 -122 -73c-108 0 -179 95 -179 253c0 155 70 254 179 254c46 0 92 -23 122 -73v245h120v-667zM246 94c33 0 68 25 84 57v181c-16 32 -51 57 -84 57c-61 0 -93 -63 -93 -148c0 -84 32 -147 93 -147zM247 712c-35 0 -65 28 -65 64
s30 65 65 65s64 -29 64 -65s-29 -64 -64 -64z" />
    <glyph glyph-name="eacute" unicode="&#xe9;" 
d="M405 700l-134 -144h-80l107 144h107zM254 -12c-136 0 -225 102 -225 254c0 140 82 253 216 253c133 0 208 -108 208 -258v-34h-303c5 -66 44 -118 117 -118c34 0 78 17 105 47l55 -72c-43 -47 -108 -72 -173 -72zM337 285c-2 50 -24 113 -94 113c-67 0 -91 -63 -93 -113
h187z" />
    <glyph glyph-name="ebreve" unicode="&#x115;" 
d="M254 -12c-136 0 -225 102 -225 254c0 140 82 253 216 253c133 0 208 -108 208 -258v-34h-303c5 -66 44 -118 117 -118c34 0 78 17 105 47l55 -72c-43 -47 -108 -72 -173 -72zM337 285c-2 50 -24 113 -94 113c-67 0 -91 -63 -93 -113h187zM396 613
c-35 -46 -88 -75 -150 -75c-60 0 -115 29 -150 75l55 44c21 -30 55 -50 95 -50c39 0 74 19 95 50z" />
    <glyph glyph-name="ecircumflex" unicode="&#xea;" 
d="M378 556h-70l-64 91l-61 -91h-70l77 144h108zM254 -12c-136 0 -225 102 -225 254c0 140 82 253 216 253c133 0 208 -108 208 -258v-34h-303c5 -66 44 -118 117 -118c34 0 78 17 105 47l55 -72c-43 -47 -108 -72 -173 -72zM337 285c-2 50 -24 113 -94 113
c-67 0 -91 -63 -93 -113h187z" />
    <glyph glyph-name="edieresis" unicode="&#xeb;" 
d="M404 610c0 -36 -30 -65 -66 -65c-35 0 -64 29 -64 65s29 64 64 64c36 0 66 -28 66 -64zM216 610c0 -36 -28 -65 -64 -65s-65 29 -65 65s29 64 65 64s64 -28 64 -64zM254 -12c-136 0 -225 102 -225 254c0 140 82 253 216 253c133 0 208 -108 208 -258v-34h-303
c5 -66 44 -118 117 -118c34 0 78 17 105 47l55 -72c-43 -47 -108 -72 -173 -72zM337 285c-2 50 -24 113 -94 113c-67 0 -91 -63 -93 -113h187z" />
    <glyph glyph-name="edotaccent" unicode="&#x117;" 
d="M254 -12c-136 0 -225 102 -225 254c0 140 82 253 216 253c133 0 208 -108 208 -258v-34h-303c5 -66 44 -118 117 -118c34 0 78 17 105 47l55 -72c-43 -47 -108 -72 -173 -72zM337 285c-2 50 -24 113 -94 113c-67 0 -91 -63 -93 -113h187zM246 545c-35 0 -65 28 -65 64
s30 65 65 65s64 -29 64 -65s-29 -64 -64 -64z" />
    <glyph glyph-name="egrave" unicode="&#xe8;" 
d="M254 -12c-136 0 -225 102 -225 254c0 140 82 253 216 253c133 0 208 -108 208 -258v-34h-303c5 -66 44 -118 117 -118c34 0 78 17 105 47l55 -72c-43 -47 -108 -72 -173 -72zM337 285c-2 50 -24 113 -94 113c-67 0 -91 -63 -93 -113h187zM299 556h-80l-134 144h107z" />
    <glyph glyph-name="emacron" unicode="&#x113;" 
d="M254 -12c-136 0 -225 102 -225 254c0 140 82 253 216 253c133 0 208 -108 208 -258v-34h-303c5 -66 44 -118 117 -118c34 0 78 17 105 47l55 -72c-43 -47 -108 -72 -173 -72zM337 285c-2 50 -24 113 -94 113c-67 0 -91 -63 -93 -113h187zM399 563h-311v69h311v-69z" />
    <glyph glyph-name="eogonek" unicode="&#x119;" 
d="M333 -103l49 -28c-15 -32 -42 -55 -85 -55c-50 0 -90 26 -90 86c0 32 11 62 34 88c-129 7 -212 107 -212 254c0 140 82 253 216 253c133 0 208 -108 208 -258v-34h-303c5 -66 44 -118 117 -118c34 0 78 17 105 47l55 -72c-26 -28 -59 -49 -96 -60
c-42 -25 -64 -58 -64 -95c0 -29 14 -40 31 -40c18 0 29 13 35 32zM337 285c-2 50 -24 113 -94 113c-67 0 -91 -63 -93 -113h187z" />
    <glyph glyph-name="ecaron" unicode="&#x11b;" 
d="M301 556h-108l-80 144h70l64 -91l61 91h70zM254 -12c-136 0 -225 102 -225 254c0 140 82 253 216 253c133 0 208 -108 208 -258v-34h-303c5 -66 44 -118 117 -118c34 0 78 17 105 47l55 -72c-43 -47 -108 -72 -173 -72zM337 285c-2 50 -24 113 -94 113
c-67 0 -91 -63 -93 -113h187z" />
    <glyph glyph-name="uni1EB9" unicode="&#x1eb9;" 
d="M254 -12c-136 0 -225 102 -225 254c0 140 82 253 216 253c133 0 208 -108 208 -258v-34h-303c5 -66 44 -118 117 -118c34 0 78 17 105 47l55 -72c-43 -47 -108 -72 -173 -72zM337 285c-2 50 -24 113 -94 113c-67 0 -91 -63 -93 -113h187zM246 -194c-35 0 -65 28 -65 64
s30 65 65 65s64 -29 64 -65s-29 -64 -64 -64z" />
    <glyph glyph-name="uni1EBB" unicode="&#x1ebb;" 
d="M254 -12c-136 0 -225 102 -225 254c0 140 82 253 216 253c133 0 208 -108 208 -258v-34h-303c5 -66 44 -118 117 -118c34 0 78 17 105 47l55 -72c-43 -47 -108 -72 -173 -72zM337 285c-2 50 -24 113 -94 113c-67 0 -91 -63 -93 -113h187zM215 584l-44 11
c10 34 36 55 73 55c38 0 70 -21 70 -69c0 -22 -6 -38 -16 -54h-50c14 17 19 34 19 51c0 22 -11 31 -24 31c-14 0 -23 -10 -28 -25z" />
    <glyph glyph-name="uni1EBD" unicode="&#x1ebd;" 
d="M254 -12c-136 0 -225 102 -225 254c0 140 82 253 216 253c133 0 208 -108 208 -258v-34h-303c5 -66 44 -118 117 -118c34 0 78 17 105 47l55 -72c-43 -47 -108 -72 -173 -72zM337 285c-2 50 -24 113 -94 113c-67 0 -91 -63 -93 -113h187zM293 554c-60 0 -70 71 -102 71
c-17 0 -31 -20 -31 -65h-62c0 81 34 134 96 134c60 0 70 -71 103 -71c17 0 30 20 30 65h62c0 -81 -33 -134 -96 -134z" />
    <glyph glyph-name="uni1EBF" unicode="&#x1ebf;" 
d="M378 556h-70l-64 91l-61 -91h-70l77 144h108zM558 770l-134 -144h-80l107 144h107zM254 -12c-136 0 -225 102 -225 254c0 140 82 253 216 253c133 0 208 -108 208 -258v-34h-303c5 -66 44 -118 117 -118c34 0 78 17 105 47l55 -72c-43 -47 -108 -72 -173 -72zM337 285
c-2 50 -24 113 -94 113c-67 0 -91 -63 -93 -113h187z" />
    <glyph glyph-name="uni1EC1" unicode="&#x1ec1;" 
d="M378 556h-70l-64 91l-61 -91h-70l77 144h108zM254 -12c-136 0 -225 102 -225 254c0 140 82 253 216 253c133 0 208 -108 208 -258v-34h-303c5 -66 44 -118 117 -118c34 0 78 17 105 47l55 -72c-43 -47 -108 -72 -173 -72zM337 285c-2 50 -24 113 -94 113
c-67 0 -91 -63 -93 -113h187zM141 626h-80l-134 144h107z" />
    <glyph glyph-name="uni1EC3" unicode="&#x1ec3;" 
d="M377 556h-70l-64 91l-61 -91h-70l77 144h108zM254 -12c-136 0 -225 102 -225 254c0 140 82 253 216 253c133 0 208 -108 208 -258v-34h-303c5 -66 44 -118 117 -118c34 0 78 17 105 47l55 -72c-43 -47 -108 -72 -173 -72zM337 285c-2 50 -24 113 -94 113
c-67 0 -91 -63 -93 -113h187zM311 724l-44 11c10 34 36 55 73 55c38 0 70 -21 70 -69c0 -22 -6 -38 -16 -54h-50c14 17 19 34 19 51c0 22 -11 31 -24 31c-14 0 -23 -10 -28 -25z" />
    <glyph glyph-name="uni1EC5" unicode="&#x1ec5;" 
d="M377 523h-70l-64 91l-61 -91h-70l77 144h108zM254 -12c-136 0 -225 102 -225 254c0 140 82 253 216 253c133 0 208 -108 208 -258v-34h-303c5 -66 44 -118 117 -118c34 0 78 17 105 47l55 -72c-43 -47 -108 -72 -173 -72zM337 285c-2 50 -24 113 -94 113
c-67 0 -91 -63 -93 -113h187zM293 682c-60 0 -70 71 -102 71c-17 0 -31 -20 -31 -65h-62c0 81 34 134 96 134c60 0 70 -71 103 -71c17 0 30 20 30 65h62c0 -81 -33 -134 -96 -134z" />
    <glyph glyph-name="uni1EC7" unicode="&#x1ec7;" 
d="M379 556h-70l-64 91l-61 -91h-70l77 144h108zM254 -12c-136 0 -225 102 -225 254c0 140 82 253 216 253c133 0 208 -108 208 -258v-34h-303c5 -66 44 -118 117 -118c34 0 78 17 105 47l55 -72c-43 -47 -108 -72 -173 -72zM337 285c-2 50 -24 113 -94 113
c-67 0 -91 -63 -93 -113h187zM246 -194c-35 0 -65 28 -65 64s30 65 65 65s64 -29 64 -65s-29 -64 -64 -64z" />
    <glyph glyph-name="fl.alt1" horiz-adv-x="554" 
d="M197 0h-121v378h-62v105h62v38c0 99 57 156 141 156c33 0 59 -6 80 -17l-22 -91c-7 6 -17 9 -30 9c-29 0 -48 -20 -48 -57v-38h79v-105h-79v-378zM465 -12c-84 0 -123 43 -123 128v551h120v-523c0 -31 12 -50 36 -50c15 0 28 6 35 14l25 -92c-18 -16 -49 -28 -93 -28z
" />
    <glyph glyph-name="f_f_l.alt1" horiz-adv-x="842" 
d="M485 0h-121v378h-62v105h62v38c0 99 57 156 141 156c33 0 59 -6 80 -17l-22 -91c-7 6 -17 9 -30 9c-29 0 -48 -20 -48 -57v-38h79v-105h-79v-378zM754 -12c-84 0 -123 43 -123 128v551h120v-523c0 -31 12 -50 36 -50c15 0 28 6 35 14l25 -92c-18 -16 -49 -28 -93 -28z
M197 0h-121v378h-62v105h62v38c0 98 56 156 146 156c40 0 80 -11 106 -36l-39 -81c-12 12 -24 18 -43 18c-31 0 -49 -21 -49 -57v-38h79v-105h-79v-378z" />
    <glyph glyph-name="uni1E1F" unicode="&#x1e1f;" horiz-adv-x="288" 
d="M222 712c-35 0 -65 28 -65 64s30 65 65 65s64 -29 64 -65s-29 -64 -64 -64zM197 0h-121v378h-62v105h62v38c0 98 56 156 146 156c40 0 80 -11 106 -36l-39 -81c-12 12 -24 18 -43 18c-31 0 -49 -21 -49 -57v-38h79v-105h-79v-378z" />
    <glyph glyph-name="gcircumflex" unicode="&#x11d;" horiz-adv-x="504" 
d="M388 556h-70l-64 91l-61 -91h-70l77 144h108zM227 -196c-71 0 -128 17 -178 62l48 92c33 -36 75 -53 124 -53c55 0 108 29 108 114v59c-30 -48 -75 -74 -122 -74c-107 0 -178 87 -178 245c0 155 70 246 178 246c47 0 93 -23 122 -73v61h120v-458
c0 -176 -115 -221 -222 -221zM246 110c33 0 68 25 83 56v166c-15 32 -50 57 -83 57c-61 0 -93 -56 -93 -140s32 -139 93 -139z" />
    <glyph glyph-name="gbreve" unicode="&#x11f;" horiz-adv-x="504" 
d="M227 -196c-71 0 -128 17 -178 62l48 92c33 -36 75 -53 124 -53c55 0 108 29 108 114v59c-30 -48 -75 -74 -122 -74c-107 0 -178 87 -178 245c0 155 70 246 178 246c47 0 93 -23 122 -73v61h120v-458c0 -176 -115 -221 -222 -221zM246 110c33 0 68 25 83 56v166
c-15 32 -50 57 -83 57c-61 0 -93 -56 -93 -140s32 -139 93 -139zM402 613c-35 -46 -88 -75 -150 -75c-60 0 -115 29 -150 75l55 44c21 -30 55 -50 95 -50c39 0 74 19 95 50z" />
    <glyph glyph-name="gdotaccent" unicode="&#x121;" horiz-adv-x="504" 
d="M227 -196c-71 0 -128 17 -178 62l48 92c33 -36 75 -53 124 -53c55 0 108 29 108 114v59c-30 -48 -75 -74 -122 -74c-107 0 -178 87 -178 245c0 155 70 246 178 246c47 0 93 -23 122 -73v61h120v-458c0 -176 -115 -221 -222 -221zM246 110c33 0 68 25 83 56v166
c-15 32 -50 57 -83 57c-61 0 -93 -56 -93 -140s32 -139 93 -139zM255 545c-35 0 -65 28 -65 64s30 65 65 65s64 -29 64 -65s-29 -64 -64 -64z" />
    <glyph glyph-name="gcommaaccent" unicode="&#x123;" horiz-adv-x="504" 
d="M190 611c0 63 29 120 78 154l42 -34c-25 -14 -57 -48 -61 -76c0 0 3 1 6 1c28 0 58 -25 58 -58c0 -32 -27 -60 -61 -60c-26 0 -62 17 -62 73zM227 -196c-71 0 -128 17 -178 62l48 92c33 -36 75 -53 124 -53c55 0 108 29 108 114v59c-30 -48 -75 -74 -122 -74
c-107 0 -178 87 -178 245c0 155 70 246 178 246c47 0 93 -23 122 -73v61h120v-458c0 -176 -115 -221 -222 -221zM246 110c33 0 68 25 83 56v166c-15 32 -50 57 -83 57c-61 0 -93 -56 -93 -140s32 -139 93 -139z" />
    <glyph glyph-name="hbar" unicode="&#x127;" horiz-adv-x="508" 
d="M316 529h-133v-109c25 38 79 75 141 75c90 0 130 -49 130 -130v-365h-120v320c0 50 -24 69 -64 69c-39 0 -71 -31 -87 -60v-329h-121v529h-50v69h50v69h121v-69h133v-69z" />
    <glyph glyph-name="hcircumflex" unicode="&#x125;" horiz-adv-x="500" 
d="M383 723h-70l-64 91l-61 -91h-70l77 144h108zM446 0h-120v320c0 50 -24 69 -64 69c-39 0 -71 -31 -87 -60v-329h-121v667h121v-247c25 38 79 75 141 75c90 0 130 -49 130 -130v-365z" />
    <glyph glyph-name="uni1E23" unicode="&#x1e23;" horiz-adv-x="500" 
d="M446 0h-120v320c0 50 -24 69 -64 69c-39 0 -71 -31 -87 -60v-329h-121v667h121v-247c25 38 79 75 141 75c90 0 130 -49 130 -130v-365zM250 712c-35 0 -65 28 -65 64s30 65 65 65s64 -29 64 -65s-29 -64 -64 -64z" />
    <glyph glyph-name="dotlessi" unicode="&#x131;" horiz-adv-x="228" 
d="M174 0h-120v483h120v-483z" />
    <glyph glyph-name="iacute" unicode="&#xed;" horiz-adv-x="228" 
d="M275 700l-134 -144h-80l107 144h107zM174 0h-120v483h120v-483z" />
    <glyph glyph-name="ibreve" unicode="&#x12d;" horiz-adv-x="228" 
d="M174 0h-120v483h120v-483zM265 613c-35 -46 -88 -75 -150 -75c-60 0 -115 29 -150 75l55 44c21 -30 55 -50 95 -50c39 0 74 19 95 50z" />
    <glyph glyph-name="icircumflex" unicode="&#xee;" horiz-adv-x="228" 
d="M247 556h-70l-64 91l-61 -91h-70l77 144h108zM174 0h-120v483h120v-483z" />
    <glyph glyph-name="idieresis" unicode="&#xef;" horiz-adv-x="228" 
d="M273 610c0 -36 -30 -65 -66 -65c-35 0 -64 29 -64 65s29 64 64 64c36 0 66 -28 66 -64zM85 610c0 -36 -28 -65 -64 -65s-65 29 -65 65s29 64 65 64s64 -28 64 -64zM174 0h-120v483h120v-483z" />
    <glyph glyph-name="igrave" unicode="&#xec;" horiz-adv-x="228" 
d="M174 0h-120v483h120v-483zM168 556h-80l-134 144h107z" />
    <glyph glyph-name="imacron" unicode="&#x12b;" horiz-adv-x="228" 
d="M174 0h-120v483h120v-483zM270 563h-311v69h311v-69z" />
    <glyph glyph-name="iogonek" unicode="&#x12f;" horiz-adv-x="228" 
d="M176 -103l49 -28c-15 -32 -42 -55 -85 -55c-50 0 -90 26 -90 86c0 37 15 71 45 100h-41v483h120v-483c-42 -25 -64 -58 -64 -95c0 -29 14 -40 31 -40c18 0 29 13 35 32zM114 537c-39 0 -72 32 -72 72s33 73 72 73c40 0 72 -33 72 -73s-32 -72 -72 -72z" />
    <glyph glyph-name="itilde" unicode="&#x129;" horiz-adv-x="228" 
d="M174 0h-120v483h120v-483zM164 554c-60 0 -70 71 -102 71c-17 0 -31 -20 -31 -65h-62c0 81 34 134 96 134c60 0 70 -71 103 -71c17 0 30 20 30 65h62c0 -81 -33 -134 -96 -134z" />
    <glyph glyph-name="uni1EC9" unicode="&#x1ec9;" horiz-adv-x="228" 
d="M174 0h-120v483h120v-483zM86 584l-44 11c10 34 36 55 73 55c38 0 70 -21 70 -69c0 -22 -6 -38 -16 -54h-50c14 17 19 34 19 51c0 22 -11 31 -24 31c-14 0 -23 -10 -28 -25z" />
    <glyph glyph-name="uni1ECB" unicode="&#x1ecb;" horiz-adv-x="228" 
d="M114 537c-39 0 -72 32 -72 72s33 73 72 73c40 0 72 -33 72 -73s-32 -72 -72 -72zM174 0h-120v483h120v-483zM116 -194c-35 0 -65 28 -65 64s30 65 65 65s64 -29 64 -65s-29 -64 -64 -64z" />
    <glyph glyph-name="ij" unicode="&#x133;" horiz-adv-x="457" 
d="M114 537c-39 0 -72 32 -72 72s33 73 72 73c40 0 72 -33 72 -73s-32 -72 -72 -72zM174 0h-120v483h120v-483zM342 537c-39 0 -72 32 -72 72s33 73 72 73c40 0 72 -33 72 -73s-32 -72 -72 -72zM250 -196c-44 0 -67 9 -92 29l30 91c12 -12 25 -19 45 -19c29 0 49 20 49 67
v511h120v-511c0 -106 -48 -168 -152 -168z" />
    <glyph glyph-name="uni0237" unicode="&#x237;" horiz-adv-x="228" 
d="M20 -196c-43 0 -66 9 -90 29l30 94c12 -12 25 -19 45 -19c29 0 49 20 49 64v511h120v-511c0 -106 -47 -168 -154 -168z" />
    <glyph glyph-name="jcircumflex" unicode="&#x135;" horiz-adv-x="228" 
d="M249 556h-70l-64 91l-61 -91h-70l77 144h108zM20 -196c-43 0 -66 9 -90 29l30 94c12 -12 25 -19 45 -19c29 0 49 20 49 64v511h120v-511c0 -106 -47 -168 -154 -168z" />
    <glyph glyph-name="kcommaaccent" unicode="&#x137;" horiz-adv-x="469" 
d="M304 -138c0 -60 -33 -114 -81 -148l-42 34c27 16 57 51 62 80c-2 -1 -9 -2 -14 -2c-29 0 -52 22 -52 55s27 60 60 60c35 0 67 -29 67 -79zM466 0h-141l-100 189l-51 -71v-118h-120v667h120v-403l147 219h140l-153 -217z" />
    <glyph glyph-name="kgreenlandic" unicode="&#x138;" horiz-adv-x="469" 
d="M466 0h-141l-100 189l-51 -71v-118h-120v483h120v-219l147 219h140l-153 -217z" />
    <glyph glyph-name="lacute" unicode="&#x13a;" horiz-adv-x="228" 
d="M275 867l-134 -144h-80l107 144h107zM174 0h-120v667h120v-667z" />
    <glyph glyph-name="lcommaaccent" unicode="&#x13c;" horiz-adv-x="228" 
d="M183 -138c0 -60 -33 -114 -81 -148l-42 34c27 16 57 51 62 80c-2 -1 -9 -2 -14 -2c-29 0 -52 22 -52 55s27 60 60 60c35 0 67 -29 67 -79zM174 0h-120v667h120v-667z" />
    <glyph glyph-name="lcaron" unicode="&#x13e;" horiz-adv-x="335" 
d="M353 601c0 -60 -33 -114 -81 -148l-42 34c27 16 57 51 62 80c-2 -1 -9 -2 -14 -2c-29 0 -52 22 -52 55s27 60 60 60c35 0 67 -29 67 -79zM174 0h-120v667h120v-667z" />
    <glyph glyph-name="ldot" unicode="&#x140;" horiz-adv-x="371" 
d="M174 0h-120v667h120v-667zM376 244c0 -41 -35 -77 -77 -77s-77 36 -77 77c0 42 35 78 77 78s77 -36 77 -78z" />
    <glyph glyph-name="lslash" unicode="&#x142;" horiz-adv-x="275" 
d="M12 219v89l65 37v322h120v-253l65 37v-88l-65 -38v-325h-120v256z" />
    <glyph glyph-name="lacute.alt1" horiz-adv-x="265" 
d="M275 867l-134 -144h-80l107 144h107zM177 -12c-84 0 -123 43 -123 128v551h120v-523c0 -31 12 -50 36 -50c15 0 28 6 35 14l25 -92c-18 -16 -49 -28 -93 -28z" />
    <glyph glyph-name="lcommaaccent.alt1" horiz-adv-x="265" 
d="M190 -138c0 -60 -33 -114 -81 -148l-42 34c27 16 57 51 62 80c-2 -1 -9 -2 -14 -2c-29 0 -52 22 -52 55s27 60 60 60c35 0 67 -29 67 -79zM177 -12c-84 0 -123 43 -123 128v551h120v-523c0 -31 12 -50 36 -50c15 0 28 6 35 14l25 -92c-18 -16 -49 -28 -93 -28z" />
    <glyph glyph-name="lcaron.alt1" horiz-adv-x="335" 
d="M353 601c0 -60 -33 -114 -81 -148l-42 34c27 16 57 51 62 80c-2 -1 -9 -2 -14 -2c-29 0 -52 22 -52 55s27 60 60 60c35 0 67 -29 67 -79zM177 -12c-84 0 -123 43 -123 128v551h120v-523c0 -31 12 -50 36 -50c15 0 28 6 35 14l25 -92c-18 -16 -49 -28 -93 -28z" />
    <glyph glyph-name="ldot.alt1" horiz-adv-x="371" 
d="M177 -12c-84 0 -123 43 -123 128v551h120v-523c0 -31 12 -50 36 -50c15 0 28 6 35 14l25 -92c-18 -16 -49 -28 -93 -28zM376 244c0 -41 -35 -77 -77 -77s-77 36 -77 77c0 42 35 78 77 78s77 -36 77 -78z" />
    <glyph glyph-name="lslash.alt1" horiz-adv-x="290" 
d="M12 219v89l65 37v322h120v-253l65 37v-88l-65 -38v-181c0 -31 12 -50 36 -50c15 0 28 6 35 14l25 -92c-18 -16 -49 -28 -93 -28c-84 0 -123 43 -123 128v140z" />
    <glyph glyph-name="nacute" unicode="&#x144;" horiz-adv-x="500" 
d="M410 700l-134 -144h-80l107 144h107zM445 0h-120v318c0 51 -23 71 -63 71s-71 -31 -88 -60v-329h-120v483h120v-63c26 38 80 75 142 75c89 0 129 -51 129 -132v-363z" />
    <glyph glyph-name="napostrophe" unicode="&#x149;" horiz-adv-x="500" 
d="M165 682c0 -60 -33 -114 -81 -148l-42 34c27 16 57 51 62 80c-2 -1 -9 -2 -14 -2c-29 0 -52 22 -52 55s27 60 60 60c35 0 67 -29 67 -79zM445 0h-120v318c0 51 -23 71 -63 71s-71 -31 -88 -60v-329h-120v483h120v-63c26 38 80 75 142 75c89 0 129 -51 129 -132v-363z" />
    <glyph glyph-name="ncaron" unicode="&#x148;" horiz-adv-x="500" 
d="M305 556h-108l-80 144h70l64 -91l61 91h70zM445 0h-120v318c0 51 -23 71 -63 71s-71 -31 -88 -60v-329h-120v483h120v-63c26 38 80 75 142 75c89 0 129 -51 129 -132v-363z" />
    <glyph glyph-name="ncommaaccent" unicode="&#x146;" horiz-adv-x="500" 
d="M317 -138c0 -60 -33 -114 -81 -148l-42 34c27 16 57 51 62 80c-2 -1 -9 -2 -14 -2c-29 0 -52 22 -52 55s27 60 60 60c35 0 67 -29 67 -79zM445 0h-120v318c0 51 -23 71 -63 71s-71 -31 -88 -60v-329h-120v483h120v-63c26 38 80 75 142 75c89 0 129 -51 129 -132v-363z
" />
    <glyph glyph-name="ntilde" unicode="&#xf1;" horiz-adv-x="500" 
d="M445 0h-120v318c0 51 -23 71 -63 71s-71 -31 -88 -60v-329h-120v483h120v-63c26 38 80 75 142 75c89 0 129 -51 129 -132v-363zM300 554c-60 0 -70 71 -102 71c-17 0 -31 -20 -31 -65h-62c0 81 34 134 96 134c60 0 70 -71 103 -71c17 0 30 20 30 65h62
c0 -81 -33 -134 -96 -134z" />
    <glyph glyph-name="eng" unicode="&#x14b;" horiz-adv-x="500" 
d="M445 363v-391c0 -106 -47 -168 -154 -168c-42 0 -65 9 -90 29l30 96c12 -12 25 -19 45 -19c30 0 49 20 49 62v346c0 51 -23 71 -63 71s-71 -31 -88 -60v-329h-120v483h120v-63c26 38 80 75 142 75c89 0 129 -51 129 -132z" />
    <glyph glyph-name="oacute" unicode="&#xf3;" horiz-adv-x="495" 
d="M408 700l-134 -144h-80l107 144h107zM247 -12c-142 0 -218 118 -218 254c0 135 76 253 218 253c144 0 219 -118 219 -253c0 -136 -75 -254 -219 -254zM247 94c66 0 95 68 95 148c0 79 -29 147 -95 147c-64 0 -93 -68 -93 -147c0 -80 29 -148 93 -148z" />
    <glyph glyph-name="obreve" unicode="&#x14f;" horiz-adv-x="495" 
d="M247 -12c-142 0 -218 118 -218 254c0 135 76 253 218 253c144 0 219 -118 219 -253c0 -136 -75 -254 -219 -254zM247 94c66 0 95 68 95 148c0 79 -29 147 -95 147c-64 0 -93 -68 -93 -147c0 -80 29 -148 93 -148zM398 613c-35 -46 -88 -75 -150 -75
c-60 0 -115 29 -150 75l55 44c21 -30 55 -50 95 -50c39 0 74 19 95 50z" />
    <glyph glyph-name="ocircumflex" unicode="&#xf4;" horiz-adv-x="495" 
d="M381 556h-70l-64 91l-61 -91h-70l77 144h108zM247 -12c-142 0 -218 118 -218 254c0 135 76 253 218 253c144 0 219 -118 219 -253c0 -136 -75 -254 -219 -254zM247 94c66 0 95 68 95 148c0 79 -29 147 -95 147c-64 0 -93 -68 -93 -147c0 -80 29 -148 93 -148z" />
    <glyph glyph-name="odieresis" unicode="&#xf6;" horiz-adv-x="495" 
d="M407 610c0 -36 -30 -65 -66 -65c-35 0 -64 29 -64 65s29 64 64 64c36 0 66 -28 66 -64zM219 610c0 -36 -28 -65 -64 -65s-65 29 -65 65s29 64 65 64s64 -28 64 -64zM247 -12c-142 0 -218 118 -218 254c0 135 76 253 218 253c144 0 219 -118 219 -253
c0 -136 -75 -254 -219 -254zM247 94c66 0 95 68 95 148c0 79 -29 147 -95 147c-64 0 -93 -68 -93 -147c0 -80 29 -148 93 -148z" />
    <glyph glyph-name="ograve" unicode="&#xf2;" horiz-adv-x="495" 
d="M247 -12c-142 0 -218 118 -218 254c0 135 76 253 218 253c144 0 219 -118 219 -253c0 -136 -75 -254 -219 -254zM247 94c66 0 95 68 95 148c0 79 -29 147 -95 147c-64 0 -93 -68 -93 -147c0 -80 29 -148 93 -148zM302 556h-80l-134 144h107z" />
    <glyph glyph-name="ohungarumlaut" unicode="&#x151;" horiz-adv-x="495" 
d="M298 700l-98 -144h-66l70 144h94zM437 700l-98 -144h-66l70 144h94zM247 -12c-142 0 -218 118 -218 254c0 135 76 253 218 253c144 0 219 -118 219 -253c0 -136 -75 -254 -219 -254zM247 94c66 0 95 68 95 148c0 79 -29 147 -95 147c-64 0 -93 -68 -93 -147
c0 -80 29 -148 93 -148z" />
    <glyph glyph-name="omacron" unicode="&#x14d;" horiz-adv-x="495" 
d="M404 563h-311v69h311v-69zM247 -12c-142 0 -218 118 -218 254c0 135 76 253 218 253c144 0 219 -118 219 -253c0 -136 -75 -254 -219 -254zM247 94c66 0 95 68 95 148c0 79 -29 147 -95 147c-64 0 -93 -68 -93 -147c0 -80 29 -148 93 -148z" />
    <glyph glyph-name="oslash" unicode="&#xf8;" horiz-adv-x="495" 
d="M108 0h-71l47 65c-36 47 -55 109 -55 177c0 135 76 253 218 253c48 0 88 -13 121 -36l17 24h72l-47 -64c37 -47 56 -110 56 -177c0 -136 -75 -254 -219 -254c-48 0 -89 13 -121 36zM247 94c66 0 95 68 95 148c0 25 -3 48 -9 69l-141 -195c14 -14 32 -22 55 -22zM154 242
c0 -25 2 -48 8 -68l140 193c-14 14 -33 22 -55 22c-64 0 -93 -68 -93 -147z" />
    <glyph glyph-name="oslashacute" unicode="&#x1ff;" horiz-adv-x="495" 
d="M408 700l-134 -144h-80l107 144h107zM108 0h-71l47 65c-36 47 -55 109 -55 177c0 135 76 253 218 253c48 0 88 -13 121 -36l17 24h72l-47 -64c37 -47 56 -110 56 -177c0 -136 -75 -254 -219 -254c-48 0 -89 13 -121 36zM247 94c66 0 95 68 95 148c0 25 -3 48 -9 69
l-141 -195c14 -14 32 -22 55 -22zM154 242c0 -25 2 -48 8 -68l140 193c-14 14 -33 22 -55 22c-64 0 -93 -68 -93 -147z" />
    <glyph glyph-name="otilde" unicode="&#xf5;" horiz-adv-x="495" 
d="M247 -12c-142 0 -218 118 -218 254c0 135 76 253 218 253c144 0 219 -118 219 -253c0 -136 -75 -254 -219 -254zM247 94c66 0 95 68 95 148c0 79 -29 147 -95 147c-64 0 -93 -68 -93 -147c0 -80 29 -148 93 -148zM297 554c-60 0 -70 71 -102 71c-17 0 -31 -20 -31 -65
h-62c0 81 34 134 96 134c60 0 70 -71 103 -71c17 0 30 20 30 65h62c0 -81 -33 -134 -96 -134z" />
    <glyph glyph-name="uni1ECD" unicode="&#x1ecd;" horiz-adv-x="495" 
d="M247 -12c-142 0 -218 118 -218 254c0 135 76 253 218 253c144 0 219 -118 219 -253c0 -136 -75 -254 -219 -254zM247 94c66 0 95 68 95 148c0 79 -29 147 -95 147c-64 0 -93 -68 -93 -147c0 -80 29 -148 93 -148zM248 -194c-35 0 -65 28 -65 64s30 65 65 65
s64 -29 64 -65s-29 -64 -64 -64z" />
    <glyph glyph-name="uni1ECF" unicode="&#x1ecf;" horiz-adv-x="495" 
d="M247 -12c-142 0 -218 118 -218 254c0 135 76 253 218 253c144 0 219 -118 219 -253c0 -136 -75 -254 -219 -254zM247 94c66 0 95 68 95 148c0 79 -29 147 -95 147c-64 0 -93 -68 -93 -147c0 -80 29 -148 93 -148zM221 584l-44 11c10 34 36 55 73 55c38 0 70 -21 70 -69
c0 -22 -6 -38 -16 -54h-50c14 17 19 34 19 51c0 22 -11 31 -24 31c-14 0 -23 -10 -28 -25z" />
    <glyph glyph-name="uni1ED1" unicode="&#x1ed1;" horiz-adv-x="495" 
d="M380 556h-70l-64 91l-61 -91h-70l77 144h108zM561 770l-134 -144h-80l107 144h107zM247 -12c-142 0 -218 118 -218 254c0 135 76 253 218 253c144 0 219 -118 219 -253c0 -136 -75 -254 -219 -254zM247 94c66 0 95 68 95 148c0 79 -29 147 -95 147
c-64 0 -93 -68 -93 -147c0 -80 29 -148 93 -148z" />
    <glyph glyph-name="uni1ED3" unicode="&#x1ed3;" horiz-adv-x="495" 
d="M380 556h-70l-64 91l-61 -91h-70l77 144h108zM247 -12c-142 0 -218 118 -218 254c0 135 76 253 218 253c144 0 219 -118 219 -253c0 -136 -75 -254 -219 -254zM247 94c66 0 95 68 95 148c0 79 -29 147 -95 147c-64 0 -93 -68 -93 -147c0 -80 29 -148 93 -148zM144 626
h-80l-134 144h107z" />
    <glyph glyph-name="uni1ED5" unicode="&#x1ed5;" horiz-adv-x="495" 
d="M380 556h-70l-64 91l-61 -91h-70l77 144h108zM247 -12c-142 0 -218 118 -218 254c0 135 76 253 218 253c144 0 219 -118 219 -253c0 -136 -75 -254 -219 -254zM247 94c66 0 95 68 95 148c0 79 -29 147 -95 147c-64 0 -93 -68 -93 -147c0 -80 29 -148 93 -148zM314 724
l-44 11c10 34 36 55 73 55c38 0 70 -21 70 -69c0 -22 -6 -38 -16 -54h-50c14 17 19 34 19 51c0 22 -11 31 -24 31c-14 0 -23 -10 -28 -25z" />
    <glyph glyph-name="uni1ED7" unicode="&#x1ed7;" horiz-adv-x="495" 
d="M380 523h-70l-64 91l-61 -91h-70l77 144h108zM247 -12c-142 0 -218 118 -218 254c0 135 76 253 218 253c144 0 219 -118 219 -253c0 -136 -75 -254 -219 -254zM247 94c66 0 95 68 95 148c0 79 -29 147 -95 147c-64 0 -93 -68 -93 -147c0 -80 29 -148 93 -148zM297 682
c-60 0 -70 71 -102 71c-17 0 -31 -20 -31 -65h-62c0 81 34 134 96 134c60 0 70 -71 103 -71c17 0 30 20 30 65h62c0 -81 -33 -134 -96 -134z" />
    <glyph glyph-name="uni1ED9" unicode="&#x1ed9;" horiz-adv-x="495" 
d="M381 556h-70l-64 91l-61 -91h-70l77 144h108zM247 -12c-142 0 -218 118 -218 254c0 135 76 253 218 253c144 0 219 -118 219 -253c0 -136 -75 -254 -219 -254zM247 94c66 0 95 68 95 148c0 79 -29 147 -95 147c-64 0 -93 -68 -93 -147c0 -80 29 -148 93 -148zM248 -194
c-35 0 -65 28 -65 64s30 65 65 65s64 -29 64 -65s-29 -64 -64 -64z" />
    <glyph glyph-name="ohorn" unicode="&#x1a1;" horiz-adv-x="495" 
d="M480 532c0 -49 -25 -94 -61 -125c31 -45 47 -103 47 -165c0 -136 -75 -254 -219 -254c-142 0 -218 118 -218 254c0 135 76 253 218 253c59 0 106 -20 141 -52c18 16 33 39 38 59c-2 -1 -9 -2 -14 -2c-26 0 -47 20 -47 50s24 54 54 54c32 0 61 -27 61 -72zM247 94
c66 0 95 68 95 148c0 79 -29 147 -95 147c-64 0 -93 -68 -93 -147c0 -80 29 -148 93 -148z" />
    <glyph glyph-name="uni1EDB" unicode="&#x1edb;" horiz-adv-x="495" 
d="M408 700l-134 -144h-80l107 144h107zM480 532c0 -49 -25 -94 -61 -125c31 -45 47 -103 47 -165c0 -136 -75 -254 -219 -254c-142 0 -218 118 -218 254c0 135 76 253 218 253c59 0 106 -20 141 -52c18 16 33 39 38 59c-2 -1 -9 -2 -14 -2c-26 0 -47 20 -47 50s24 54 54 54
c32 0 61 -27 61 -72zM247 94c66 0 95 68 95 148c0 79 -29 147 -95 147c-64 0 -93 -68 -93 -147c0 -80 29 -148 93 -148z" />
    <glyph glyph-name="uni1EDD" unicode="&#x1edd;" horiz-adv-x="495" 
d="M480 532c0 -49 -25 -94 -61 -125c31 -45 47 -103 47 -165c0 -136 -75 -254 -219 -254c-142 0 -218 118 -218 254c0 135 76 253 218 253c59 0 106 -20 141 -52c18 16 33 39 38 59c-2 -1 -9 -2 -14 -2c-26 0 -47 20 -47 50s24 54 54 54c32 0 61 -27 61 -72zM247 94
c66 0 95 68 95 148c0 79 -29 147 -95 147c-64 0 -93 -68 -93 -147c0 -80 29 -148 93 -148zM302 556h-80l-134 144h107z" />
    <glyph glyph-name="uni1EDF" unicode="&#x1edf;" horiz-adv-x="495" 
d="M480 532c0 -49 -25 -94 -61 -125c31 -45 47 -103 47 -165c0 -136 -75 -254 -219 -254c-142 0 -218 118 -218 254c0 135 76 253 218 253c59 0 106 -20 141 -52c18 16 33 39 38 59c-2 -1 -9 -2 -14 -2c-26 0 -47 20 -47 50s24 54 54 54c32 0 61 -27 61 -72zM247 94
c66 0 95 68 95 148c0 79 -29 147 -95 147c-64 0 -93 -68 -93 -147c0 -80 29 -148 93 -148zM220 584l-44 11c10 34 36 55 73 55c38 0 70 -21 70 -69c0 -22 -6 -38 -16 -54h-50c14 17 19 34 19 51c0 22 -11 31 -24 31c-14 0 -23 -10 -28 -25z" />
    <glyph glyph-name="uni1EE1" unicode="&#x1ee1;" horiz-adv-x="495" 
d="M480 532c0 -49 -25 -94 -61 -125c31 -45 47 -103 47 -165c0 -136 -75 -254 -219 -254c-142 0 -218 118 -218 254c0 135 76 253 218 253c59 0 106 -20 141 -52c18 16 33 39 38 59c-2 -1 -9 -2 -14 -2c-26 0 -47 20 -47 50s24 54 54 54c32 0 61 -27 61 -72zM247 94
c66 0 95 68 95 148c0 79 -29 147 -95 147c-64 0 -93 -68 -93 -147c0 -80 29 -148 93 -148zM284 554c-60 0 -70 71 -102 71c-17 0 -31 -20 -31 -65h-62c0 81 34 134 96 134c60 0 70 -71 103 -71c17 0 30 20 30 65h62c0 -81 -33 -134 -96 -134z" />
    <glyph glyph-name="uni1EE3" unicode="&#x1ee3;" horiz-adv-x="495" 
d="M480 532c0 -49 -25 -94 -61 -125c31 -45 47 -103 47 -165c0 -136 -75 -254 -219 -254c-142 0 -218 118 -218 254c0 135 76 253 218 253c59 0 106 -20 141 -52c18 16 33 39 38 59c-2 -1 -9 -2 -14 -2c-26 0 -47 20 -47 50s24 54 54 54c32 0 61 -27 61 -72zM247 94
c66 0 95 68 95 148c0 79 -29 147 -95 147c-64 0 -93 -68 -93 -147c0 -80 29 -148 93 -148zM249 -194c-35 0 -65 28 -65 64s30 65 65 65s64 -29 64 -65s-29 -64 -64 -64z" />
    <glyph glyph-name="oe" unicode="&#x153;" horiz-adv-x="791" 
d="M765 203h-302c6 -66 44 -118 117 -118c37 0 77 17 104 47l56 -72c-43 -47 -108 -72 -173 -72c-86 0 -132 46 -163 98c-30 -52 -77 -98 -157 -98c-142 0 -218 118 -218 254c0 135 76 253 218 253c80 0 127 -46 157 -97c29 52 77 97 154 97c133 0 207 -110 207 -259v-33z
M463 285h187c-2 50 -25 114 -94 114c-67 0 -91 -65 -93 -114zM342 242c0 82 -31 147 -95 147c-62 0 -93 -65 -93 -147c0 -83 31 -148 93 -148c64 0 95 65 95 148z" />
    <glyph glyph-name="uni1E57" unicode="&#x1e57;" horiz-adv-x="503" 
d="M296 -12c-46 0 -92 23 -122 73v-245h-120v667h120v-61c30 48 75 73 122 73c109 0 179 -95 179 -253c0 -157 -70 -254 -179 -254zM257 94c62 0 94 63 94 148c0 84 -32 147 -94 147c-32 0 -67 -24 -83 -56v-182c16 -31 51 -57 83 -57zM259 545c-35 0 -65 28 -65 64
s30 65 65 65s64 -29 64 -65s-29 -64 -64 -64z" />
    <glyph glyph-name="racute" unicode="&#x155;" horiz-adv-x="320" 
d="M340 700l-134 -144h-80l107 144h107zM174 0h-120v483h120v-66c27 43 80 78 132 78v-118c-8 2 -18 3 -29 3c-38 0 -83 -25 -103 -58v-322z" />
    <glyph glyph-name="rcaron" unicode="&#x159;" horiz-adv-x="320" 
d="M234 556h-108l-80 144h70l64 -91l61 91h70zM174 0h-120v483h120v-66c27 43 80 78 132 78v-118c-8 2 -18 3 -29 3c-38 0 -83 -25 -103 -58v-322z" />
    <glyph glyph-name="rcommaaccent" unicode="&#x157;" horiz-adv-x="320" 
d="M228 -138c0 -60 -33 -114 -81 -148l-42 34c27 16 57 51 62 80c-2 -1 -9 -2 -14 -2c-29 0 -52 22 -52 55s27 60 60 60c35 0 67 -29 67 -79zM174 0h-120v483h120v-66c27 43 80 78 132 78v-118c-8 2 -18 3 -29 3c-38 0 -83 -25 -103 -58v-322z" />
    <glyph glyph-name="sacute" unicode="&#x15b;" horiz-adv-x="412" 
d="M367 700l-134 -144h-80l107 144h107zM203 -12c-78 0 -145 26 -186 69l51 84c30 -32 84 -59 133 -59c46 0 71 21 71 51c0 80 -239 38 -239 217c0 78 63 145 176 145c69 0 126 -25 168 -62l-48 -81c-24 27 -69 50 -118 50c-38 0 -64 -20 -64 -46c0 -73 240 -37 240 -218
c0 -87 -71 -150 -184 -150z" />
    <glyph glyph-name="scaron" unicode="&#x161;" horiz-adv-x="412" 
d="M263 556h-108l-80 144h70l64 -91l61 91h70zM203 -12c-78 0 -145 26 -186 69l51 84c30 -32 84 -59 133 -59c46 0 71 21 71 51c0 80 -239 38 -239 217c0 78 63 145 176 145c69 0 126 -25 168 -62l-48 -81c-24 27 -69 50 -118 50c-38 0 -64 -20 -64 -46
c0 -73 240 -37 240 -218c0 -87 -71 -150 -184 -150z" />
    <glyph glyph-name="scircumflex" unicode="&#x15d;" horiz-adv-x="412" 
d="M340 556h-70l-64 91l-61 -91h-70l77 144h108zM203 -12c-78 0 -145 26 -186 69l51 84c30 -32 84 -59 133 -59c46 0 71 21 71 51c0 80 -239 38 -239 217c0 78 63 145 176 145c69 0 126 -25 168 -62l-48 -81c-24 27 -69 50 -118 50c-38 0 -64 -20 -64 -46
c0 -73 240 -37 240 -218c0 -87 -71 -150 -184 -150z" />
    <glyph glyph-name="scedilla" unicode="&#x15f;" horiz-adv-x="412" 
d="M199 -195c-41 0 -77 15 -98 32l23 48c23 -18 48 -28 72 -28c25 0 46 12 46 34c0 16 -9 26 -26 26c-12 0 -22 -5 -29 -13l-44 25l23 61c-62 7 -115 31 -149 67l51 84c30 -32 84 -59 133 -59c46 0 71 21 71 51c0 80 -239 38 -239 217c0 78 63 145 176 145
c69 0 126 -25 168 -62l-48 -81c-24 27 -69 50 -118 50c-38 0 -64 -20 -64 -46c0 -73 240 -37 240 -218c0 -81 -62 -141 -162 -149l-17 -41c9 7 19 10 32 10c35 0 63 -28 63 -69c0 -52 -46 -84 -104 -84z" />
    <glyph glyph-name="scommaaccent" unicode="&#x219;" horiz-adv-x="412" 
d="M277 -138c0 -60 -33 -114 -81 -148l-42 34c27 16 57 51 62 80c-2 -1 -9 -2 -14 -2c-29 0 -52 22 -52 55s27 60 60 60c35 0 67 -29 67 -79zM203 -12c-78 0 -145 26 -186 69l51 84c30 -32 84 -59 133 -59c46 0 71 21 71 51c0 80 -239 38 -239 217c0 78 63 145 176 145
c69 0 126 -25 168 -62l-48 -81c-24 27 -69 50 -118 50c-38 0 -64 -20 -64 -46c0 -73 240 -37 240 -218c0 -87 -71 -150 -184 -150z" />
    <glyph glyph-name="uni1E61" unicode="&#x1e61;" horiz-adv-x="412" 
d="M203 -12c-78 0 -145 26 -186 69l51 84c30 -32 84 -59 133 -59c46 0 71 21 71 51c0 80 -239 38 -239 217c0 78 63 145 176 145c69 0 126 -25 168 -62l-48 -81c-24 27 -69 50 -118 50c-38 0 -64 -20 -64 -46c0 -73 240 -37 240 -218c0 -87 -71 -150 -184 -150zM206 545
c-35 0 -65 28 -65 64s30 65 65 65s64 -29 64 -65s-29 -64 -64 -64z" />
    <glyph glyph-name="germandbls" unicode="&#xdf;" horiz-adv-x="580" 
d="M565 138c0 -82 -69 -150 -176 -150c-81 0 -130 28 -172 70l47 83c22 -28 65 -58 114 -58c41 0 66 22 66 51c0 79 -214 49 -214 213c0 99 108 116 108 170c0 33 -34 54 -73 54c-49 0 -88 -29 -88 -89v-482h-120v482c0 107 78 195 209 195c102 0 194 -59 194 -144
c0 -110 -114 -123 -114 -179c0 -71 219 -35 219 -216z" />
    <glyph glyph-name="longs" unicode="&#x17f;" horiz-adv-x="288" 
d="M197 0h-121v378h-62v105h62v38c0 98 56 156 146 156c40 0 80 -11 106 -36l-39 -84c-12 12 -25 19 -43 19c-31 0 -49 -21 -49 -55v-521z" />
    <glyph glyph-name="tbar" unicode="&#x167;" horiz-adv-x="298" 
d="M198 -12c-84 0 -123 43 -123 128v95h-63v69h63v98h-63v105h63v132h120v-132h80v-105h-80v-98h50v-69h-50v-67c0 -31 12 -50 35 -50c15 0 30 6 36 14l25 -92c-18 -16 -49 -28 -93 -28z" />
    <glyph glyph-name="tcaron" unicode="&#x165;" horiz-adv-x="319" 
d="M367 682c0 -60 -33 -114 -81 -148l-42 34c27 16 57 51 62 80c-2 -1 -9 -2 -14 -2c-29 0 -52 22 -52 55s27 60 60 60c35 0 67 -29 67 -79zM198 -12c-84 0 -123 43 -123 128v262h-63v105h63v132h120v-132h80v-105h-80v-234c0 -31 12 -50 35 -50c15 0 30 6 36 14l25 -92
c-18 -16 -49 -28 -93 -28z" />
    <glyph glyph-name="tcommaaccent" unicode="&#x163;" horiz-adv-x="298" 
d="M217 -138c0 -60 -33 -114 -81 -148l-42 34c27 16 57 51 62 80c-2 -1 -9 -2 -14 -2c-29 0 -52 22 -52 55s27 60 60 60c35 0 67 -29 67 -79zM198 -12c-84 0 -123 43 -123 128v262h-63v105h63v132h120v-132h80v-105h-80v-234c0 -31 12 -50 35 -50c15 0 30 6 36 14l25 -92
c-18 -16 -49 -28 -93 -28z" />
    <glyph glyph-name="uni021B" unicode="&#x21b;" horiz-adv-x="298" 
d="M217 -138c0 -60 -33 -114 -81 -148l-42 34c27 16 57 51 62 80c-2 -1 -9 -2 -14 -2c-29 0 -52 22 -52 55s27 60 60 60c35 0 67 -29 67 -79zM198 -12c-84 0 -123 43 -123 128v262h-63v105h63v132h120v-132h80v-105h-80v-234c0 -31 12 -50 35 -50c15 0 30 6 36 14l25 -92
c-18 -16 -49 -28 -93 -28z" />
    <glyph glyph-name="uni1E6B" unicode="&#x1e6b;" horiz-adv-x="298" 
d="M198 -12c-84 0 -123 43 -123 128v262h-63v105h63v132h120v-132h80v-105h-80v-234c0 -31 12 -50 35 -50c15 0 30 6 36 14l25 -92c-18 -16 -49 -28 -93 -28zM138 712c-35 0 -65 28 -65 64s30 65 65 65s64 -29 64 -65s-29 -64 -64 -64z" />
    <glyph glyph-name="uacute" unicode="&#xfa;" horiz-adv-x="499" 
d="M410 700l-134 -144h-80l107 144h107zM445 0h-120v61c-26 -38 -79 -73 -142 -73c-89 0 -129 49 -129 130v365h120v-319c0 -51 24 -70 64 -70c39 0 70 29 87 59v330h120v-483z" />
    <glyph glyph-name="ubreve" unicode="&#x16d;" horiz-adv-x="499" 
d="M445 0h-120v61c-26 -38 -79 -73 -142 -73c-89 0 -129 49 -129 130v365h120v-319c0 -51 24 -70 64 -70c39 0 70 29 87 59v330h120v-483zM400 613c-35 -46 -88 -75 -150 -75c-60 0 -115 29 -150 75l55 44c21 -30 55 -50 95 -50c39 0 74 19 95 50z" />
    <glyph glyph-name="ucircumflex" unicode="&#xfb;" horiz-adv-x="499" 
d="M383 556h-70l-64 91l-61 -91h-70l77 144h108zM445 0h-120v61c-26 -38 -79 -73 -142 -73c-89 0 -129 49 -129 130v365h120v-319c0 -51 24 -70 64 -70c39 0 70 29 87 59v330h120v-483z" />
    <glyph glyph-name="udieresis" unicode="&#xfc;" horiz-adv-x="499" 
d="M409 610c0 -36 -30 -65 -66 -65c-35 0 -64 29 -64 65s29 64 64 64c36 0 66 -28 66 -64zM221 610c0 -36 -28 -65 -64 -65s-65 29 -65 65s29 64 65 64s64 -28 64 -64zM445 0h-120v61c-26 -38 -79 -73 -142 -73c-89 0 -129 49 -129 130v365h120v-319c0 -51 24 -70 64 -70
c39 0 70 29 87 59v330h120v-483z" />
    <glyph glyph-name="ugrave" unicode="&#xf9;" horiz-adv-x="499" 
d="M445 0h-120v61c-26 -38 -79 -73 -142 -73c-89 0 -129 49 -129 130v365h120v-319c0 -51 24 -70 64 -70c39 0 70 29 87 59v330h120v-483zM303 556h-80l-134 144h107z" />
    <glyph glyph-name="uhungarumlaut" unicode="&#x171;" horiz-adv-x="499" 
d="M445 0h-120v61c-26 -38 -79 -73 -142 -73c-89 0 -129 49 -129 130v365h120v-319c0 -51 24 -70 64 -70c39 0 70 29 87 59v330h120v-483zM300 700l-98 -144h-66l70 144h94zM439 700l-98 -144h-66l70 144h94z" />
    <glyph glyph-name="umacron" unicode="&#x16b;" horiz-adv-x="499" 
d="M445 0h-120v61c-26 -38 -79 -73 -142 -73c-89 0 -129 49 -129 130v365h120v-319c0 -51 24 -70 64 -70c39 0 70 29 87 59v330h120v-483zM405 563h-311v69h311v-69z" />
    <glyph glyph-name="uogonek" unicode="&#x173;" horiz-adv-x="499" 
d="M445 0c-42 -25 -64 -58 -64 -95c0 -29 14 -40 31 -40c18 0 29 13 35 32l49 -28c-15 -32 -42 -55 -85 -55c-50 0 -90 26 -90 86c0 37 15 71 45 100h-41v61c-26 -38 -79 -73 -142 -73c-89 0 -129 49 -129 130v365h120v-319c0 -51 24 -70 64 -70c39 0 70 29 87 59v330h120
v-483z" />
    <glyph glyph-name="uring" unicode="&#x16f;" horiz-adv-x="499" 
d="M250 534c-53 0 -97 43 -97 97c0 53 44 97 97 97s96 -44 96 -97c0 -54 -43 -97 -96 -97zM250 588c24 0 42 19 42 43c0 23 -18 43 -42 43c-23 0 -43 -20 -43 -43c0 -24 20 -43 43 -43zM445 0h-120v61c-26 -38 -79 -73 -142 -73c-89 0 -129 49 -129 130v365h120v-319
c0 -51 24 -70 64 -70c39 0 70 29 87 59v330h120v-483z" />
    <glyph glyph-name="utilde" unicode="&#x169;" horiz-adv-x="499" 
d="M445 0h-120v61c-26 -38 -79 -73 -142 -73c-89 0 -129 49 -129 130v365h120v-319c0 -51 24 -70 64 -70c39 0 70 29 87 59v330h120v-483zM299 554c-60 0 -70 71 -102 71c-17 0 -31 -20 -31 -65h-62c0 81 34 134 96 134c60 0 70 -71 103 -71c17 0 30 20 30 65h62
c0 -81 -33 -134 -96 -134z" />
    <glyph glyph-name="uni1EE5" unicode="&#x1ee5;" horiz-adv-x="499" 
d="M445 0h-120v61c-26 -38 -79 -73 -142 -73c-89 0 -129 49 -129 130v365h120v-319c0 -51 24 -70 64 -70c39 0 70 29 87 59v330h120v-483zM251 -194c-35 0 -65 28 -65 64s30 65 65 65s64 -29 64 -65s-29 -64 -64 -64z" />
    <glyph glyph-name="uhorn" unicode="&#x1b0;" horiz-adv-x="499" 
d="M445 0h-120v61c-26 -38 -79 -73 -142 -73c-89 0 -129 49 -129 130v365h120v-319c0 -51 24 -70 64 -70c39 0 70 29 87 59v330h120v-11c10 14 18 28 20 42c-2 -1 -8 -2 -13 -2c-27 0 -47 20 -47 50c0 29 23 54 53 54c33 0 62 -26 62 -72c0 -48 -26 -99 -75 -135v-409z" />
    <glyph glyph-name="uni1EE7" unicode="&#x1ee7;" horiz-adv-x="499" 
d="M445 0h-120v61c-26 -38 -79 -73 -142 -73c-89 0 -129 49 -129 130v365h120v-319c0 -51 24 -70 64 -70c39 0 70 29 87 59v330h120v-483zM222 584l-44 11c10 34 36 55 73 55c38 0 70 -21 70 -69c0 -22 -6 -38 -16 -54h-50c14 17 19 34 19 51c0 22 -11 31 -24 31
c-14 0 -23 -10 -28 -25z" />
    <glyph glyph-name="uni1EE9" unicode="&#x1ee9;" horiz-adv-x="499" 
d="M410 700l-134 -144h-80l107 144h107zM445 0h-120v61c-26 -38 -79 -73 -142 -73c-89 0 -129 49 -129 130v365h120v-319c0 -51 24 -70 64 -70c39 0 70 29 87 59v330h120v-11c10 14 18 28 20 42c-2 -1 -8 -2 -13 -2c-27 0 -47 20 -47 50c0 29 23 54 53 54
c33 0 62 -26 62 -72c0 -48 -26 -99 -75 -135v-409z" />
    <glyph glyph-name="uni1EEB" unicode="&#x1eeb;" horiz-adv-x="499" 
d="M303 556h-80l-134 144h107zM445 0h-120v61c-26 -38 -79 -73 -142 -73c-89 0 -129 49 -129 130v365h120v-319c0 -51 24 -70 64 -70c39 0 70 29 87 59v330h120v-11c10 14 18 28 20 42c-2 -1 -8 -2 -13 -2c-27 0 -47 20 -47 50c0 29 23 54 53 54c33 0 62 -26 62 -72
c0 -48 -26 -99 -75 -135v-409z" />
    <glyph glyph-name="uni1EED" unicode="&#x1eed;" horiz-adv-x="499" 
d="M222 584l-44 11c10 34 36 55 73 55c38 0 70 -21 70 -69c0 -22 -6 -38 -16 -54h-50c14 17 19 34 19 51c0 22 -11 31 -24 31c-14 0 -23 -10 -28 -25zM445 0h-120v61c-26 -38 -79 -73 -142 -73c-89 0 -129 49 -129 130v365h120v-319c0 -51 24 -70 64 -70c39 0 70 29 87 59
v330h120v-11c10 14 18 28 20 42c-2 -1 -8 -2 -13 -2c-27 0 -47 20 -47 50c0 29 23 54 53 54c33 0 62 -26 62 -72c0 -48 -26 -99 -75 -135v-409z" />
    <glyph glyph-name="uni1EEF" unicode="&#x1eef;" horiz-adv-x="499" 
d="M445 0h-120v61c-26 -38 -79 -73 -142 -73c-89 0 -129 49 -129 130v365h120v-319c0 -51 24 -70 64 -70c39 0 70 29 87 59v330h120v-11c10 14 18 28 20 42c-2 -1 -8 -2 -13 -2c-27 0 -47 20 -47 50c0 29 23 54 53 54c33 0 62 -26 62 -72c0 -48 -26 -99 -75 -135v-409z
M297 554c-60 0 -70 71 -102 71c-17 0 -31 -20 -31 -65h-62c0 81 34 134 96 134c60 0 70 -71 103 -71c17 0 30 20 30 65h62c0 -81 -33 -134 -96 -134z" />
    <glyph glyph-name="uni1EF1" unicode="&#x1ef1;" horiz-adv-x="499" 
d="M251 -194c-35 0 -65 28 -65 64s30 65 65 65s64 -29 64 -65s-29 -64 -64 -64zM445 0h-120v61c-26 -38 -79 -73 -142 -73c-89 0 -129 49 -129 130v365h120v-319c0 -51 24 -70 64 -70c39 0 70 29 87 59v330h120v-11c10 14 18 28 20 42c-2 -1 -8 -2 -13 -2
c-27 0 -47 20 -47 50c0 29 23 54 53 54c33 0 62 -26 62 -72c0 -48 -26 -99 -75 -135v-409z" />
    <glyph glyph-name="wacute" unicode="&#x1e83;" horiz-adv-x="688" 
d="M504 700l-134 -144h-80l107 144h107zM557 0h-127l-86 329l-85 -329h-127l-129 483h124l76 -328l84 328h111l87 -328l76 328h125z" />
    <glyph glyph-name="wcircumflex" unicode="&#x175;" horiz-adv-x="688" 
d="M477 556h-70l-64 91l-61 -91h-70l77 144h108zM557 0h-127l-86 329l-85 -329h-127l-129 483h124l76 -328l84 328h111l87 -328l76 328h125z" />
    <glyph glyph-name="wdieresis" unicode="&#x1e85;" horiz-adv-x="688" 
d="M503 610c0 -36 -30 -65 -66 -65c-35 0 -64 29 -64 65s29 64 64 64c36 0 66 -28 66 -64zM315 610c0 -36 -28 -65 -64 -65s-65 29 -65 65s29 64 65 64s64 -28 64 -64zM557 0h-127l-86 329l-85 -329h-127l-129 483h124l76 -328l84 328h111l87 -328l76 328h125z" />
    <glyph glyph-name="wgrave" unicode="&#x1e81;" horiz-adv-x="688" 
d="M557 0h-127l-86 329l-85 -329h-127l-129 483h124l76 -328l84 328h111l87 -328l76 328h125zM398 556h-80l-134 144h107z" />
    <glyph glyph-name="yacute" unicode="&#xfd;" horiz-adv-x="447" 
d="M43 -189l18 106c8 -4 22 -7 31 -7c27 0 44 10 53 35l16 46l-163 492h128l97 -338l98 338h128l-189 -565c-30 -89 -82 -113 -159 -114c-15 0 -45 3 -58 7zM383 700l-134 -144h-80l107 144h107z" />
    <glyph glyph-name="ycircumflex" unicode="&#x177;" horiz-adv-x="447" 
d="M43 -189l18 106c8 -4 22 -7 31 -7c27 0 44 10 53 35l16 46l-163 492h128l97 -338l98 338h128l-189 -565c-30 -89 -82 -113 -159 -114c-15 0 -45 3 -58 7zM358 556h-70l-64 91l-61 -91h-70l77 144h108z" />
    <glyph glyph-name="ydieresis" unicode="&#xff;" horiz-adv-x="447" 
d="M43 -189l18 106c8 -4 22 -7 31 -7c27 0 44 10 53 35l16 46l-163 492h128l97 -338l98 338h128l-189 -565c-30 -89 -82 -113 -159 -114c-15 0 -45 3 -58 7zM384 610c0 -36 -30 -65 -66 -65c-35 0 -64 29 -64 65s29 64 64 64c36 0 66 -28 66 -64zM196 610
c0 -36 -28 -65 -64 -65s-65 29 -65 65s29 64 65 64s64 -28 64 -64z" />
    <glyph glyph-name="ygrave" unicode="&#x1ef3;" horiz-adv-x="447" 
d="M43 -189l18 106c8 -4 22 -7 31 -7c27 0 44 10 53 35l16 46l-163 492h128l97 -338l98 338h128l-189 -565c-30 -89 -82 -113 -159 -114c-15 0 -45 3 -58 7zM276 556h-80l-134 144h107z" />
    <glyph glyph-name="yacute.alt1" horiz-adv-x="499" 
d="M409 700l-134 -144h-80l107 144h107zM227 -196c-72 0 -130 20 -175 62l48 92c32 -37 80 -53 122 -53c65 0 103 41 103 115v60c-26 -38 -79 -73 -142 -73c-89 0 -129 49 -129 130v346h120v-301c0 -50 24 -69 64 -69c39 0 70 29 87 58v312h120v-456
c0 -144 -81 -223 -218 -223z" />
    <glyph glyph-name="ycircumflex.alt1" horiz-adv-x="499" 
d="M383 556h-70l-64 91l-61 -91h-70l77 144h108zM227 -196c-72 0 -130 20 -175 62l48 92c32 -37 80 -53 122 -53c65 0 103 41 103 115v60c-26 -38 -79 -73 -142 -73c-89 0 -129 49 -129 130v346h120v-301c0 -50 24 -69 64 -69c39 0 70 29 87 58v312h120v-456
c0 -144 -81 -223 -218 -223z" />
    <glyph glyph-name="ydieresis.alt1" horiz-adv-x="499" 
d="M409 610c0 -36 -30 -65 -66 -65c-35 0 -64 29 -64 65s29 64 64 64c36 0 66 -28 66 -64zM221 610c0 -36 -28 -65 -64 -65s-65 29 -65 65s29 64 65 64s64 -28 64 -64zM227 -196c-72 0 -130 20 -175 62l48 92c32 -37 80 -53 122 -53c65 0 103 41 103 115v60
c-26 -38 -79 -73 -142 -73c-89 0 -129 49 -129 130v346h120v-301c0 -50 24 -69 64 -69c39 0 70 29 87 58v312h120v-456c0 -144 -81 -223 -218 -223z" />
    <glyph glyph-name="ygrave.alt1" horiz-adv-x="499" 
d="M227 -196c-72 0 -130 20 -175 62l48 92c32 -37 80 -53 122 -53c65 0 103 41 103 115v60c-26 -38 -79 -73 -142 -73c-89 0 -129 49 -129 130v346h120v-301c0 -50 24 -69 64 -69c39 0 70 29 87 58v312h120v-456c0 -144 -81 -223 -218 -223zM303 556h-80l-134 144h107z" />
    <glyph glyph-name="zacute" unicode="&#x17a;" horiz-adv-x="407" 
d="M363 700l-134 -144h-80l107 144h107zM372 0h-338v90l181 288h-181v105h334v-87l-182 -291h186v-105z" />
    <glyph glyph-name="zcaron" unicode="&#x17e;" horiz-adv-x="407" 
d="M256 556h-108l-80 144h70l64 -91l61 91h70zM372 0h-338v90l181 288h-181v105h334v-87l-182 -291h186v-105z" />
    <glyph glyph-name="zdotaccent" unicode="&#x17c;" horiz-adv-x="407" 
d="M372 0h-338v90l181 288h-181v105h334v-87l-182 -291h186v-105zM202 545c-35 0 -65 28 -65 64s30 65 65 65s64 -29 64 -65s-29 -64 -64 -64z" />
    <glyph glyph-name="eth" unicode="&#xf0;" horiz-adv-x="495" 
d="M119 483l-24 57l105 46c-17 17 -35 34 -52 49l84 74c27 -25 53 -49 76 -75l87 38l24 -55l-71 -32c74 -96 118 -204 118 -324c0 -162 -75 -273 -219 -273c-139 0 -218 106 -218 238s72 237 182 237c60 0 99 -32 127 -81c-17 52 -53 107 -95 156zM247 94c65 0 95 61 95 132
c0 70 -30 131 -95 131c-64 0 -93 -61 -93 -131c0 -71 29 -132 93 -132z" />
    <glyph glyph-name="thorn" unicode="&#xfe;" horiz-adv-x="503" 
d="M296 -12c-46 0 -92 22 -122 72v-244h-120v851h120v-243c30 47 74 71 122 71c109 0 179 -95 179 -253c0 -157 -70 -254 -179 -254zM257 94c62 0 94 63 94 148c0 84 -32 147 -94 147c-32 0 -67 -24 -83 -56v-182c16 -31 51 -57 83 -57z" />
    <glyph glyph-name="Aacute.smcp" unicode="&#xf7e1;" horiz-adv-x="484" 
d="M402 750l-134 -144h-80l107 144h107zM168 550h148l170 -550h-134l-25 95h-169l-26 -95h-135zM301 203l-59 214l-59 -214h118z" />
    <glyph glyph-name="Abreve.smcp" unicode="&#xf66d;" horiz-adv-x="484" 
d="M168 550h148l170 -550h-134l-25 95h-169l-26 -95h-135zM301 203l-59 214l-59 -214h118zM392 663c-35 -46 -88 -75 -150 -75c-60 0 -115 29 -150 75l55 44c21 -30 55 -50 95 -50c39 0 74 19 95 50z" />
    <glyph glyph-name="Acircumflex.smcp" unicode="&#xf7e2;" horiz-adv-x="484" 
d="M375 606h-70l-64 91l-61 -91h-70l77 144h108zM168 550h148l170 -550h-134l-25 95h-169l-26 -95h-135zM301 203l-59 214l-59 -214h118z" />
    <glyph glyph-name="Adieresis.smcp" unicode="&#xf7e4;" horiz-adv-x="484" 
d="M401 672c0 -36 -30 -65 -66 -65c-35 0 -64 29 -64 65s29 64 64 64c36 0 66 -28 66 -64zM213 672c0 -36 -28 -65 -64 -65s-65 29 -65 65s29 64 65 64s64 -28 64 -64zM168 550h148l170 -550h-134l-25 95h-169l-26 -95h-135zM301 203l-59 214l-59 -214h118z" />
    <glyph glyph-name="Agrave.smcp" unicode="&#xf7e0;" horiz-adv-x="484" 
d="M168 550h148l170 -550h-134l-25 95h-169l-26 -95h-135zM301 203l-59 214l-59 -214h118zM296 606h-80l-134 144h107z" />
    <glyph glyph-name="Amacron.smcp" unicode="&#xf66e;" horiz-adv-x="484" 
d="M398 613h-311v69h311v-69zM168 550h148l170 -550h-134l-25 95h-169l-26 -95h-135zM301 203l-59 214l-59 -214h118z" />
    <glyph glyph-name="Aogonek.smcp" unicode="&#xf66f;" horiz-adv-x="484" 
d="M168 550h148l170 -550c-42 -25 -64 -58 -64 -95c0 -29 14 -40 31 -40c18 0 29 13 35 32l49 -28c-15 -32 -42 -55 -85 -55c-50 0 -90 26 -90 86c0 37 15 71 45 100h-55l-25 95h-169l-26 -95h-135zM301 203l-59 214l-59 -214h118z" />
    <glyph glyph-name="Aring.smcp" unicode="&#xf7e5;" horiz-adv-x="484" 
d="M243 574c-53 0 -97 43 -97 97c0 53 44 97 97 97s96 -44 96 -97c0 -54 -43 -97 -96 -97zM243 628c24 0 42 19 42 43c0 23 -18 43 -42 43c-23 0 -43 -20 -43 -43c0 -24 20 -43 43 -43zM168 550h148l170 -550h-134l-25 95h-169l-26 -95h-135zM301 203l-59 214l-59 -214h118z
" />
    <glyph glyph-name="Atilde.smcp" unicode="&#xf7e3;" horiz-adv-x="484" 
d="M168 550h148l170 -550h-134l-25 95h-169l-26 -95h-135zM301 203l-59 214l-59 -214h118zM292 604c-60 0 -70 71 -102 71c-17 0 -31 -20 -31 -65h-62c0 81 34 134 96 134c60 0 70 -71 103 -71c17 0 30 20 30 65h62c0 -81 -33 -134 -96 -134z" />
    <glyph glyph-name="uni1EA0.smcp" horiz-adv-x="484" 
d="M168 550h148l170 -550h-134l-25 95h-169l-26 -95h-135zM301 203l-59 214l-59 -214h118zM242 -194c-35 0 -65 28 -65 64s30 65 65 65s64 -29 64 -65s-29 -64 -64 -64z" />
    <glyph glyph-name="uni1EA2.smcp" horiz-adv-x="484" 
d="M168 550h148l170 -550h-134l-25 95h-169l-26 -95h-135zM301 203l-59 214l-59 -214h118zM214 637l-44 11c10 34 36 55 73 55c38 0 70 -21 70 -69c0 -22 -6 -38 -16 -54h-50c14 17 19 34 19 51c0 22 -11 31 -24 31c-14 0 -23 -10 -28 -25z" />
    <glyph glyph-name="uni1EA4.smcp" horiz-adv-x="484" 
d="M376 606h-70l-64 91l-61 -91h-70l77 144h108zM556 820l-134 -144h-80l107 144h107zM168 550h148l170 -550h-134l-25 95h-169l-26 -95h-135zM301 203l-59 214l-59 -214h118z" />
    <glyph glyph-name="uni1EAC.smcp" horiz-adv-x="484" 
d="M375 606h-70l-64 91l-61 -91h-70l77 144h108zM168 550h148l170 -550h-134l-25 95h-169l-26 -95h-135zM301 203l-59 214l-59 -214h118zM242 -194c-35 0 -65 28 -65 64s30 65 65 65s64 -29 64 -65s-29 -64 -64 -64z" />
    <glyph glyph-name="uni1EA6.smcp" horiz-adv-x="484" 
d="M376 606h-70l-64 91l-61 -91h-70l77 144h108zM168 550h148l170 -550h-134l-25 95h-169l-26 -95h-135zM301 203l-59 214l-59 -214h118zM139 676h-80l-134 144h107z" />
    <glyph glyph-name="uni1EA8.smcp" horiz-adv-x="484" 
d="M375 606h-70l-64 91l-61 -91h-70l77 144h108zM168 550h148l170 -550h-134l-25 95h-169l-26 -95h-135zM301 203l-59 214l-59 -214h118zM309 774l-44 11c10 34 36 55 73 55c38 0 70 -21 70 -69c0 -22 -6 -38 -16 -54h-50c14 17 19 34 19 51c0 22 -11 31 -24 31
c-14 0 -23 -10 -28 -25z" />
    <glyph glyph-name="uni1EAE.smcp" horiz-adv-x="484" 
d="M404 833l-134 -144h-80l107 144h107zM168 550h148l170 -550h-134l-25 95h-169l-26 -95h-135zM301 203l-59 214l-59 -214h118zM392 650c-35 -46 -88 -75 -150 -75c-60 0 -115 29 -150 75l55 44c21 -30 55 -50 95 -50c39 0 74 19 95 50z" />
    <glyph glyph-name="uni1EAA.smcp" horiz-adv-x="484" 
d="M374 573h-70l-64 91l-61 -91h-70l77 144h108zM168 550h148l170 -550h-134l-25 95h-169l-26 -95h-135zM301 203l-59 214l-59 -214h118zM291 732c-60 0 -70 71 -102 71c-17 0 -31 -20 -31 -65h-62c0 81 34 134 96 134c60 0 70 -71 103 -71c17 0 30 20 30 65h62
c0 -81 -33 -134 -96 -134z" />
    <glyph glyph-name="uni1EB0.smcp" horiz-adv-x="484" 
d="M168 550h148l170 -550h-134l-25 95h-169l-26 -95h-135zM301 203l-59 214l-59 -214h118zM296 689h-80l-134 144h107zM393 650c-35 -46 -88 -75 -150 -75c-60 0 -115 29 -150 75l55 44c21 -30 55 -50 95 -50c39 0 74 19 95 50z" />
    <glyph glyph-name="uni1EB2.smcp" horiz-adv-x="484" 
d="M168 550h148l170 -550h-134l-25 95h-169l-26 -95h-135zM301 203l-59 214l-59 -214h118zM215 747l-44 11c10 34 36 55 73 55c38 0 70 -21 70 -69c0 -22 -6 -38 -16 -54h-50c14 17 19 34 19 51c0 22 -11 31 -24 31c-14 0 -23 -10 -28 -25zM393 650
c-35 -46 -88 -75 -150 -75c-60 0 -115 29 -150 75l55 44c21 -30 55 -50 95 -50c39 0 74 19 95 50z" />
    <glyph glyph-name="uni1EB4.smcp" horiz-adv-x="484" 
d="M393 650c-35 -46 -88 -75 -150 -75c-60 0 -115 29 -150 75l55 44c21 -30 55 -50 95 -50c39 0 74 19 95 50zM168 550h148l170 -550h-134l-25 95h-169l-26 -95h-135zM301 203l-59 214l-59 -214h118zM292 707c-60 0 -70 71 -102 71c-17 0 -31 -20 -31 -65h-62
c0 81 34 134 96 134c60 0 70 -71 103 -71c17 0 30 20 30 65h62c0 -81 -33 -134 -96 -134z" />
    <glyph glyph-name="uni1EB6.smcp" horiz-adv-x="484" 
d="M168 550h148l170 -550h-134l-25 95h-169l-26 -95h-135zM301 203l-59 214l-59 -214h118zM243 -194c-35 0 -65 28 -65 64s30 65 65 65s64 -29 64 -65s-29 -64 -64 -64zM392 663c-35 -46 -88 -75 -150 -75c-60 0 -115 29 -150 75l55 44c21 -30 55 -50 95 -50
c39 0 74 19 95 50z" />
    <glyph glyph-name="AE.smcp" unicode="&#xf7e6;" horiz-adv-x="685" 
d="M649 0h-337v95h-140l-42 -95h-135l265 550h389v-107h-212v-110h206v-107h-206v-119h212v-107zM312 203v215l-96 -215h96z" />
    <glyph glyph-name="AEacute.smcp" unicode="&#xf670;" horiz-adv-x="685" 
d="M534 750l-134 -144h-80l107 144h107zM649 0h-337v95h-140l-42 -95h-135l265 550h389v-107h-212v-110h206v-107h-206v-119h212v-107zM312 203v215l-96 -215h96z" />
    <glyph glyph-name="uni1E02.smcp" horiz-adv-x="488" 
d="M301 0h-247v550h240c105 0 155 -66 155 -141c0 -66 -37 -109 -87 -125c57 -13 97 -69 97 -135c0 -83 -50 -149 -158 -149zM275 107c37 0 57 22 57 59c0 33 -19 61 -57 61h-96v-120h96zM270 334c36 0 52 23 52 54s-16 55 -52 55h-91v-109h91zM252 595c-35 0 -65 28 -65 64
s30 65 65 65s64 -29 64 -65s-29 -64 -64 -64z" />
    <glyph glyph-name="Cacute.smcp" unicode="&#xf671;" horiz-adv-x="485" 
d="M434 750l-134 -144h-80l107 144h107zM274 -12c-152 0 -244 121 -244 287c0 167 92 287 244 287c107 0 163 -68 194 -139l-102 -42c-18 43 -50 71 -92 71c-74 0 -117 -75 -117 -177c0 -101 43 -177 117 -177c43 0 76 29 92 73l102 -41c-30 -72 -87 -142 -194 -142z" />
    <glyph glyph-name="Ccaron.smcp" unicode="&#xf672;" horiz-adv-x="485" 
d="M330 606h-108l-80 144h70l64 -91l61 91h70zM274 -12c-152 0 -244 121 -244 287c0 167 92 287 244 287c107 0 163 -68 194 -139l-102 -42c-18 43 -50 71 -92 71c-74 0 -117 -75 -117 -177c0 -101 43 -177 117 -177c43 0 76 29 92 73l102 -41c-30 -72 -87 -142 -194 -142z
" />
    <glyph glyph-name="Ccedilla.smcp" unicode="&#xf7e7;" horiz-adv-x="485" 
d="M269 -195c-41 0 -77 15 -98 32l23 48c23 -18 48 -28 72 -28c25 0 46 12 46 34c0 16 -9 26 -26 26c-12 0 -22 -5 -29 -13l-44 25l23 62c-129 18 -206 132 -206 284c0 167 92 287 244 287c107 0 163 -68 194 -139l-102 -42c-18 43 -50 71 -92 71c-74 0 -117 -75 -117 -177
c0 -101 43 -177 117 -177c43 0 76 29 92 73l102 -41c-28 -67 -80 -132 -173 -141l-17 -41c9 7 19 10 32 10c35 0 63 -28 63 -69c0 -52 -46 -84 -104 -84z" />
    <glyph glyph-name="Ccircumflex.smcp" unicode="&#xf673;" horiz-adv-x="485" 
d="M407 606h-70l-64 91l-61 -91h-70l77 144h108zM274 -12c-152 0 -244 121 -244 287c0 167 92 287 244 287c107 0 163 -68 194 -139l-102 -42c-18 43 -50 71 -92 71c-74 0 -117 -75 -117 -177c0 -101 43 -177 117 -177c43 0 76 29 92 73l102 -41c-30 -72 -87 -142 -194 -142
z" />
    <glyph glyph-name="Cdotaccent.smcp" unicode="&#xf674;" horiz-adv-x="485" 
d="M274 -12c-152 0 -244 121 -244 287c0 167 92 287 244 287c107 0 163 -68 194 -139l-102 -42c-18 43 -50 71 -92 71c-74 0 -117 -75 -117 -177c0 -101 43 -177 117 -177c43 0 76 29 92 73l102 -41c-30 -72 -87 -142 -194 -142zM274 595c-35 0 -65 28 -65 64s30 65 65 65
s64 -29 64 -65s-29 -64 -64 -64z" />
    <glyph glyph-name="Dcaron.smcp" unicode="&#xf675;" horiz-adv-x="526" 
d="M314 606h-108l-80 144h70l64 -91l61 91h70zM240 0h-192v550h191c161 0 251 -114 251 -276c0 -161 -89 -274 -250 -274zM239 108c82 0 124 69 124 166c0 102 -40 168 -124 168h-66v-334h66z" />
    <glyph glyph-name="Dcroat.smcp" unicode="&#xf676;" horiz-adv-x="540" 
d="M254 0h-192v235h-50v82h50v233h191c161 0 251 -114 251 -276c0 -161 -89 -274 -250 -274zM270 235h-83v-127h66c82 0 124 69 124 166c0 102 -40 168 -124 168h-66v-125h83v-82z" />
    <glyph glyph-name="uni1E0A.smcp" horiz-adv-x="526" 
d="M246 0h-192v550h191c161 0 251 -114 251 -276c0 -161 -89 -274 -250 -274zM245 108c82 0 124 69 124 166c0 102 -40 168 -124 168h-66v-334h66zM264 595c-35 0 -65 28 -65 64s30 65 65 65s64 -29 64 -65s-29 -64 -64 -64z" />
    <glyph glyph-name="Eacute.smcp" unicode="&#xf7e9;" horiz-adv-x="428" 
d="M383 750l-134 -144h-80l107 144h107zM391 0h-337v550h337v-107h-212v-110h206v-107h-206v-119h212v-107z" />
    <glyph glyph-name="Ebreve.smcp" unicode="&#xf677;" horiz-adv-x="428" 
d="M391 0h-337v550h337v-107h-212v-110h206v-107h-206v-119h212v-107zM373 663c-35 -46 -88 -75 -150 -75c-60 0 -115 29 -150 75l55 44c21 -30 55 -50 95 -50c39 0 74 19 95 50z" />
    <glyph glyph-name="Ecaron.smcp" unicode="&#xf678;" horiz-adv-x="428" 
d="M278 606h-108l-80 144h70l64 -91l61 91h70zM391 0h-337v550h337v-107h-212v-110h206v-107h-206v-119h212v-107z" />
    <glyph glyph-name="Ecircumflex.smcp" unicode="&#xf7ea;" horiz-adv-x="428" 
d="M356 606h-70l-64 91l-61 -91h-70l77 144h108zM391 0h-337v550h337v-107h-212v-110h206v-107h-206v-119h212v-107z" />
    <glyph glyph-name="Edieresis.smcp" unicode="&#xf7eb;" horiz-adv-x="428" 
d="M382 660c0 -36 -30 -65 -66 -65c-35 0 -64 29 -64 65s29 64 64 64c36 0 66 -28 66 -64zM194 660c0 -36 -28 -65 -64 -65s-65 29 -65 65s29 64 65 64s64 -28 64 -64zM391 0h-337v550h337v-107h-212v-110h206v-107h-206v-119h212v-107z" />
    <glyph glyph-name="Edotaccent.smcp" unicode="&#xf679;" horiz-adv-x="428" 
d="M391 0h-337v550h337v-107h-212v-110h206v-107h-206v-119h212v-107zM224 595c-35 0 -65 28 -65 64s30 65 65 65s64 -29 64 -65s-29 -64 -64 -64z" />
    <glyph glyph-name="Egrave.smcp" unicode="&#xf7e8;" horiz-adv-x="428" 
d="M391 0h-337v550h337v-107h-212v-110h206v-107h-206v-119h212v-107zM276 606h-80l-134 144h107z" />
    <glyph glyph-name="Emacron.smcp" unicode="&#xf67a;" horiz-adv-x="428" 
d="M391 0h-337v550h337v-107h-212v-110h206v-107h-206v-119h212v-107zM379 613h-311v69h311v-69z" />
    <glyph glyph-name="Eogonek.smcp" unicode="&#xf67c;" horiz-adv-x="428" 
d="M393 -103l49 -28c-15 -32 -42 -55 -85 -55c-50 0 -90 26 -90 86c0 37 15 71 45 100h-258v550h337v-107h-212v-110h206v-107h-206v-119h212v-107c-42 -25 -64 -58 -64 -95c0 -29 14 -40 31 -40c18 0 29 13 35 32z" />
    <glyph glyph-name="uni1EB8.smcp" horiz-adv-x="428" 
d="M391 0h-337v550h337v-107h-212v-110h206v-107h-206v-119h212v-107zM224 -194c-35 0 -65 28 -65 64s30 65 65 65s64 -29 64 -65s-29 -64 -64 -64z" />
    <glyph glyph-name="uni1EBA.smcp" horiz-adv-x="428" 
d="M391 0h-337v550h337v-107h-212v-110h206v-107h-206v-119h212v-107zM196 637l-44 11c10 34 36 55 73 55c38 0 70 -21 70 -69c0 -22 -6 -38 -16 -54h-50c14 17 19 34 19 51c0 22 -11 31 -24 31c-14 0 -23 -10 -28 -25z" />
    <glyph glyph-name="uni1EBC.smcp" horiz-adv-x="428" 
d="M391 0h-337v550h337v-107h-212v-110h206v-107h-206v-119h212v-107zM273 604c-60 0 -70 71 -102 71c-17 0 -31 -20 -31 -65h-62c0 81 34 134 96 134c60 0 70 -71 103 -71c17 0 30 20 30 65h62c0 -81 -33 -134 -96 -134z" />
    <glyph glyph-name="uni1EBE.smcp" horiz-adv-x="428" 
d="M356 606h-70l-64 91l-61 -91h-70l77 144h108zM536 820l-134 -144h-80l107 144h107zM391 0h-337v550h337v-107h-212v-110h206v-107h-206v-119h212v-107z" />
    <glyph glyph-name="uni1EC0.smcp" horiz-adv-x="428" 
d="M355 606h-70l-64 91l-61 -91h-70l77 144h108zM391 0h-337v550h337v-107h-212v-110h206v-107h-206v-119h212v-107zM119 676h-80l-134 144h107z" />
    <glyph glyph-name="uni1EC2.smcp" horiz-adv-x="428" 
d="M356 606h-70l-64 91l-61 -91h-70l77 144h108zM391 0h-337v550h337v-107h-212v-110h206v-107h-206v-119h212v-107zM291 774l-44 11c10 34 36 55 73 55c38 0 70 -21 70 -69c0 -22 -6 -38 -16 -54h-50c14 17 19 34 19 51c0 22 -11 31 -24 31c-14 0 -23 -10 -28 -25z" />
    <glyph glyph-name="uni1EC4.smcp" horiz-adv-x="428" 
d="M355 573h-70l-64 91l-61 -91h-70l77 144h108zM391 0h-337v550h337v-107h-212v-110h206v-107h-206v-119h212v-107zM272 732c-60 0 -70 71 -102 71c-17 0 -31 -20 -31 -65h-62c0 81 34 134 96 134c60 0 70 -71 103 -71c17 0 30 20 30 65h62c0 -81 -33 -134 -96 -134z" />
    <glyph glyph-name="uni1EC6.smcp" horiz-adv-x="428" 
d="M356 606h-70l-64 91l-61 -91h-70l77 144h108zM391 0h-337v550h337v-107h-212v-110h206v-107h-206v-119h212v-107zM223 -194c-35 0 -65 28 -65 64s30 65 65 65s64 -29 64 -65s-29 -64 -64 -64z" />
    <glyph glyph-name="uni1E1E.smcp" horiz-adv-x="421" 
d="M225 595c-35 0 -65 28 -65 64s30 65 65 65s64 -29 64 -65s-29 -64 -64 -64zM179 0h-125v550h337v-107h-212v-110h206v-107h-206v-226z" />
    <glyph glyph-name="Gbreve.smcp" unicode="&#xf67d;" horiz-adv-x="511" 
d="M275 -12c-150 0 -245 117 -245 287c0 172 95 287 245 287c95 0 157 -58 189 -128l-100 -47c-18 37 -46 65 -89 65c-71 0 -117 -66 -117 -177c0 -110 46 -178 118 -178c35 0 62 15 78 31v76h-94v101h212v-228c-51 -56 -114 -89 -197 -89zM426 663
c-35 -46 -88 -75 -150 -75c-60 0 -115 29 -150 75l55 44c21 -30 55 -50 95 -50c39 0 74 19 95 50z" />
    <glyph glyph-name="Gcircumflex.smcp" unicode="&#xf67e;" horiz-adv-x="511" 
d="M275 -12c-150 0 -245 117 -245 287c0 172 95 287 245 287c95 0 157 -58 189 -128l-100 -47c-18 37 -46 65 -89 65c-71 0 -117 -66 -117 -177c0 -110 46 -178 118 -178c35 0 62 15 78 31v76h-94v101h212v-228c-51 -56 -114 -89 -197 -89zM408 606h-70l-64 91l-61 -91h-70
l77 144h108z" />
    <glyph glyph-name="Gcommaaccent.smcp" unicode="&#xf67f;" horiz-adv-x="511" 
d="M275 -12c-150 0 -245 117 -245 287c0 172 95 287 245 287c95 0 157 -58 189 -128l-100 -47c-18 37 -46 65 -89 65c-71 0 -117 -66 -117 -177c0 -110 46 -178 118 -178c35 0 62 15 78 31v76h-94v101h212v-228c-51 -56 -114 -89 -197 -89zM340 -138
c0 -60 -33 -114 -81 -148l-42 34c27 16 57 51 62 80c-2 -1 -9 -2 -14 -2c-29 0 -52 22 -52 55s27 60 60 60c35 0 67 -29 67 -79z" />
    <glyph glyph-name="Gdotaccent.smcp" unicode="&#xf680;" horiz-adv-x="511" 
d="M275 -12c-150 0 -245 117 -245 287c0 172 95 287 245 287c95 0 157 -58 189 -128l-100 -47c-18 37 -46 65 -89 65c-71 0 -117 -66 -117 -177c0 -110 46 -178 118 -178c35 0 62 15 78 31v76h-94v101h212v-228c-51 -56 -114 -89 -197 -89zM275 595c-35 0 -65 28 -65 64
s30 65 65 65s64 -29 64 -65s-29 -64 -64 -64z" />
    <glyph glyph-name="Gbreve.smcp.alt1" horiz-adv-x="519" 
d="M269 -12c-144 0 -239 117 -239 287c0 172 95 287 245 287c95 0 157 -58 189 -128l-100 -47c-18 37 -46 65 -89 65c-71 0 -117 -66 -117 -177c0 -110 45 -178 117 -178c53 0 89 51 97 107h-112v101h238c0 -192 -78 -317 -229 -317zM426 663c-35 -46 -88 -75 -150 -75
c-60 0 -115 29 -150 75l55 44c21 -30 55 -50 95 -50c39 0 74 19 95 50z" />
    <glyph glyph-name="Gcommaaccent.smcp.alt1" horiz-adv-x="519" 
d="M340 -138c0 -60 -33 -114 -81 -148l-42 34c27 16 57 51 62 80c-2 -1 -9 -2 -14 -2c-29 0 -52 22 -52 55s27 60 60 60c35 0 67 -29 67 -79zM269 -12c-144 0 -239 117 -239 287c0 172 95 287 245 287c95 0 157 -58 189 -128l-100 -47c-18 37 -46 65 -89 65
c-71 0 -117 -66 -117 -177c0 -110 45 -178 117 -178c53 0 89 51 97 107h-112v101h238c0 -192 -78 -317 -229 -317z" />
    <glyph glyph-name="Gcircumflex.smcp.alt1" horiz-adv-x="519" 
d="M405 606h-70l-64 91l-61 -91h-70l77 144h108zM269 -12c-144 0 -239 117 -239 287c0 172 95 287 245 287c95 0 157 -58 189 -128l-100 -47c-18 37 -46 65 -89 65c-71 0 -117 -66 -117 -177c0 -110 45 -178 117 -178c53 0 89 51 97 107h-112v101h238
c0 -192 -78 -317 -229 -317z" />
    <glyph glyph-name="Gdotaccent.smcp.alt1" horiz-adv-x="519" 
d="M269 -12c-144 0 -239 117 -239 287c0 172 95 287 245 287c95 0 157 -58 189 -128l-100 -47c-18 37 -46 65 -89 65c-71 0 -117 -66 -117 -177c0 -110 45 -178 117 -178c53 0 89 51 97 107h-112v101h238c0 -192 -78 -317 -229 -317zM275 595c-35 0 -65 28 -65 64
s30 65 65 65s64 -29 64 -65s-29 -64 -64 -64z" />
    <glyph glyph-name="Hbar.smcp" unicode="&#xf682;" horiz-adv-x="566" 
d="M500 0h-125v227h-184v-227h-125v408h-54v69h54v73h125v-73h184v73h125v-73h50v-69h-50v-408zM191 336h184v72h-184v-72z" />
    <glyph glyph-name="Hcircumflex.smcp" unicode="&#xf681;" horiz-adv-x="542" 
d="M404 606h-70l-64 91l-61 -91h-70l77 144h108zM488 0h-125v227h-184v-227h-125v550h125v-214h184v214h125v-550z" />
    <glyph glyph-name="uni1E22.smcp" horiz-adv-x="542" 
d="M488 0h-125v227h-184v-227h-125v550h125v-214h184v214h125v-550zM272 595c-35 0 -65 28 -65 64s30 65 65 65s64 -29 64 -65s-29 -64 -64 -64z" />
    <glyph glyph-name="Iacute.smcp" unicode="&#xf7ed;" horiz-adv-x="233" 
d="M276 750l-134 -144h-80l107 144h107zM179 0h-125v550h125v-550z" />
    <glyph glyph-name="Ibreve.smcp" unicode="&#xf683;" horiz-adv-x="233" 
d="M179 0h-125v550h125v-550zM267 663c-35 -46 -88 -75 -150 -75c-60 0 -115 29 -150 75l55 44c21 -30 55 -50 95 -50c39 0 74 19 95 50z" />
    <glyph glyph-name="Igrave.smcp" unicode="&#xf7ec;" horiz-adv-x="233" 
d="M179 0h-125v550h125v-550zM170 606h-80l-134 144h107z" />
    <glyph glyph-name="Icircumflex.smcp" unicode="&#xf7ee;" horiz-adv-x="233" 
d="M249 606h-70l-64 91l-61 -91h-70l77 144h108zM179 0h-125v550h125v-550z" />
    <glyph glyph-name="Idieresis.smcp" unicode="&#xf7ef;" horiz-adv-x="233" 
d="M275 660c0 -36 -30 -65 -66 -65c-35 0 -64 29 -64 65s29 64 64 64c36 0 66 -28 66 -64zM87 660c0 -36 -28 -65 -64 -65s-65 29 -65 65s29 64 65 64s64 -28 64 -64zM179 0h-125v550h125v-550z" />
    <glyph glyph-name="Idotaccent.smcp" unicode="&#xf6ad;" horiz-adv-x="233" 
d="M179 0h-125v550h125v-550zM117 595c-35 0 -65 28 -65 64s30 65 65 65s64 -29 64 -65s-29 -64 -64 -64z" />
    <glyph glyph-name="Imacron.smcp" unicode="&#xf685;" horiz-adv-x="233" 
d="M273 613h-311v69h311v-69zM179 0h-125v550h125v-550z" />
    <glyph glyph-name="Iogonek.smcp" unicode="&#xf686;" horiz-adv-x="233" 
d="M179 0c-42 -25 -64 -58 -64 -95c0 -29 14 -40 31 -40c18 0 29 13 35 32l49 -28c-15 -32 -42 -55 -85 -55c-50 0 -90 26 -90 86c0 37 15 71 45 100h-46v550h125v-550z" />
    <glyph glyph-name="Itilde.smcp" unicode="&#xf687;" horiz-adv-x="233" 
d="M179 0h-125v550h125v-550zM167 604c-60 0 -70 71 -102 71c-17 0 -31 -20 -31 -65h-62c0 81 34 134 96 134c60 0 70 -71 103 -71c17 0 30 20 30 65h62c0 -81 -33 -134 -96 -134z" />
    <glyph glyph-name="uni1EC8.smcp" horiz-adv-x="233" 
d="M179 0h-125v550h125v-550zM90 637l-44 11c10 34 36 55 73 55c38 0 70 -21 70 -69c0 -22 -6 -38 -16 -54h-50c14 17 19 34 19 51c0 22 -11 31 -24 31c-14 0 -23 -10 -28 -25z" />
    <glyph glyph-name="uni1ECA.smcp" horiz-adv-x="233" 
d="M179 0h-125v550h125v-550zM119 -194c-35 0 -65 28 -65 64s30 65 65 65s64 -29 64 -65s-29 -64 -64 -64z" />
    <glyph glyph-name="IJ.smcp" unicode="&#xf684;" horiz-adv-x="603" 
d="M363 -12c-47 0 -91 14 -125 46l41 97c18 -20 44 -33 72 -33c45 0 73 26 73 73v379h125v-392c0 -118 -75 -170 -186 -170zM179 0h-125v550h125v-550z" />
    <glyph glyph-name="Jcircumflex.smcp" unicode="&#xf688;" horiz-adv-x="371" 
d="M387 606h-70l-64 91l-61 -91h-70l77 144h108zM130 -12c-47 0 -91 14 -125 46l41 97c18 -20 44 -33 72 -33c45 0 73 26 73 73v379h125v-392c0 -118 -75 -170 -186 -170z" />
    <glyph glyph-name="Kcommaaccent.smcp" unicode="&#xf689;" horiz-adv-x="491" 
d="M316 -138c0 -60 -33 -114 -81 -148l-42 34c27 16 57 51 62 80c-2 -1 -9 -2 -14 -2c-29 0 -52 22 -52 55s27 60 60 60c35 0 67 -29 67 -79zM489 0h-146l-130 207l-34 -52v-155h-125v550h125v-233l153 233h145l-186 -259z" />
    <glyph glyph-name="Lacute.smcp" unicode="&#xf68a;" horiz-adv-x="396" 
d="M371 0h-317v550h125v-442h192v-108zM373 750l-134 -144h-80l107 144h107z" />
    <glyph glyph-name="Lcaron.smcp" unicode="&#xf68b;" horiz-adv-x="400" 
d="M355 480c0 -60 -33 -114 -81 -148l-42 34c27 16 57 51 62 80c-2 -1 -9 -2 -14 -2c-29 0 -52 22 -52 55s27 60 60 60c35 0 67 -29 67 -79zM371 0h-317v550h125v-442h192v-108z" />
    <glyph glyph-name="Lcommaaccent.smcp" unicode="&#xf68c;" horiz-adv-x="396" 
d="M279 -138c0 -60 -33 -114 -81 -148l-42 34c27 16 57 51 62 80c-2 -1 -9 -2 -14 -2c-29 0 -52 22 -52 55s27 60 60 60c35 0 67 -29 67 -79zM371 0h-317v550h125v-442h192v-108z" />
    <glyph glyph-name="Ldot.smcp" unicode="&#xf68d;" horiz-adv-x="452" 
d="M371 0h-317v550h125v-442h192v-108zM424 302c0 -41 -35 -77 -77 -77s-77 36 -77 77c0 42 35 78 77 78s77 -36 77 -78z" />
    <glyph glyph-name="Lslash.smcp" unicode="&#xf6f9;" horiz-adv-x="407" 
d="M12 152v110l53 30v258h125v-186l72 42v-111l-72 -41v-146h192v-108h-317v182z" />
    <glyph glyph-name="Nacute.smcp" unicode="&#xf68e;" horiz-adv-x="537" 
d="M428 750l-134 -144h-80l107 144h107zM483 0h-123l-181 315v-315h-125v550h131l174 -302v302h124v-550z" />
    <glyph glyph-name="Ncaron.smcp" unicode="&#xf68f;" horiz-adv-x="537" 
d="M323 606h-108l-80 144h70l64 -91l61 91h70zM483 0h-123l-181 315v-315h-125v550h131l174 -302v302h124v-550z" />
    <glyph glyph-name="Ncommaaccent.smcp" unicode="&#xf690;" horiz-adv-x="537" 
d="M337 -138c0 -60 -33 -114 -81 -148l-42 34c27 16 57 51 62 80c-2 -1 -9 -2 -14 -2c-29 0 -52 22 -52 55s27 60 60 60c35 0 67 -29 67 -79zM483 0h-123l-181 315v-315h-125v550h131l174 -302v302h124v-550z" />
    <glyph glyph-name="Ntilde.smcp" unicode="&#xf7f1;" horiz-adv-x="537" 
d="M483 0h-123l-181 315v-315h-125v550h131l174 -302v302h124v-550zM317 604c-60 0 -70 71 -102 71c-17 0 -31 -20 -31 -65h-62c0 81 34 134 96 134c60 0 70 -71 103 -71c17 0 30 20 30 65h62c0 -81 -33 -134 -96 -134z" />
    <glyph glyph-name="Eng.smcp" unicode="&#xf67b;" horiz-adv-x="537" 
d="M298 -196c-47 0 -92 14 -126 46l41 97c19 -20 44 -33 72 -33c45 0 73 27 73 74v13l-179 328v-329h-125v550h131l174 -316v316h124v-576c1 -118 -75 -170 -185 -170z" />
    <glyph glyph-name="Oacute.smcp" unicode="&#xf7f3;" horiz-adv-x="544" 
d="M271 -12c-153 0 -241 123 -241 287s88 287 241 287s242 -123 242 -287s-89 -287 -242 -287zM271 98c75 0 115 78 115 177c0 100 -40 177 -115 177s-114 -77 -114 -177c0 -99 39 -177 114 -177zM431 750l-134 -144h-80l107 144h107z" />
    <glyph glyph-name="Obreve.smcp" unicode="&#xf691;" horiz-adv-x="544" 
d="M271 -12c-153 0 -241 123 -241 287s88 287 241 287s242 -123 242 -287s-89 -287 -242 -287zM271 98c75 0 115 78 115 177c0 100 -40 177 -115 177s-114 -77 -114 -177c0 -99 39 -177 114 -177zM422 663c-35 -46 -88 -75 -150 -75c-60 0 -115 29 -150 75l55 44
c21 -30 55 -50 95 -50c39 0 74 19 95 50z" />
    <glyph glyph-name="Ocircumflex.smcp" unicode="&#xf7f4;" horiz-adv-x="544" 
d="M271 -12c-153 0 -241 123 -241 287s88 287 241 287s242 -123 242 -287s-89 -287 -242 -287zM271 98c75 0 115 78 115 177c0 100 -40 177 -115 177s-114 -77 -114 -177c0 -99 39 -177 114 -177zM405 606h-70l-64 91l-61 -91h-70l77 144h108z" />
    <glyph glyph-name="Odieresis.smcp" unicode="&#xf7f6;" horiz-adv-x="544" 
d="M271 -12c-153 0 -241 123 -241 287s88 287 241 287s242 -123 242 -287s-89 -287 -242 -287zM271 98c75 0 115 78 115 177c0 100 -40 177 -115 177s-114 -77 -114 -177c0 -99 39 -177 114 -177zM431 660c0 -36 -30 -65 -66 -65c-35 0 -64 29 -64 65s29 64 64 64
c36 0 66 -28 66 -64zM243 660c0 -36 -28 -65 -64 -65s-65 29 -65 65s29 64 65 64s64 -28 64 -64z" />
    <glyph glyph-name="Ograve.smcp" unicode="&#xf7f2;" horiz-adv-x="544" 
d="M271 -12c-153 0 -241 123 -241 287s88 287 241 287s242 -123 242 -287s-89 -287 -242 -287zM271 98c75 0 115 78 115 177c0 100 -40 177 -115 177s-114 -77 -114 -177c0 -99 39 -177 114 -177zM325 606h-80l-134 144h107z" />
    <glyph glyph-name="Ohungarumlaut.smcp" unicode="&#xf692;" horiz-adv-x="544" 
d="M271 -12c-153 0 -241 123 -241 287s88 287 241 287s242 -123 242 -287s-89 -287 -242 -287zM271 98c75 0 115 78 115 177c0 100 -40 177 -115 177s-114 -77 -114 -177c0 -99 39 -177 114 -177zM324 750l-98 -144h-66l70 144h94zM463 750l-98 -144h-66l70 144h94z" />
    <glyph glyph-name="Omacron.smcp" unicode="&#xf693;" horiz-adv-x="544" 
d="M271 -12c-153 0 -241 123 -241 287s88 287 241 287s242 -123 242 -287s-89 -287 -242 -287zM271 98c75 0 115 78 115 177c0 100 -40 177 -115 177s-114 -77 -114 -177c0 -99 39 -177 114 -177zM428 613h-311v69h311v-69z" />
    <glyph glyph-name="Otilde.smcp" unicode="&#xf7f5;" horiz-adv-x="544" 
d="M271 -12c-153 0 -241 123 -241 287s88 287 241 287s242 -123 242 -287s-89 -287 -242 -287zM271 98c75 0 115 78 115 177c0 100 -40 177 -115 177s-114 -77 -114 -177c0 -99 39 -177 114 -177zM322 604c-60 0 -70 71 -102 71c-17 0 -31 -20 -31 -65h-62
c0 81 34 134 96 134c60 0 70 -71 103 -71c17 0 30 20 30 65h62c0 -81 -33 -134 -96 -134z" />
    <glyph glyph-name="Oslash.smcp" unicode="&#xf7f8;" horiz-adv-x="544" 
d="M271 -12c-49 0 -91 12 -126 34l-15 -22h-83l46 69c-41 52 -63 123 -63 206c0 164 88 287 241 287c49 0 92 -13 127 -36l16 24h82l-47 -70c42 -52 64 -123 64 -205c0 -164 -89 -287 -242 -287zM157 275c0 -33 4 -64 13 -91l163 245c-17 14 -38 23 -62 23
c-75 0 -114 -77 -114 -177zM271 98c75 0 115 78 115 177c0 33 -5 64 -13 90l-163 -245c16 -14 37 -22 61 -22z" />
    <glyph glyph-name="Oslashacute.smcp" unicode="&#xf694;" horiz-adv-x="544" 
d="M271 -12c-49 0 -91 12 -126 34l-15 -22h-83l46 69c-41 52 -63 123 -63 206c0 164 88 287 241 287c49 0 92 -13 127 -36l16 24h82l-47 -70c42 -52 64 -123 64 -205c0 -164 -89 -287 -242 -287zM157 275c0 -33 4 -64 13 -91l163 245c-17 14 -38 23 -62 23
c-75 0 -114 -77 -114 -177zM271 98c75 0 115 78 115 177c0 33 -5 64 -13 90l-163 -245c16 -14 37 -22 61 -22zM431 750l-134 -144h-80l107 144h107z" />
    <glyph glyph-name="uni1ECC.smcp" horiz-adv-x="544" 
d="M271 -12c-153 0 -241 123 -241 287s88 287 241 287s242 -123 242 -287s-89 -287 -242 -287zM271 98c75 0 115 78 115 177c0 100 -40 177 -115 177s-114 -77 -114 -177c0 -99 39 -177 114 -177zM273 -194c-35 0 -65 28 -65 64s30 65 65 65s64 -29 64 -65s-29 -64 -64 -64z
" />
    <glyph glyph-name="uni1ECE.smcp" horiz-adv-x="544" 
d="M271 -12c-153 0 -241 123 -241 287s88 287 241 287s242 -123 242 -287s-89 -287 -242 -287zM271 98c75 0 115 78 115 177c0 100 -40 177 -115 177s-114 -77 -114 -177c0 -99 39 -177 114 -177zM245 642l-44 11c10 34 36 55 73 55c38 0 70 -21 70 -69
c0 -22 -6 -38 -16 -54h-50c14 17 19 34 19 51c0 22 -11 31 -24 31c-14 0 -23 -10 -28 -25z" />
    <glyph glyph-name="uni1ED0.smcp" horiz-adv-x="544" 
d="M271 -12c-153 0 -241 123 -241 287s88 287 241 287s242 -123 242 -287s-89 -287 -242 -287zM271 98c75 0 115 78 115 177c0 100 -40 177 -115 177s-114 -77 -114 -177c0 -99 39 -177 114 -177zM405 606h-70l-64 91l-61 -91h-70l77 144h108zM586 820l-134 -144h-80
l107 144h107z" />
    <glyph glyph-name="uni1ED2.smcp" horiz-adv-x="544" 
d="M271 -12c-153 0 -241 123 -241 287s88 287 241 287s242 -123 242 -287s-89 -287 -242 -287zM271 98c75 0 115 78 115 177c0 100 -40 177 -115 177s-114 -77 -114 -177c0 -99 39 -177 114 -177zM405 606h-70l-64 91l-61 -91h-70l77 144h108zM169 676h-80l-134 144h107z
" />
    <glyph glyph-name="uni1ED4.smcp" horiz-adv-x="544" 
d="M271 -12c-153 0 -241 123 -241 287s88 287 241 287s242 -123 242 -287s-89 -287 -242 -287zM271 98c75 0 115 78 115 177c0 100 -40 177 -115 177s-114 -77 -114 -177c0 -99 39 -177 114 -177zM405 606h-70l-64 91l-61 -91h-70l77 144h108zM340 774l-44 11
c10 34 36 55 73 55c38 0 70 -21 70 -69c0 -22 -6 -38 -16 -54h-50c14 17 19 34 19 51c0 22 -11 31 -24 31c-14 0 -23 -10 -28 -25z" />
    <glyph glyph-name="uni1ED6.smcp" horiz-adv-x="544" 
d="M271 -12c-153 0 -241 123 -241 287s88 287 241 287s242 -123 242 -287s-89 -287 -242 -287zM271 98c75 0 115 78 115 177c0 100 -40 177 -115 177s-114 -77 -114 -177c0 -99 39 -177 114 -177zM406 573h-70l-64 91l-61 -91h-70l77 144h108zM323 732c-60 0 -70 71 -102 71
c-17 0 -31 -20 -31 -65h-62c0 81 34 134 96 134c60 0 70 -71 103 -71c17 0 30 20 30 65h62c0 -81 -33 -134 -96 -134z" />
    <glyph glyph-name="uni1ED8.smcp" horiz-adv-x="544" 
d="M271 -12c-153 0 -241 123 -241 287s88 287 241 287s242 -123 242 -287s-89 -287 -242 -287zM271 98c75 0 115 78 115 177c0 100 -40 177 -115 177s-114 -77 -114 -177c0 -99 39 -177 114 -177zM405 606h-70l-64 91l-61 -91h-70l77 144h108zM273 -194c-35 0 -65 28 -65 64
s30 65 65 65s64 -29 64 -65s-29 -64 -64 -64z" />
    <glyph glyph-name="Ohorn.smcp" horiz-adv-x="544" 
d="M271 -12c-153 0 -241 123 -241 287s88 287 241 287c81 0 145 -36 186 -93c17 16 31 38 35 57c-2 -1 -8 -2 -13 -2c-27 0 -47 20 -47 50c0 29 23 54 53 54c33 0 61 -27 61 -72c0 -51 -26 -98 -65 -128c21 -44 32 -96 32 -153c0 -164 -89 -287 -242 -287zM271 98
c75 0 115 78 115 177c0 100 -40 177 -115 177s-114 -77 -114 -177c0 -99 39 -177 114 -177z" />
    <glyph glyph-name="uni1EDA.smcp" horiz-adv-x="544" 
d="M271 -12c-153 0 -241 123 -241 287s88 287 241 287c81 0 145 -36 186 -93c17 16 31 38 35 57c-2 -1 -8 -2 -13 -2c-27 0 -47 20 -47 50c0 29 23 54 53 54c33 0 61 -27 61 -72c0 -51 -26 -98 -65 -128c21 -44 32 -96 32 -153c0 -164 -89 -287 -242 -287zM271 98
c75 0 115 78 115 177c0 100 -40 177 -115 177s-114 -77 -114 -177c0 -99 39 -177 114 -177zM431 750l-134 -144h-80l107 144h107z" />
    <glyph glyph-name="uni1EDC.smcp" horiz-adv-x="544" 
d="M271 -12c-153 0 -241 123 -241 287s88 287 241 287c81 0 145 -36 186 -93c17 16 31 38 35 57c-2 -1 -8 -2 -13 -2c-27 0 -47 20 -47 50c0 29 23 54 53 54c33 0 61 -27 61 -72c0 -51 -26 -98 -65 -128c21 -44 32 -96 32 -153c0 -164 -89 -287 -242 -287zM271 98
c75 0 115 78 115 177c0 100 -40 177 -115 177s-114 -77 -114 -177c0 -99 39 -177 114 -177zM325 606h-80l-134 144h107z" />
    <glyph glyph-name="uni1EDE.smcp" horiz-adv-x="544" 
d="M271 -12c-153 0 -241 123 -241 287s88 287 241 287c81 0 145 -36 186 -93c17 16 31 38 35 57c-2 -1 -8 -2 -13 -2c-27 0 -47 20 -47 50c0 29 23 54 53 54c33 0 61 -27 61 -72c0 -51 -26 -98 -65 -128c21 -44 32 -96 32 -153c0 -164 -89 -287 -242 -287zM271 98
c75 0 115 78 115 177c0 100 -40 177 -115 177s-114 -77 -114 -177c0 -99 39 -177 114 -177zM244 642l-44 11c10 34 36 55 73 55c38 0 70 -21 70 -69c0 -22 -6 -38 -16 -54h-50c14 17 19 34 19 51c0 22 -11 31 -24 31c-14 0 -23 -10 -28 -25z" />
    <glyph glyph-name="uni1EE0.smcp" horiz-adv-x="544" 
d="M271 -12c-153 0 -241 123 -241 287s88 287 241 287c81 0 145 -36 186 -93c17 16 31 38 35 57c-2 -1 -8 -2 -13 -2c-27 0 -47 20 -47 50c0 29 23 54 53 54c33 0 61 -27 61 -72c0 -51 -26 -98 -65 -128c21 -44 32 -96 32 -153c0 -164 -89 -287 -242 -287zM271 98
c75 0 115 78 115 177c0 100 -40 177 -115 177s-114 -77 -114 -177c0 -99 39 -177 114 -177zM321 604c-60 0 -70 71 -102 71c-17 0 -31 -20 -31 -65h-62c0 81 34 134 96 134c60 0 70 -71 103 -71c17 0 30 20 30 65h62c0 -81 -33 -134 -96 -134z" />
    <glyph glyph-name="uni1EE2.smcp" horiz-adv-x="544" 
d="M271 -12c-153 0 -241 123 -241 287s88 287 241 287c81 0 145 -36 186 -93c17 16 31 38 35 57c-2 -1 -8 -2 -13 -2c-27 0 -47 20 -47 50c0 29 23 54 53 54c33 0 61 -27 61 -72c0 -51 -26 -98 -65 -128c21 -44 32 -96 32 -153c0 -164 -89 -287 -242 -287zM271 98
c75 0 115 78 115 177c0 100 -40 177 -115 177s-114 -77 -114 -177c0 -99 39 -177 114 -177zM273 -194c-35 0 -65 28 -65 64s30 65 65 65s64 -29 64 -65s-29 -64 -64 -64z" />
    <glyph glyph-name="OE.smcp" unicode="&#xf6fa;" horiz-adv-x="747" 
d="M711 0h-337v55c-31 -48 -79 -67 -129 -67c-136 0 -215 123 -215 287s79 287 215 287c50 0 98 -19 129 -67v55h337v-109h-213v-107h207v-108h-207v-117h213v-109zM374 184v183c-19 57 -56 85 -101 85c-77 0 -116 -77 -116 -177c0 -99 39 -177 116 -177c46 0 82 29 101 86z
" />
    <glyph glyph-name="uni1E56.smcp" horiz-adv-x="470" 
d="M179 0h-125v550h220c117 0 177 -83 177 -179c0 -97 -58 -179 -177 -179h-95v-192zM259 301c43 0 65 30 65 70c0 41 -22 71 -65 71h-80v-141h80zM250 595c-35 0 -65 28 -65 64s30 65 65 65s64 -29 64 -65s-29 -64 -64 -64z" />
    <glyph glyph-name="Racute.smcp" unicode="&#xf695;" horiz-adv-x="488" 
d="M411 750l-134 -144h-80l107 144h107zM457 0h-138l-83 192h-57v-192h-125v550h220c114 0 177 -79 177 -178c0 -94 -50 -145 -99 -160zM259 301c43 0 66 29 66 70s-24 71 -66 71h-80v-141h80z" />
    <glyph glyph-name="Rcaron.smcp" unicode="&#xf696;" horiz-adv-x="488" 
d="M294 606h-108l-80 144h70l64 -91l61 91h70zM457 0h-138l-83 192h-57v-192h-125v550h220c114 0 177 -79 177 -178c0 -94 -50 -145 -99 -160zM259 301c43 0 66 29 66 70s-24 71 -66 71h-80v-141h80z" />
    <glyph glyph-name="Rcommaaccent.smcp" unicode="&#xf697;" horiz-adv-x="488" 
d="M307 -138c0 -60 -33 -114 -81 -148l-42 34c27 16 57 51 62 80c-2 -1 -9 -2 -14 -2c-29 0 -52 22 -52 55s27 60 60 60c35 0 67 -29 67 -79zM457 0h-138l-83 192h-57v-192h-125v550h220c114 0 177 -79 177 -178c0 -94 -50 -145 -99 -160zM259 301c43 0 66 29 66 70
s-24 71 -66 71h-80v-141h80z" />
    <glyph glyph-name="Sacute.smcp" unicode="&#xf698;" horiz-adv-x="435" 
d="M379 750l-134 -144h-80l107 144h107zM213 -12c-85 0 -150 27 -197 70l54 96c32 -35 86 -61 140 -61c49 0 76 24 76 59c0 90 -251 62 -251 249c0 88 73 161 191 161c74 0 133 -22 179 -63l-53 -90c-33 31 -80 47 -123 47c-39 0 -66 -21 -66 -53c0 -81 251 -57 251 -247
c0 -100 -74 -168 -201 -168z" />
    <glyph glyph-name="Scaron.smcp" unicode="&#xf6fd;" horiz-adv-x="435" 
d="M278 606h-108l-80 144h70l64 -91l61 91h70zM213 -12c-85 0 -150 27 -197 70l54 96c32 -35 86 -61 140 -61c49 0 76 24 76 59c0 90 -251 62 -251 249c0 88 73 161 191 161c74 0 133 -22 179 -63l-53 -90c-33 31 -80 47 -123 47c-39 0 -66 -21 -66 -53
c0 -81 251 -57 251 -247c0 -100 -74 -168 -201 -168z" />
    <glyph glyph-name="Scircumflex.smcp" unicode="&#xf69a;" horiz-adv-x="435" 
d="M355 606h-70l-64 91l-61 -91h-70l77 144h108zM213 -12c-85 0 -150 27 -197 70l54 96c32 -35 86 -61 140 -61c49 0 76 24 76 59c0 90 -251 62 -251 249c0 88 73 161 191 161c74 0 133 -22 179 -63l-53 -90c-33 31 -80 47 -123 47c-39 0 -66 -21 -66 -53
c0 -81 251 -57 251 -247c0 -100 -74 -168 -201 -168z" />
    <glyph glyph-name="Scedilla.smcp" unicode="&#xf699;" horiz-adv-x="435" 
d="M215 -195c-41 0 -77 15 -98 32l23 48c23 -18 48 -28 72 -28c25 0 46 12 46 34c0 16 -9 26 -26 26c-12 0 -22 -5 -29 -13l-44 25l22 60c-70 6 -124 31 -165 69l54 96c32 -35 86 -61 140 -61c49 0 76 24 76 59c0 90 -251 62 -251 249c0 88 73 161 191 161
c74 0 133 -22 179 -63l-53 -90c-33 31 -80 47 -123 47c-39 0 -66 -21 -66 -53c0 -81 251 -57 251 -247c0 -93 -64 -157 -173 -167l-17 -41c9 7 19 10 32 10c35 0 63 -28 63 -69c0 -52 -46 -84 -104 -84z" />
    <glyph glyph-name="Scommaaccent.smcp" unicode="&#xf69b;" horiz-adv-x="435" 
d="M287 -138c0 -60 -33 -114 -81 -148l-42 34c27 16 57 51 62 80c-2 -1 -9 -2 -14 -2c-29 0 -52 22 -52 55s27 60 60 60c35 0 67 -29 67 -79zM213 -12c-85 0 -150 27 -197 70l54 96c32 -35 86 -61 140 -61c49 0 76 24 76 59c0 90 -251 62 -251 249c0 88 73 161 191 161
c74 0 133 -22 179 -63l-53 -90c-33 31 -80 47 -123 47c-39 0 -66 -21 -66 -53c0 -81 251 -57 251 -247c0 -100 -74 -168 -201 -168z" />
    <glyph glyph-name="uni1E60.smcp" horiz-adv-x="435" 
d="M213 -12c-85 0 -150 27 -197 70l54 96c32 -35 86 -61 140 -61c49 0 76 24 76 59c0 90 -251 62 -251 249c0 88 73 161 191 161c74 0 133 -22 179 -63l-53 -90c-33 31 -80 47 -123 47c-39 0 -66 -21 -66 -53c0 -81 251 -57 251 -247c0 -100 -74 -168 -201 -168zM225 595
c-35 0 -65 28 -65 64s30 65 65 65s64 -29 64 -65s-29 -64 -64 -64z" />
    <glyph glyph-name="Tbar.smcp" unicode="&#xf69c;" horiz-adv-x="398" 
d="M262 0h-125v211h-77v69h77v162h-119v108h363v-108h-119v-162h70v-69h-70v-211z" />
    <glyph glyph-name="Tcaron.smcp" unicode="&#xf69d;" horiz-adv-x="398" 
d="M255 606h-108l-80 144h70l64 -91l61 91h70zM262 0h-125v442h-119v108h363v-108h-119v-442z" />
    <glyph glyph-name="Tcommaaccent.smcp" unicode="&#xf69e;" horiz-adv-x="398" 
d="M266 -138c0 -60 -33 -114 -81 -148l-42 34c27 16 57 51 62 80c-2 -1 -9 -2 -14 -2c-29 0 -52 22 -52 55s27 60 60 60c35 0 67 -29 67 -79zM262 0h-125v442h-119v108h363v-108h-119v-442z" />
    <glyph glyph-name="uni021A.smcp" horiz-adv-x="398" 
d="M266 -138c0 -60 -33 -114 -81 -148l-42 34c27 16 57 51 62 80c-2 -1 -9 -2 -14 -2c-29 0 -52 22 -52 55s27 60 60 60c35 0 67 -29 67 -79zM262 0h-125v442h-119v108h363v-108h-119v-442z" />
    <glyph glyph-name="uni1E6A.smcp" horiz-adv-x="398" 
d="M262 0h-125v442h-119v108h363v-108h-119v-442zM202 595c-35 0 -65 28 -65 64s30 65 65 65s64 -29 64 -65s-29 -64 -64 -64z" />
    <glyph glyph-name="Uacute.smcp" unicode="&#xf7fa;" horiz-adv-x="539" 
d="M430 750l-134 -144h-80l107 144h107zM270 -12c-138 0 -216 79 -216 219v343h126v-351c0 -64 31 -101 90 -101c58 0 90 38 90 101v351h125v-342c0 -142 -78 -220 -215 -220z" />
    <glyph glyph-name="Ubreve.smcp" unicode="&#xf69f;" horiz-adv-x="539" 
d="M270 -12c-138 0 -216 79 -216 219v343h126v-351c0 -64 31 -101 90 -101c58 0 90 38 90 101v351h125v-342c0 -142 -78 -220 -215 -220zM420 663c-35 -46 -88 -75 -150 -75c-60 0 -115 29 -150 75l55 44c21 -30 55 -50 95 -50c39 0 74 19 95 50z" />
    <glyph glyph-name="Ucircumflex.smcp" unicode="&#xf7fb;" horiz-adv-x="539" 
d="M403 606h-70l-64 91l-61 -91h-70l77 144h108zM270 -12c-138 0 -216 79 -216 219v343h126v-351c0 -64 31 -101 90 -101c58 0 90 38 90 101v351h125v-342c0 -142 -78 -220 -215 -220z" />
    <glyph glyph-name="Udieresis.smcp" unicode="&#xf7fc;" horiz-adv-x="539" 
d="M429 660c0 -36 -30 -65 -66 -65c-35 0 -64 29 -64 65s29 64 64 64c36 0 66 -28 66 -64zM241 660c0 -36 -28 -65 -64 -65s-65 29 -65 65s29 64 65 64s64 -28 64 -64zM270 -12c-138 0 -216 79 -216 219v343h126v-351c0 -64 31 -101 90 -101c58 0 90 38 90 101v351h125v-342
c0 -142 -78 -220 -215 -220z" />
    <glyph glyph-name="Ugrave.smcp" unicode="&#xf7f9;" horiz-adv-x="539" 
d="M270 -12c-138 0 -216 79 -216 219v343h126v-351c0 -64 31 -101 90 -101c58 0 90 38 90 101v351h125v-342c0 -142 -78 -220 -215 -220zM323 606h-80l-134 144h107z" />
    <glyph glyph-name="Uhungarumlaut.smcp" unicode="&#xf6a0;" horiz-adv-x="539" 
d="M270 -12c-138 0 -216 79 -216 219v343h126v-351c0 -64 31 -101 90 -101c58 0 90 38 90 101v351h125v-342c0 -142 -78 -220 -215 -220zM320 750l-98 -144h-66l70 144h94zM459 750l-98 -144h-66l70 144h94z" />
    <glyph glyph-name="Umacron.smcp" unicode="&#xf6a1;" horiz-adv-x="539" 
d="M270 -12c-138 0 -216 79 -216 219v343h126v-351c0 -64 31 -101 90 -101c58 0 90 38 90 101v351h125v-342c0 -142 -78 -220 -215 -220zM426 613h-311v69h311v-69z" />
    <glyph glyph-name="Uogonek.smcp" unicode="&#xf6a2;" horiz-adv-x="539" 
d="M356 -103l49 -28c-15 -32 -42 -55 -85 -55c-50 0 -90 26 -90 86c0 32 11 62 33 88c-134 3 -209 81 -209 219v343h126v-351c0 -64 31 -101 90 -101c58 0 90 38 90 101v351h125v-342c0 -110 -47 -182 -132 -208c-42 -25 -63 -58 -63 -95c0 -29 14 -40 31 -40
c18 0 29 13 35 32z" />
    <glyph glyph-name="Uring.smcp" unicode="&#xf6a3;" horiz-adv-x="539" 
d="M270 -12c-138 0 -216 79 -216 219v343h126v-351c0 -64 31 -101 90 -101c58 0 90 38 90 101v351h125v-342c0 -142 -78 -220 -215 -220zM271 574c-53 0 -97 43 -97 97c0 53 44 97 97 97s96 -44 96 -97c0 -54 -43 -97 -96 -97zM271 628c24 0 42 19 42 43c0 23 -18 43 -42 43
c-23 0 -43 -20 -43 -43c0 -24 20 -43 43 -43z" />
    <glyph glyph-name="Utilde.smcp" unicode="&#xf6a4;" horiz-adv-x="539" 
d="M270 -12c-138 0 -216 79 -216 219v343h126v-351c0 -64 31 -101 90 -101c58 0 90 38 90 101v351h125v-342c0 -142 -78 -220 -215 -220zM320 604c-60 0 -70 71 -102 71c-17 0 -31 -20 -31 -65h-62c0 81 34 134 96 134c60 0 70 -71 103 -71c17 0 30 20 30 65h62
c0 -81 -33 -134 -96 -134z" />
    <glyph glyph-name="uni1EE4.smcp" horiz-adv-x="539" 
d="M270 -12c-138 0 -216 79 -216 219v343h126v-351c0 -64 31 -101 90 -101c58 0 90 38 90 101v351h125v-342c0 -142 -78 -220 -215 -220zM270 -194c-35 0 -65 28 -65 64s30 65 65 65s64 -29 64 -65s-29 -64 -64 -64z" />
    <glyph glyph-name="Uhorn.smcp" horiz-adv-x="539" 
d="M270 -12c-138 0 -216 79 -216 219v343h126v-351c0 -64 31 -101 90 -101c58 0 90 38 90 101v351h125v-33c21 18 38 43 42 65c-1 -1 -8 -2 -13 -2c-27 0 -47 20 -47 49c0 30 24 55 54 55c32 0 61 -27 61 -72c0 -56 -33 -114 -97 -150v-254c0 -142 -78 -220 -215 -220z" />
    <glyph glyph-name="uni1EE6.smcp" horiz-adv-x="539" 
d="M270 -12c-138 0 -216 79 -216 219v343h126v-351c0 -64 31 -101 90 -101c58 0 90 38 90 101v351h125v-342c0 -142 -78 -220 -215 -220zM242 637l-44 11c10 34 36 55 73 55c38 0 70 -21 70 -69c0 -22 -6 -38 -16 -54h-50c14 17 19 34 19 51c0 22 -11 31 -24 31
c-14 0 -23 -10 -28 -25z" />
    <glyph glyph-name="uni1EE8.smcp" horiz-adv-x="539" 
d="M430 750l-134 -144h-80l107 144h107zM270 -12c-138 0 -216 79 -216 219v343h126v-351c0 -64 31 -101 90 -101c58 0 90 38 90 101v351h125v-33c21 18 38 43 42 65c-1 -1 -8 -2 -13 -2c-27 0 -47 20 -47 49c0 30 24 55 54 55c32 0 61 -27 61 -72c0 -56 -33 -114 -97 -150
v-254c0 -142 -78 -220 -215 -220z" />
    <glyph glyph-name="uni1EEA.smcp" horiz-adv-x="539" 
d="M323 606h-80l-134 144h107zM270 -12c-138 0 -216 79 -216 219v343h126v-351c0 -64 31 -101 90 -101c58 0 90 38 90 101v351h125v-33c21 18 38 43 42 65c-1 -1 -8 -2 -13 -2c-27 0 -47 20 -47 49c0 30 24 55 54 55c32 0 61 -27 61 -72c0 -56 -33 -114 -97 -150v-254
c0 -142 -78 -220 -215 -220z" />
    <glyph glyph-name="uni1EEC.smcp" horiz-adv-x="539" 
d="M242 637l-44 11c10 34 36 55 73 55c38 0 70 -21 70 -69c0 -22 -6 -38 -16 -54h-50c14 17 19 34 19 51c0 22 -11 31 -24 31c-14 0 -23 -10 -28 -25zM270 -12c-138 0 -216 79 -216 219v343h126v-351c0 -64 31 -101 90 -101c58 0 90 38 90 101v351h125v-33
c21 18 38 43 42 65c-1 -1 -8 -2 -13 -2c-27 0 -47 20 -47 49c0 30 24 55 54 55c32 0 61 -27 61 -72c0 -56 -33 -114 -97 -150v-254c0 -142 -78 -220 -215 -220z" />
    <glyph glyph-name="uni1EEE.smcp" horiz-adv-x="539" 
d="M270 -12c-138 0 -216 79 -216 219v343h126v-351c0 -64 31 -101 90 -101c58 0 90 38 90 101v351h125v-33c21 18 38 43 42 65c-1 -1 -8 -2 -13 -2c-27 0 -47 20 -47 49c0 30 24 55 54 55c32 0 61 -27 61 -72c0 -56 -33 -114 -97 -150v-254c0 -142 -78 -220 -215 -220z
M320 604c-60 0 -70 71 -102 71c-17 0 -31 -20 -31 -65h-62c0 81 34 134 96 134c60 0 70 -71 103 -71c17 0 30 20 30 65h62c0 -81 -33 -134 -96 -134z" />
    <glyph glyph-name="uni1EF0.smcp" horiz-adv-x="539" 
d="M270 -194c-35 0 -65 28 -65 64s30 65 65 65s64 -29 64 -65s-29 -64 -64 -64zM270 -12c-138 0 -216 79 -216 219v343h126v-351c0 -64 31 -101 90 -101c58 0 90 38 90 101v351h125v-33c21 18 38 43 42 65c-1 -1 -8 -2 -13 -2c-27 0 -47 20 -47 49c0 30 24 55 54 55
c32 0 61 -27 61 -72c0 -56 -33 -114 -97 -150v-254c0 -142 -78 -220 -215 -220z" />
    <glyph glyph-name="Wacute.smcp" horiz-adv-x="669" 
d="M533 0h-128l-71 339l-71 -339h-128l-133 550h133l71 -355l80 355h98l79 -357l71 357h133zM494 750l-134 -144h-80l107 144h107z" />
    <glyph glyph-name="Wcircumflex.smcp" unicode="&#xf6a6;" horiz-adv-x="669" 
d="M467 606h-70l-64 91l-61 -91h-70l77 144h108zM533 0h-128l-71 339l-71 -339h-128l-133 550h133l71 -355l80 355h98l79 -357l71 357h133z" />
    <glyph glyph-name="Wdieresis.smcp" horiz-adv-x="669" 
d="M533 0h-128l-71 339l-71 -339h-128l-133 550h133l71 -355l80 355h98l79 -357l71 357h133zM493 660c0 -36 -30 -65 -66 -65c-35 0 -64 29 -64 65s29 64 64 64c36 0 66 -28 66 -64zM305 660c0 -36 -28 -65 -64 -65s-65 29 -65 65s29 64 65 64s64 -28 64 -64z" />
    <glyph glyph-name="Wgrave.smcp" horiz-adv-x="669" 
d="M533 0h-128l-71 339l-71 -339h-128l-133 550h133l71 -355l80 355h98l79 -357l71 357h133zM388 606h-80l-134 144h107z" />
    <glyph glyph-name="Yacute.smcp" unicode="&#xf7fd;" horiz-adv-x="472" 
d="M397 750l-134 -144h-80l107 144h107zM299 0h-124v227l-179 323h136l105 -209l103 209h137l-178 -323v-227z" />
    <glyph glyph-name="Ycircumflex.smcp" unicode="&#xf6a9;" horiz-adv-x="472" 
d="M370 606h-70l-64 91l-61 -91h-70l77 144h108zM299 0h-124v227l-179 323h136l105 -209l103 209h137l-178 -323v-227z" />
    <glyph glyph-name="Ydieresis.smcp" unicode="&#xf7ff;" horiz-adv-x="472" 
d="M396 660c0 -36 -30 -65 -66 -65c-35 0 -64 29 -64 65s29 64 64 64c36 0 66 -28 66 -64zM208 660c0 -36 -28 -65 -64 -65s-65 29 -65 65s29 64 65 64s64 -28 64 -64zM299 0h-124v227l-179 323h136l105 -209l103 209h137l-178 -323v-227z" />
    <glyph glyph-name="Ygrave.smcp" horiz-adv-x="472" 
d="M299 0h-124v227l-179 323h136l105 -209l103 209h137l-178 -323v-227zM291 606h-80l-134 144h107z" />
    <glyph glyph-name="Zacute.smcp" unicode="&#xf6ab;" horiz-adv-x="423" 
d="M371 750l-134 -144h-80l107 144h107zM393 0h-363v93l199 348h-199v109h357v-91l-199 -350h205v-109z" />
    <glyph glyph-name="Zcaron.smcp" unicode="&#xf6ff;" horiz-adv-x="423" 
d="M265 606h-108l-80 144h70l64 -91l61 91h70zM393 0h-363v93l199 348h-199v109h357v-91l-199 -350h205v-109z" />
    <glyph glyph-name="Zdotaccent.smcp" unicode="&#xf6ac;" horiz-adv-x="423" 
d="M393 0h-363v93l199 348h-199v109h357v-91l-199 -350h205v-109zM214 595c-35 0 -65 28 -65 64s30 65 65 65s64 -29 64 -65s-29 -64 -64 -64z" />
    <glyph glyph-name="Eth.smcp" unicode="&#xf7f0;" horiz-adv-x="541" 
d="M254 0h-192v235h-50v82h50v233h191c161 0 251 -114 251 -276c0 -161 -89 -274 -250 -274zM270 235h-83v-127h66c82 0 124 69 124 166c0 102 -40 168 -124 168h-66v-125h83v-82z" />
    <glyph glyph-name="Thorn.smcp" unicode="&#xf7fe;" horiz-adv-x="470" 
d="M179 0h-125v550h125v-83h95c117 0 177 -83 177 -179c0 -97 -58 -179 -177 -179h-95v-109zM259 217c43 0 65 31 65 70c0 41 -22 72 -65 72h-80v-142h80z" />
    <glyph glyph-name="acute" unicode="&#xb4;" horiz-adv-x="214" 
d="M214 700l-134 -144h-80l107 144h107z" />
    <glyph glyph-name="dieresis" unicode="&#xa8;" horiz-adv-x="286" 
d="M302 610c0 -36 -30 -65 -66 -65c-35 0 -64 29 -64 65s29 64 64 64c36 0 66 -28 66 -64zM114 610c0 -36 -28 -65 -64 -65s-65 29 -65 65s29 64 65 64s64 -28 64 -64z" />
    <glyph glyph-name="grave" unicode="`" horiz-adv-x="214" 
d="M214 556h-80l-134 144h107z" />
    <glyph glyph-name="uni02CB" unicode="&#x2cb;" horiz-adv-x="214" 
d="M214 556h-80l-134 144h107z" />
    <glyph glyph-name="circumflex" unicode="&#x2c6;" horiz-adv-x="265" 
d="M265 556h-70l-64 91l-61 -91h-70l77 144h108z" />
    <glyph glyph-name="tilde" unicode="&#x2dc;" horiz-adv-x="291" 
d="M195 554c-60 0 -70 71 -102 71c-17 0 -31 -20 -31 -65h-62c0 81 34 134 96 134c60 0 70 -71 103 -71c17 0 30 20 30 65h62c0 -81 -33 -134 -96 -134z" />
    <glyph glyph-name="macron" unicode="&#xaf;" horiz-adv-x="311" 
d="M311 563h-311v69h311v-69z" />
    <glyph glyph-name="uni203E" unicode="&#x203e;" horiz-adv-x="311" 
d="M311 563h-311v69h311v-69z" />
    <glyph glyph-name="breve" unicode="&#x2d8;" horiz-adv-x="300" 
d="M300 613c-35 -46 -88 -75 -150 -75c-60 0 -115 29 -150 75l55 44c21 -30 55 -50 95 -50c39 0 74 19 95 50z" />
    <glyph glyph-name="dotaccent" unicode="&#x2d9;" horiz-adv-x="165" 
d="M83 545c-35 0 -65 28 -65 64s30 65 65 65s64 -29 64 -65s-29 -64 -64 -64z" />
    <glyph glyph-name="ring" unicode="&#x2da;" horiz-adv-x="193" 
d="M97 534c-53 0 -97 43 -97 97c0 53 44 97 97 97s96 -44 96 -97c0 -54 -43 -97 -96 -97zM97 588c24 0 42 19 42 43c0 23 -18 43 -42 43c-23 0 -43 -20 -43 -43c0 -24 20 -43 43 -43z" />
    <glyph glyph-name="cedilla" unicode="&#xb8;" horiz-adv-x="202" 
d="M98 -195c-41 0 -77 15 -98 32l23 48c23 -18 48 -28 72 -28c25 0 46 12 46 34c0 16 -9 26 -26 26c-12 0 -22 -5 -29 -13l-44 25l31 82h60l-26 -63c9 7 19 10 32 10c35 0 63 -28 63 -69c0 -52 -46 -84 -104 -84z" />
    <glyph glyph-name="hungarumlaut" unicode="&#x2dd;" horiz-adv-x="303" 
d="M164 700l-98 -144h-66l70 144h94zM303 700l-98 -144h-66l70 144h94z" />
    <glyph glyph-name="ogonek" unicode="&#x2db;" horiz-adv-x="175" 
d="M126 -103l49 -28c-15 -32 -42 -55 -85 -55c-50 0 -90 26 -90 86c0 49 28 94 81 129l43 -29c-42 -25 -64 -58 -64 -95c0 -29 14 -40 31 -40c18 0 29 13 35 32z" />
    <glyph glyph-name="caron" unicode="&#x2c7;" horiz-adv-x="265" 
d="M188 556h-108l-80 144h70l64 -91l61 91h70z" />
    <glyph glyph-name="commaaccent" unicode="&#xf6c3;" horiz-adv-x="253" 
d="M192 -138c0 -60 -33 -114 -81 -148l-42 34c27 16 57 51 62 80c-2 -1 -9 -2 -14 -2c-29 0 -52 22 -52 55s27 60 60 60c35 0 67 -29 67 -79z" />
    <glyph glyph-name="uni02C9" unicode="&#x2c9;" horiz-adv-x="311" 
d="M311 591h-311v69h311v-69z" />
    <glyph glyph-name="hookabovecomb" unicode="&#x309;" horiz-adv-x="175" 
d="M58 724l-44 11c10 34 36 55 73 55c38 0 70 -21 70 -69c0 -22 -6 -38 -16 -54h-50c14 17 19 34 19 51c0 22 -11 31 -24 31c-14 0 -23 -10 -28 -25z" />
    <glyph glyph-name="Alpha" unicode="&#x391;" horiz-adv-x="554" 
d="M556 0h-146l-31 118h-205l-31 -118h-145l198 667h162zM353 236l-76 290l-76 -290h152z" />
    <glyph glyph-name="Beta" unicode="&#x392;" horiz-adv-x="558" 
d="M344 0h-285v667h276c119 0 176 -79 176 -170c0 -84 -46 -138 -107 -153c68 -11 118 -81 118 -164c0 -101 -57 -180 -178 -180zM303 397c48 0 71 31 71 77c0 45 -23 76 -71 76h-110v-153h110zM308 117c50 0 77 30 77 82c0 46 -26 82 -77 82h-115v-164h115z" />
    <glyph glyph-name="Gamma" unicode="&#x393;" horiz-adv-x="473" 
d="M193 0h-134v667h382v-118h-248v-549z" />
    <glyph glyph-name="uni0394" unicode="&#x394;" horiz-adv-x="563" 
d="M565 0h-567l202 667h162zM392 118l-111 408l-110 -408h221z" />
    <glyph glyph-name="Delta" unicode="&#x2206;" horiz-adv-x="563" 
d="M565 0h-567l202 667h162zM392 118l-111 408l-110 -408h221z" />
    <glyph glyph-name="Epsilon" unicode="&#x395;" horiz-adv-x="481" 
d="M441 0h-382v667h382v-118h-248v-151h241v-118h-241v-162h248v-118z" />
    <glyph glyph-name="Zeta" unicode="&#x396;" horiz-adv-x="484" 
d="M448 0h-412v110l241 439h-241v118h405v-108l-243 -441h250v-118z" />
    <glyph glyph-name="Eta" unicode="&#x397;" horiz-adv-x="608" 
d="M549 0h-135v284h-221v-284h-134v667h134v-265h221v265h135v-667z" />
    <glyph glyph-name="Theta" unicode="&#x398;" horiz-adv-x="622" 
d="M416 280h-210v118h210v-118zM310 -12c-174 0 -278 146 -278 345c0 198 104 345 278 345c175 0 279 -147 279 -345c0 -199 -104 -345 -279 -345zM310 107c92 0 142 99 142 226c0 129 -50 226 -142 226c-91 0 -140 -97 -140 -226c0 -127 49 -226 140 -226z" />
    <glyph glyph-name="Iota" unicode="&#x399;" horiz-adv-x="252" 
d="M193 0h-134v667h134v-667z" />
    <glyph glyph-name="Kappa" unicode="&#x39a;" horiz-adv-x="553" 
d="M552 0h-158l-154 261l-47 -74v-187h-134v667h134v-303l188 303h156l-213 -314z" />
    <glyph glyph-name="Lambda" unicode="&#x39b;" horiz-adv-x="554" 
d="M556 0h-146l-133 526l-134 -526h-145l198 667h162z" />
    <glyph glyph-name="Mu" unicode="&#x39c;" horiz-adv-x="735" 
d="M677 0h-134v430l-149 -430h-53l-148 430v-430h-134v667h180l129 -372l130 372h179v-667z" />
    <glyph glyph-name="Nu" unicode="&#x39d;" horiz-adv-x="606" 
d="M548 0h-128l-227 394v-394h-134v667h136l218 -380v380h135v-667z" />
    <glyph glyph-name="Xi" unicode="&#x39e;" horiz-adv-x="511" 
d="M471 549h-431v118h431v-118zM471 0h-431v118h431v-118zM464 280h-417v118h417v-118z" />
    <glyph glyph-name="Omicron" unicode="&#x39f;" horiz-adv-x="622" 
d="M310 -12c-174 0 -278 146 -278 345c0 198 104 345 278 345c175 0 279 -147 279 -345c0 -199 -104 -345 -279 -345zM310 107c92 0 142 99 142 226c0 129 -50 226 -142 226c-91 0 -140 -97 -140 -226c0 -127 49 -226 140 -226z" />
    <glyph glyph-name="Pi" unicode="&#x3a0;" horiz-adv-x="608" 
d="M549 0h-135v549h-221v-549h-134v667h490v-667z" />
    <glyph glyph-name="Rho" unicode="&#x3a1;" horiz-adv-x="533" 
d="M193 0h-134v667h246c137 0 206 -99 206 -213s-69 -213 -206 -213h-112v-241zM289 359c51 0 85 37 85 95s-34 95 -85 95h-96v-190h96z" />
    <glyph glyph-name="Sigma" unicode="&#x3a3;" horiz-adv-x="474" 
d="M195 549l155 -207l-160 -224h247v-118h-397v120l158 222l-157 207v118h396v-118h-242z" />
    <glyph glyph-name="Tau" unicode="&#x3a4;" horiz-adv-x="473" 
d="M304 0h-134v549h-148v118h430v-118h-148v-549z" />
    <glyph glyph-name="Upsilon" unicode="&#x3a5;" horiz-adv-x="538" 
d="M336 0h-134v275l-206 392h148l125 -268l125 268h148l-206 -392v-275z" />
    <glyph glyph-name="Phi" unicode="&#x3a6;" horiz-adv-x="755" 
d="M445 0h-135v67c-183 20 -278 122 -278 266c0 143 95 245 278 265v69h135v-69c182 -20 278 -122 278 -265c0 -144 -96 -246 -278 -266v-67zM585 333c0 73 -44 128 -140 144v-289c96 17 140 71 140 145zM170 333c0 -74 43 -128 140 -145v289c-97 -16 -140 -71 -140 -144z
" />
    <glyph glyph-name="Chi" unicode="&#x3a7;" horiz-adv-x="553" 
d="M555 0h-154l-125 237l-124 -237h-154l195 341l-184 326h154l113 -223l113 223h155l-184 -325z" />
    <glyph glyph-name="Psi" unicode="&#x3a8;" horiz-adv-x="773" 
d="M454 0h-134v127c-160 19 -261 108 -261 252v288h136v-285c0 -76 44 -120 125 -135v420h134v-419c79 15 124 59 124 134v285h136v-287c0 -146 -100 -234 -260 -253v-127z" />
    <glyph glyph-name="uni03A9" unicode="&#x3a9;" horiz-adv-x="617" 
d="M44 118h98c-59 47 -112 126 -112 245c0 190 107 315 278 315c172 0 279 -125 279 -315c0 -119 -53 -198 -112 -245h98v-118h-220v118c55 25 96 111 96 216c0 126 -42 224 -141 224c-98 0 -141 -98 -141 -224c0 -105 42 -191 97 -216v-118h-220v118z" />
    <glyph glyph-name="Omega" unicode="&#x2126;" horiz-adv-x="617" 
d="M44 118h98c-59 47 -112 126 -112 245c0 190 107 315 278 315c172 0 279 -125 279 -315c0 -119 -53 -198 -112 -245h98v-118h-220v118c55 25 96 111 96 216c0 126 -42 224 -141 224c-98 0 -141 -98 -141 -224c0 -105 42 -191 97 -216v-118h-220v118z" />
    <glyph glyph-name="alpha" unicode="&#x3b1;" horiz-adv-x="517" 
d="M500 96l8 -101c-13 -4 -34 -7 -55 -7c-70 0 -104 31 -117 83c-25 -49 -75 -83 -128 -83c-108 0 -179 95 -179 253c0 155 70 254 179 254c46 0 92 -23 121 -73v61h121v-347c0 -26 11 -42 33 -42c6 0 12 1 17 2zM246 94c33 0 68 25 84 57v180c-16 32 -51 57 -84 57
c-61 0 -93 -62 -93 -147c0 -84 32 -147 93 -147z" />
    <glyph glyph-name="beta" unicode="&#x3b2;" horiz-adv-x="504" 
d="M174 453v-302c18 -32 51 -57 90 -57c57 0 86 45 86 96c0 65 -39 95 -88 95h-28v107h23c49 0 79 33 79 89c0 57 -29 89 -72 89c-51 0 -90 -35 -90 -117zM174 61v-245h-120v637c0 165 108 224 211 224c120 0 196 -64 196 -181c0 -76 -46 -136 -114 -152
c64 -11 128 -70 128 -176c0 -97 -71 -180 -171 -180c-54 0 -100 25 -130 73z" />
    <glyph glyph-name="gamma" unicode="&#x3b3;" horiz-adv-x="447" 
d="M283 -184h-120v113c0 216 -74 420 -175 554h134c58 -90 107 -215 116 -330c40 80 70 216 70 330h121c0 -160 -64 -349 -146 -475v-192z" />
    </font>
</defs>
</svg>
